<?xml version="1.0" encoding="utf-8"?>
<!-- Generator: Adobe Illustrator 21.1.0, SVG Export Plug-In . SVG Version: 6.00 Build 0)  -->
<svg version="1.1" id="Layer_1" xmlns="http://www.w3.org/2000/svg" xmlns:xlink="http://www.w3.org/1999/xlink" x="0px" y="0px"
	 viewBox="0 0 112.6 112.6" style="enable-background:new 0 0 112.6 112.6;" xml:space="preserve">
<style type="text/css">
	.st0{fill:#00632F;}
	.st1{fill:#FFFFFF;}
	.st2{font-family:'Arial-BoldMT';}
	.st3{font-size:8.04px;}
	.st4{font-size:8.0179px;}
	.st5{font-size:8.0344px;}
	.st6{font-size:8.0629px;}
	.st7{font-size:8.011px;}
	.st8{font-size:8.0597px;}
	.st9{font-size:8.0162px;}
	.st10{font-size:8.0569px;}
	.st11{font-size:8.0537px;}
	.st12{font-size:8.0464px;}
	.st13{font-size:8.0581px;}
	.st14{font-size:8.0368px;}
	.st15{font-size:8.0211px;}
	.st16{font-size:8.015px;}
	.st17{font-size:8.0725px;}
	.st18{font-size:8.0098px;}
	.st19{fill:#FF0031;}
</style>
<title>img-flower</title>
<path class="st0" d="M56.5,6.4C29.3,6.2,6.6,29.5,6.6,56.2c0,26.7,22.9,49.6,49.4,49.6c26.9,0.1,50.3-22.6,49.8-49.6
	C106.3,29.3,83.1,6.6,56.5,6.4z M80.2,80.4c-6.4,6.3-15,9.9-24,9.9h0C37.6,90.4,22.4,75.5,22.2,57c0-0.2,0-0.5,0-0.7
	c-0.1-9,3.5-17.7,9.8-24.1c6.3-6.4,15-10,24-10c9.1-0.1,17.9,3.5,24.4,9.9C93.7,45.5,93.6,67.1,80.2,80.4z"/>
<path class="st0" d="M56.2,0.4C86.4-0.2,112,25.9,112,56.2s-25.7,55.9-56.2,55.7C26,111.8,0.1,85.9,0.5,55.5
	C0.9,26,25.7-0.2,56.2,0.4z M56.2,107.4c27.7,0.5,51.3-23.2,51.3-51.1S84,4.8,56.2,4.8C28.2,4.8,5,28.5,5,56.3
	C5,83.8,28.6,107.9,56.2,107.4L56.2,107.4z"/>
<text transform="matrix(0.6007 -0.7995 0.7995 0.6007 23.1199 35.5197)" class="st1 st2 st3">M</text>
<text transform="matrix(0.6919 -0.722 0.722 0.6919 27.5202 29.9102)" class="st1 st2 st4">.</text>
<text transform="matrix(0.7518 -0.6593 0.6593 0.7518 28.92 28.36)" class="st1 st2 st3">L</text>
<text transform="matrix(0.8288 -0.5595 0.5595 0.8288 32.3699 25.3001)" class="st1 st2 st3">E</text>
<text transform="matrix(0.8967 -0.4426 0.4426 0.8967 36.54 22.4599)" class="st1 st2 st3">A</text>
<text transform="matrix(0.9507 -0.3102 0.3102 0.9507 41.2702 20.0805)" class="st1 st2 st5">G</text>
<text transform="matrix(0.9872 -0.1595 0.1595 0.9872 46.8797 18.2601)" class="st1 st2 st6">U</text>
<text transform="matrix(0.9998 -1.902294e-02 1.902294e-02 0.9998 52.58 17.36)" class="st1 st2 st3">E</text>
<text transform="matrix(0.9408 0.3389 -0.3389 0.9408 66.1699 18.48)" class="st1 st2 st3">M</text>
<text transform="matrix(0.8956 0.4448 -0.4448 0.8956 72.84 21.03)" class="st1 st2 st3">.</text>
<text transform="matrix(0.8543 0.5198 -0.5198 0.8543 74.7498 21.9099)" class="st1 st2 st3">L</text>
<text transform="matrix(0.7828 0.6222 -0.6222 0.7828 78.7104 24.2899)" class="st1 st2 st7">E</text>
<text transform="matrix(0.6926 0.7213 -0.7213 0.6926 82.6398 27.3899)" class="st1 st2 st3">A</text>
<text transform="matrix(0.5794 0.815 -0.815 0.5794 86.3604 31.21)" class="st1 st2 st3">G</text>
<text transform="matrix(0.4495 0.8933 -0.8933 0.4495 89.7902 36.0099)" class="st1 st2 st3">U</text>
<text transform="matrix(0.3192 0.9477 -0.9477 0.3192 92.3701 41.1595)" class="st1 st2 st8">E</text>
<text transform="matrix(-5.181309e-02 0.9987 -0.9987 -5.181309e-02 95.3592 54.41)" class="st1 st2 st3">M</text>
<text transform="matrix(-0.1663 0.9861 -0.9861 -0.1663 94.851 61.54)" class="st1 st2 st3">.</text>
<text transform="matrix(-0.2499 0.9683 -0.9683 -0.2499 94.5709 63.6401)" class="st1 st2 st3">L</text>
<text transform="matrix(-0.361 0.9326 -0.9326 -0.361 93.4405 68.1298)" class="st1 st2 st4">E</text>
<text transform="matrix(-0.4778 0.8785 -0.8785 -0.4778 91.6493 72.8402)" class="st1 st2 st3">A</text>
<text transform="matrix(-0.6 0.8 -0.8 -0.6 89.1501 77.5101)" class="st1 st2 st3">G</text>
<text transform="matrix(-0.7121 0.7021 -0.7021 -0.7121 85.619 82.2386)" class="st1 st2 st9">U</text>
<text transform="matrix(-0.8083 0.5888 -0.5888 -0.8083 81.4794 86.2894)" class="st1 st2 st10">E</text>
<text transform="matrix(-0.9684 0.2496 -0.2496 -0.9684 69.7595 93.1496)" class="st1 st2 st11">M</text>
<text transform="matrix(-0.9915 0.1302 -0.1302 -0.9915 62.8396 94.7801)" class="st1 st2 st3">.</text>
<text transform="matrix(-0.9992 3.996804e-02 -3.996804e-02 -0.9992 60.7393 95.1095)" class="st1 st2 st12">L</text>
<text transform="matrix(-0.9968 -7.932910e-02 7.932910e-02 -0.9968 56.1498 95.3297)" class="st1 st2 st3">E</text>
<text transform="matrix(-0.9778 -0.2095 0.2095 -0.9778 51.1104 94.9507)" class="st1 st2 st13">A</text>
<text transform="matrix(-0.9404 -0.3401 0.3401 -0.9404 45.8884 93.879)" class="st1 st2 st14">G</text>
<text transform="matrix(-0.8821 -0.4711 0.4711 -0.8821 40.3404 91.9004)" class="st1 st2 st15">U</text>
<text transform="matrix(-0.8083 -0.5888 0.5888 -0.8083 35.2403 89.1586)" class="st1 st2 st10">E</text>
<text transform="matrix(-0.5291 -0.8486 0.8486 -0.5291 25.1201 80.0794)" class="st1 st2 st11">M</text>
<text transform="matrix(-0.4293 -0.9032 0.9032 -0.4293 21.4401 73.971)" class="st1 st2 st3">.</text>
<text transform="matrix(-0.3486 -0.9373 0.9373 -0.3486 20.48 72.1004)" class="st1 st2 st3">L</text>
<text transform="matrix(-0.2307 -0.973 0.973 -0.2307 18.8496 67.7907)" class="st1 st2 st16">E</text>
<text transform="matrix(-8.963770e-02 -0.996 0.996 -8.963770e-02 17.6893 62.91)" class="st1 st2 st17">A</text>
<text transform="matrix(5.355597e-02 -0.9986 0.9986 5.355597e-02 17.16 57.6001)" class="st1 st2 st3">G</text>
<text transform="matrix(0.2006 -0.9797 0.9797 0.2006 17.47 51.7098)" class="st1 st2 st3">U</text>
<text transform="matrix(0.3312 -0.9435 0.9435 0.3312 18.6395 46.0603)" class="st1 st2 st18">E</text>
<path class="st19" d="M40.5,54.7v0.2h3.2c0.5,0,1.2,0.1,1.1-0.7c-0.1-0.4-0.4-0.8-0.8-0.9c-2.6-0.9-5.1-1.7-7.7-2.5
	c-0.4-0.1-0.8-0.1-1.2,0c-0.9,0.3-2-0.1-2.4-1c-0.5-1-0.1-2.1,0.9-2.6c0.8-0.4,1.8-0.2,2.3,0.5c0.3,0.3,0.6,0.6,1,0.7
	c2.6,0.9,5.2,1.7,7.8,2.5c0.5,0.1,1,0.4,1.3-0.3s-0.2-0.9-0.6-1.2c-1.6-1.1-3.3-2.3-4.9-3.4c-0.6-0.4-1.5-0.8-0.9-1.7
	s1.3-0.1,1.8,0.3c1.7,1.2,3.5,2.4,5.2,3.6c0.3,0.3,0.8,0.3,1.1,0c0,0,0.1-0.1,0.1-0.1c0.3-0.4,1-0.7,0.5-1.4
	c-1.8-2.3-3.5-4.6-5.4-6.8c-1.4-1.5-3.2-1.7-5.1-0.9c-7,2.8-10.4,10.7-7.7,17.6c0.3,0.8,0.7,1.5,1.1,2.2c1.3,2.1,3,2.9,5.4,2.2
	s4.9-1.5,7.3-2.1c0.6-0.1,1-0.6,0.9-1.3c0-0.1,0-0.1,0-0.2c-0.1-0.8-0.6-0.9-1.2-0.9c-2.2,0-4.4-0.1-6.6-0.2c-0.6,0-1.1-0.2-1.1-0.9
	s0.5-0.9,1.2-0.9L40.5,54.7z"/>
<path class="st19" d="M72.1,55.1v-0.2c1.1,0,2.3-0.1,3.4,0c0.5,0.1,0.9,0.4,1.1,0.8c0.1,0.7-0.4,0.9-1,0.9h-0.8c-2,0-4,0.1-6,0.1
	c-0.8,0-1,0.4-1.1,1.1s0,1.1,0.7,1.3c2.6,0.7,5.1,1.6,7.7,2.2c2.1,0.6,4.3-0.4,5.2-2.4c3.9-6.4,1.9-14.8-4.5-18.7
	c-0.6-0.4-1.3-0.7-1.9-1c-2.4-1-4.1-0.6-5.7,1.4s-3,4-4.6,6c-0.5,0.4-0.5,1.1-0.1,1.6c0,0,0.1,0.1,0.1,0.1c0.6,0.6,1,0.5,1.6,0
	c1.7-1.2,3.5-2.4,5.2-3.6c0.5-0.4,1.1-0.7,1.6,0s0,1.1-0.6,1.4c-1.8,1.2-3.6,2.4-5.3,3.7c-0.3,0.3-0.5,0.7-0.5,1.1
	c0.2,0.7,0.8,0.5,1.3,0.3c2.5-0.8,5.1-1.6,7.6-2.5c0.4-0.2,0.7-0.4,1-0.8c0.6-0.8,1.7-1.1,2.5-0.6c0.9,0.5,1.3,1.7,0.8,2.6
	c-0.4,0.8-1.3,1.2-2.2,0.9c-0.3-0.1-0.7-0.1-1,0c-2.8,0.9-5.5,1.8-8.2,2.7c-0.3,0.1-0.5,0.6-0.7,0.9c0.3,0.2,0.6,0.5,0.9,0.6
	C69.8,55.1,71,55.1,72.1,55.1z"/>
<path class="st19" d="M55,72.6h0.2c0-1.3,0-2.5,0-3.8c0.1-0.6-0.3-1.2-0.9-1.3c-0.1,0-0.1,0-0.2,0c-0.8-0.1-1.1,0.3-1.3,0.9
	c-0.7,2-1.4,4-2.1,6c-0.2,0.6-0.5,1.2-1.2,0.9s-0.7-0.9-0.5-1.5c0.7-2,1.4-4,2.1-6c0.2-0.5,0.5-1-0.2-1.4S50,66.6,49.7,67
	c-1.6,2.2-3.2,4.3-4.7,6.5c-0.2,0.3-0.3,0.7-0.4,1.1c0.1,1-0.7,1.9-1.7,2.1c-1,0.1-1.9-0.5-2.1-1.4c-0.3-1,0.3-2,1.2-2.3
	c0.3-0.1,0.5-0.2,0.7-0.4c1.8-2.4,3.6-4.9,5.3-7.3c0.1-0.3,0-0.7-0.2-0.9c-0.1-0.2-0.6-0.1-0.9,0c-0.4,0.2-0.7,0.5-1,0.7l-4.7,3.5
	c-0.5,0.4-1,0.5-1.3-0.1c-0.2-0.3,0.1-0.9,0.2-1.3c0.1-0.2,0.4-0.4,0.6-0.5c1.6-1.2,3.2-2.5,4.8-3.7c0.4-0.2,0.6-0.7,0.4-1.2
	c0-0.1-0.1-0.1-0.1-0.2c-0.3-0.5-0.5-1.1-1.3-0.8c-2.5,0.9-5.1,1.7-7.6,2.8c-2.2,0.9-3,2.6-2.8,5c0.6,7.5,7.1,13.1,14.6,12.6
	c0.9-0.1,1.7-0.2,2.6-0.5c2-0.4,3.4-2.1,3.4-4.1C55,75.2,55,73.9,55,72.6z"/>
<path class="st19" d="M64.5,81.2c7.2,0.1,13.2-5.4,13.7-12.6c0.4-2.2-1-4.4-3.2-5c-2.3-0.9-4.7-1.7-7.1-2.5
	c-0.5-0.3-1.2-0.1-1.5,0.4c0,0.1-0.1,0.1-0.1,0.2c-0.4,0.8-0.1,1.1,0.5,1.5c1.7,1.3,3.4,2.6,5.1,3.9c0.5,0.4,1,0.8,0.5,1.4
	s-1.1,0.4-1.6,0c-1.7-1.3-3.4-2.6-5.1-3.9c-0.4-0.3-0.8-0.8-1.3-0.2s-0.2,0.9,0.2,1.3c1.5,2.1,3,4.2,4.5,6.2c0.4,0.4,0.8,0.8,1.3,1
	c0.9,0.3,1.4,1.3,1.3,2.2c-0.2,1-1.2,1.7-2.3,1.5c-0.9-0.2-1.5-0.9-1.6-1.8c0-0.4-0.1-0.8-0.3-1.1c-1.6-2.3-3.2-4.5-4.9-6.7
	c-0.3-0.3-0.7-0.5-1.1-0.5c-0.7,0.2-0.4,0.8-0.3,1.3c0.7,2,1.4,4,2.1,6c0.2,0.6,0.4,1.3-0.4,1.6s-1.1-0.3-1.3-1
	c-0.7-2-1.5-4.1-2.1-6.1c-0.3-0.8-0.7-0.9-1.4-0.8s-1,0.4-1,1.2c0.1,1.8,0.1,3.7,0.1,5.5C57.3,79.4,59.1,81.1,64.5,81.2z"/>
<path class="st19" d="M57.5,39.4L57.5,39.4c0,1.5,0,3,0,4.4c0,0.3,0.4,0.6,0.6,0.9c0.3-0.2,0.6-0.4,0.8-0.7c0.1-0.2,0.2-0.5,0.3-0.8
	c0.6-2,1.1-4,1.8-5.9c0.1-0.3,0.7-0.5,1.1-0.7c0.2,0.4,0.4,0.8,0.5,1.2c0,0.2-0.1,0.5-0.2,0.8c-0.6,2-1.2,3.9-1.8,5.9
	c-0.2,0.4,0,0.9,0.4,1.1c0.1,0,0.1,0,0.2,0.1c0.5,0.2,1,0.6,1.4-0.1c1.6-2.3,3.2-4.5,4.6-6.9c1.1-1.7,0.8-4-0.6-5.4
	c-4.8-5.8-13.3-6.6-19.1-1.8c-0.7,0.5-1.2,1.1-1.8,1.8c-1.7,1.9-1.8,3.7-0.4,5.8s2.9,4.2,4.3,6.3c0.2,0.5,0.8,0.8,1.3,0.6
	c0.1,0,0.2-0.1,0.3-0.1c0.5-0.1,0.9-0.7,0.7-1.2c0-0.1-0.1-0.2-0.1-0.3c-0.6-2-1.2-3.9-1.8-5.9c-0.2-0.6-0.6-1.4,0.4-1.7
	s1.1,0.5,1.3,1.2c0.6,2,1.2,4,1.8,6c0.1,0.4,0.6,0.6,0.9,0.9c0.2-0.4,0.6-0.7,0.6-1.1c0.1-2.5,0-4.9,0-7.4c0.1-0.7-0.1-1.5-0.5-2.1
	c-0.5-0.8-0.4-1.8,0.3-2.4c0.7-0.6,1.6-0.6,2.4-0.2c0.8,0.5,1,1.5,0.7,2.4c-0.3,0.8-0.4,1.5-0.5,2.3C57.5,37.3,57.5,38.4,57.5,39.4z
	"/>
<g>
	<path class="st19" d="M61.6,55c0.4,3.7-0.7,4.5-4,5c-1.7,0.2-3.5,0.4-5.5,0.7c-1.3,0.2-2.6,0.6-4.1,0.8c-0.3,0-0.4-0.2-0.3-0.6
		c0.1-0.4,0.3-0.7,0.4-0.8c0.2-0.1,1.5-0.6,2-1.6c0.5-1,0.8-1.9,1.1-2.6c0.4-1.3,1.2-4.3,1.3-5c0.1-0.5,0.3-1,0.3-1.5
		c0-0.6-0.6-0.7-0.6-0.7c0,0-0.1-0.1-0.1-0.2c0-0.1,0.1-0.1,0.2-0.1c0.6,0,1.1,0.1,1.7,0.1c0.8,0,1.6,0,2.4,0.1c2.1,0.1,3,0.6,4,2.6
		C60.7,51.8,61.4,53.7,61.6,55z M56.3,49c-1.1,0-1.3,0.2-1.4,1.2c-0.1,1.2-0.6,7.1-0.6,7.6c0.1,1,0.9,1.4,2,1.3
		c2.7-0.4,2.8-2.9,2.5-5.3c-0.1-0.9-0.5-2.7-0.7-3.2C57.7,49.5,57.2,49,56.3,49z"/>
</g>
</svg>
