<svg xmlns="http://www.w3.org/2000/svg" xmlns:xlink="http://www.w3.org/1999/xlink" width="61.94mm" height="44.44mm" viewBox="0 0 175.58 125.97">
  <defs>
    <linearGradient id="名称未設定グラデーション_31" data-name="名称未設定グラデーション 31" x1="40.43" y1="44.92" x2="135.04" y2="131.56" gradientUnits="userSpaceOnUse">
      <stop offset="0" stop-color="#987200"/>
      <stop offset="0.14" stop-color="#ccab00"/>
      <stop offset="0.22" stop-color="#ffe98c"/>
      <stop offset="0.26" stop-color="#ccab00"/>
      <stop offset="0.39" stop-color="#4e3700"/>
      <stop offset="0.48" stop-color="#987200"/>
      <stop offset="0.65" stop-color="#9a7402"/>
      <stop offset="0.73" stop-color="#9f7b0a"/>
      <stop offset="0.8" stop-color="#a98617"/>
      <stop offset="0.85" stop-color="#b7962a"/>
      <stop offset="0.9" stop-color="#c9ab43"/>
      <stop offset="0.95" stop-color="#e0c562"/>
      <stop offset="0.99" stop-color="#fae385"/>
      <stop offset="1" stop-color="#ffe98c"/>
    </linearGradient>
    <linearGradient id="名称未設定グラデーション_31-2" x1="61.2" y1="21.85" x2="155.81" y2="108.49" xlink:href="#名称未設定グラデーション_31"/>
    <linearGradient id="名称未設定グラデーション_31-3" x1="12.69" y1="74.82" x2="107.31" y2="161.46" xlink:href="#名称未設定グラデーション_31"/>
    <linearGradient id="名称未設定グラデーション_31-4" x1="44.16" y1="40.46" x2="138.77" y2="127.1" xlink:href="#名称未設定グラデーション_31"/>
    <linearGradient id="名称未設定グラデーション_31-5" x1="61.5" y1="21.52" x2="156.11" y2="108.16" xlink:href="#名称未設定グラデーション_31"/>
  </defs>
  <title>アセット 5</title>
  <g id="レイヤー_2" data-name="レイヤー 2">
    <g id="KONAMI麻雀格闘倶楽部">
      <g>
        <g>
          <path d="M108.89,115.82a18.61,18.61,0,0,1-4.41-3.16,13.47,13.47,0,0,1-2.94-5,23.11,23.11,0,0,1-1.38-11.85,47,47,0,0,1,1.91-7.76s8.51-20.19,12-20.75h0c2.92-.34,6.24-1,8-2.23,1.25-.87,2.92-.67,7.57-.24,6.14.58,12.75-4.75,12.75-11.7s-1.23-9.2-2-11.47c-.89-2.56-3.25-6.41-3.52-7.13s-.31.68-.06,2.21c.3,1.9,3.12,9.56,2.21,15.25s-4.58,8-8.2,8c-3,0-6.31-3.38-9.86-6.81l10.85-11.34s.7-.72.36-1.34c-.16-.3-1.63.53-1.63.53l-7.51,3.68,7.71-14.91s.26-.5-.06-.74-.92.47-.92.47l-8.36,9.3a4.84,4.84,0,0,1,1.79-4.12A16.55,16.55,0,0,0,126,32.3s-1.3-.33-4.62,1-3.66,1.73-4,1.94a17.36,17.36,0,0,1-2.31,1s5.86-11.77,10.77-16.45S137.54,8.69,138.77,7.82a3.84,3.84,0,0,0,1.47-5.18C139-.07,138.51-.34,138,.27a28.46,28.46,0,0,1-5.4,5.35,63.24,63.24,0,0,1-7.42,4.85,44,44,0,0,0,1.57-6.56c.35-2.84.74-4.11-.4-3.68s-1.52.5-2.05.71-1.17.16-1.33.9a51.08,51.08,0,0,1-3.71,8.56,34.36,34.36,0,0,1-5.56,7.19s.06-3.65-.1-4.92-.31-1.52-.67-1.35-1,2.89-1.94,4.73A24.27,24.27,0,0,1,107,21a11.87,11.87,0,0,1-1.53,1l1.14-12.12s.09-.4-.1-.5-.32.2-.32.2l-5,6.82a76.63,76.63,0,0,0-13.08-8.6,109.74,109.74,0,0,0-18.24-7c-.48-.15-.73-.28-1.12-.15s-.15.33-.15.33,2.23,1.8,4.64,4.11a52.77,52.77,0,0,1,5,5.89l0,.18c0,.17-.24.15-.51,0s-1.54-.85-2.32-1.46-8.27-4.83-8.81-5.09c-.27-.12-1-.4-1.21,0C65,5.3,68,7.45,68.4,7.85a35.71,35.71,0,0,1,4.45,4.5c2.61,3.18,3.05,4.91,3.05,4.91a4.54,4.54,0,0,1,.37,1.38,4.85,4.85,0,0,1-.1,1.71,41.11,41.11,0,0,0-2.8-5c-1.63-2.28-5.43-4.68-8.28-4a.88.88,0,0,0-.46.3c.2-.27,2,.72,2.22.88A6.29,6.29,0,0,1,69.17,20,4.92,4.92,0,0,1,68,21.74l-.4-.47a41.19,41.19,0,0,1-3.42-5.22c-.91-1.84-1.75-4.51-2.11-4.68s-.33,0-.49,1.3-.1,4.92-.1,4.92a34.36,34.36,0,0,1-5.56-7.19,51.08,51.08,0,0,1-3.71-8.56c-.16-.74-.81-.7-1.34-.9S49.93.67,48.79.23s-.74.84-.39,3.68A44,44,0,0,0,50,10.47a63.24,63.24,0,0,1-7.42-4.85A29,29,0,0,1,37.14.27c-.48-.61-1-.34-2.21,2.37A3.84,3.84,0,0,0,36.4,7.82c1.23.87,8,7.26,12.92,11.94S60.09,36.21,60.09,36.21a16.83,16.83,0,0,1-2.31-1c-.31-.21-.65-.61-4-1.94s-4.62-1-4.62-1a16.55,16.55,0,0,0,2.73,2.44,4.84,4.84,0,0,1,1.79,4.12l-8.36-9.3s-.59-.7-.92-.47-.06.74-.06.74l7.71,14.91-7.52-3.68s-1.46-.83-1.62-.53c-.34.62.35,1.34.35,1.34L54.35,53.42c-3.47,3.35-6.7,6.64-9.65,6.6-3.61,0-7.29-2.34-8.2-8s1.91-13.35,2.22-15.25c.24-1.53.19-2.89-.07-2.21S36,39.11,35.14,41.67c-.79,2.27-2,4.51-2,11.47s6.61,12.28,12.76,11.7c4.55-.43,4.4,1.75,4.4,1.75s6.09,1.09,9,.8c0,0,11.31,15.9,14.23,20.67,1.39,2.27,1.5,5.13,1.91,7.76A23,23,0,0,1,74,107.67a13.47,13.47,0,0,1-2.94,5,18.61,18.61,0,0,1-4.41,3.16.63.63,0,0,0-.39.64c0,.46.52.48.55.48a8.59,8.59,0,0,1,4.45,1c-.65-.32-1.65,3.74-1.39,4.56.12.4.62-.21,4-.74a11.47,11.47,0,0,1,3.67,0c-.65.26-1,4.91.41,4,2.94-1.6,6.42-4.06,9.77-4.27,3.36.21,6.83,2.67,9.77,4.27,1.38.89,1.06-3.76.41-4a11.47,11.47,0,0,1,3.67,0c3.41.53,3.91,1.14,4,.74.25-.82-.75-4.88-1.4-4.56a8.59,8.59,0,0,1,4.45-1s.52,0,.55-.48A.63.63,0,0,0,108.89,115.82Z" style="fill: #fff"/>
          <path d="M66.77,107.72s-.3-.35-1.31-.34c-1.18,0-2.84.65-5.18,2.76s-2.19,5.47-2.83,6.62-2.73,1.1-3.76,0-.27-2.86-.39-2.91c-.29-.11-1.6.51-1.46,2.71a4,4,0,0,0,1.45,2.35s-.09.11-.72.06-1.51-1.11-2-2.76-2.59-6.62-6-7.68c-6.1-1.9-8.28,1.69-8.69,2.81-.12.34-.4,1.13-.25,1.19A5.81,5.81,0,0,1,39,110c2.93-.65,4.16.27,5.28,1.86,1.42,2,.76,2.78,2,7.45s7.78,7.2,12.27,3.94,3.37-6.77,3.27-7.57a7.67,7.67,0,0,1,.59-4.72,6.07,6.07,0,0,1,4.21-3.15S66.8,107.85,66.77,107.72Z" style="fill: #fff"/>
          <path d="M130.38,108.53c-3.37,1.06-5.52,6-6,7.68s-1.32,2.71-2,2.76-.72-.06-.72-.06a4,4,0,0,0,1.45-2.35c.14-2.2-1.17-2.82-1.46-2.71-.12.05.63,1.81-.39,2.91s-3.13,1.15-3.76,0-.49-4.51-2.83-6.62-4-2.75-5.18-2.76c-1,0-1.31.34-1.31.34s.12.12.12.12a6.08,6.08,0,0,1,4.22,3.15,7.67,7.67,0,0,1,.59,4.72c-.1.8-1.23,4.31,3.27,7.57s11,.72,12.27-3.94.61-5.44,2-7.45c1.12-1.59,2.35-2.51,5.28-1.86a5.73,5.73,0,0,1,3.26,2.5c.16-.06-.12-.85-.24-1.19C138.66,110.22,136.48,106.63,130.38,108.53Z" style="fill: #fff"/>
        </g>
        <path d="M173.81,86c-.11-.22-.22-.43-.35-.64l.11-.22a2.57,2.57,0,0,1,.39-.57,5.69,5.69,0,0,0,1.62-3.87,4.85,4.85,0,0,0-3-4.48l-.28-.1a13.56,13.56,0,0,0-4.29-.49h-4.65a5.59,5.59,0,0,0-3,.84,5.09,5.09,0,0,0-1.27-.84,8.41,8.41,0,0,0-3.89-.72,15.85,15.85,0,0,0-3.81.48l-3.7.93a5.47,5.47,0,0,0-4.79.23,4.42,4.42,0,0,0-.48-.15l-.69-.19A5.28,5.28,0,0,0,140.17,75a5.52,5.52,0,0,0-1.09-.44,6.76,6.76,0,0,0,.62-2.9c0-.09,0-.41,0-1.46,0-.88,0-1.87,0-3,0-1.31,0-2.68.05-4.07s0-2.3,0-2.52c0-2.75-2-5.53-6.62-5.53a7.91,7.91,0,0,0-3.26.66,5.32,5.32,0,0,0-.64-.24,10.22,10.22,0,0,0-3-.42,5.68,5.68,0,0,0-5.55,4.13,6.08,6.08,0,0,0-6.17-4.13,6.33,6.33,0,0,0-5.09,2,5.16,5.16,0,0,0-1.17,3.31l.08,1.42c0,.22,0,.45,0,.68l-.16.12a24.71,24.71,0,0,1-1.65-2.78h0a6.57,6.57,0,0,0-2.41-3.71,7.14,7.14,0,0,0-4.34-1,6.89,6.89,0,0,0-4.73,1.38,5.1,5.1,0,0,0-1.47,2,5.54,5.54,0,0,0-2.61-2.64,7.93,7.93,0,0,0-3.54-.79,6.06,6.06,0,0,0-4.34,1.68,7.32,7.32,0,0,0-.58.67c-.8-1.14-2.37-2.35-5.47-2.35a6.14,6.14,0,0,0-4.53,1.66,4.75,4.75,0,0,0-.63.79,7.12,7.12,0,0,0-1.89-.9c-1.41-1.05-3.33-1.55-6-1.55a14,14,0,0,0-8,2.19,7.12,7.12,0,0,0-1-.73,7.83,7.83,0,0,0-4.35-1.24,8.41,8.41,0,0,0-2.32.3l-.91.26a2.85,2.85,0,0,0-1.17.64A6.76,6.76,0,0,0,42,55.12a7.18,7.18,0,0,0-3.27.72,5.24,5.24,0,0,0-3,4.81v1.08a3.76,3.76,0,0,0,0,.44l0,.61c0,1.3.07,2.61.07,3.9,0,.78,0,1.74,0,2.82s0,2.13,0,2.78c0,.18,0,.37,0,.55l-6.33,4.34c-.16.11-.3.22-.44.33a4.45,4.45,0,0,0-1.06-.43L27.24,77h-.07c-1.56-.11-3.27-.18-5.1-.22a5.7,5.7,0,0,0-1.7-1.31,9.32,9.32,0,0,0-4.05-.7,19.5,19.5,0,0,0-3.94.42l-6.91,1.4.42.48A4.74,4.74,0,0,0,2.2,81.64a8.25,8.25,0,0,0,.26,1.89,16.29,16.29,0,0,1,.15,2.39c0,.36,0,.69,0,1l-1.76,4A10.57,10.57,0,0,0,0,95.19C0,99,2.64,101,5.24,101a7.25,7.25,0,0,0,1.9-.26,5.15,5.15,0,0,0,3.69.47,5.59,5.59,0,0,0,3.78,1.45,5.27,5.27,0,0,0,3.05-1,5.25,5.25,0,0,0,2.08-.25,5.63,5.63,0,0,0,7-.13,6.16,6.16,0,0,0,3.2-1.3,6.36,6.36,0,0,0,3.64,2.59v.14l0,.45v.11a2.65,2.65,0,0,0-.56.87,7.41,7.41,0,0,0-.4,2.64,3.2,3.2,0,0,0,3.24,3.3,3.48,3.48,0,0,0,1.89-.56,3.18,3.18,0,0,0,1.64.17,3.86,3.86,0,0,0,2.67.26,3.65,3.65,0,0,0,3.16-.74,3.4,3.4,0,0,0,3.27.72,3.28,3.28,0,0,0,1,.15,3.67,3.67,0,0,0,2.31-.81,2,2,0,0,0,.27.23,3.4,3.4,0,0,0,2,.58,3.55,3.55,0,0,0,2.14-.68,4.25,4.25,0,0,0,2.49.68,5.17,5.17,0,0,0,2.59-.59,3.45,3.45,0,0,0,.41-.25,5.75,5.75,0,0,0,3.14.89,6.27,6.27,0,0,0,2.46-.46,3.23,3.23,0,0,0,1.6.41,3.66,3.66,0,0,0,2.17-.71,3.34,3.34,0,0,0,2.07.73,3.6,3.6,0,0,0,1.75-.43,5.44,5.44,0,0,0,3.31.27,4.2,4.2,0,0,0,1.08.14,3.26,3.26,0,0,0,2.41-1,3,3,0,0,0,.67-1.12,3.21,3.21,0,0,0,.19.31,4.38,4.38,0,0,0,1.07,1.15,3.54,3.54,0,0,0,2.09.63,3.18,3.18,0,0,0,2.61-1.19,2.82,2.82,0,0,0,.24-.36,3.35,3.35,0,0,0,2.94,1.55,3.26,3.26,0,0,0,1.69-.45,5.31,5.31,0,0,0,3.4.31,3.9,3.9,0,0,0,2.39-.1,3.11,3.11,0,0,0,1.21.24,3.64,3.64,0,0,0,2.32-.81,2.37,2.37,0,0,0,.29.25,3.39,3.39,0,0,0,2,.56,3.55,3.55,0,0,0,2.18-.7,3.67,3.67,0,0,0,2.22.7,3.33,3.33,0,0,0,2.42-1,3.39,3.39,0,0,0,1-2.42v-.31l.34-.13a4.75,4.75,0,0,0,2,2.89,5.64,5.64,0,0,0,3.28,1,7.24,7.24,0,0,0,2.38-.38,3.14,3.14,0,0,0,1.35.31,5.24,5.24,0,0,0,1.15-.18,3.09,3.09,0,0,1,1.61.08,6,6,0,0,0,1.51.28,3.11,3.11,0,0,0,1.59-.45,6.82,6.82,0,0,0,4.55-.11,4.62,4.62,0,0,0,1.09.33,16.73,16.73,0,0,0,2.61.12,10.06,10.06,0,0,0,2.69-.27,4.22,4.22,0,0,0,3.13-4.15,3.47,3.47,0,0,0-.4-1.63,4.46,4.46,0,0,0,0-.63,3.61,3.61,0,0,0-.14-1,5.91,5.91,0,0,0,2.18.42,5.76,5.76,0,0,0,4.24-1.89l0,0a4.8,4.8,0,0,0,3.15,1.22,13.85,13.85,0,0,0,2-.21l.26,0a8.82,8.82,0,0,1,1.41-.07c1.36,0,2.55,0,3.28,0a6.59,6.59,0,0,0,2.52.09,5.82,5.82,0,0,0,3.44,1,5.5,5.5,0,0,0,4.25-1.78A5.69,5.69,0,0,0,169.45,98a7.23,7.23,0,0,0,3.37-2.15l.15-.18a8.25,8.25,0,0,0,1.8-5.17,11.27,11.27,0,0,0-.83-4.17Z" style="fill: url(#名称未設定グラデーション_31)"/>
        <g>
          <path d="M108.89,115.82a18.61,18.61,0,0,1-4.41-3.16,13.47,13.47,0,0,1-2.94-5,23.11,23.11,0,0,1-1.38-11.85,47,47,0,0,1,1.91-7.76s8.51-20.19,12-20.75h0c2.92-.34,6.24-1,8-2.23,1.25-.87,2.92-.67,7.57-.24,6.14.58,12.75-4.75,12.75-11.7s-1.23-9.2-2-11.47c-.89-2.56-3.25-6.41-3.52-7.13s-.31.68-.06,2.21c.3,1.9,3.12,9.56,2.21,15.25s-4.58,8-8.2,8c-3,0-6.31-3.38-9.86-6.81l10.85-11.34s.7-.72.36-1.34c-.16-.3-1.63.53-1.63.53l-7.51,3.68,7.71-14.91s.26-.5-.06-.74-.92.47-.92.47l-8.36,9.3a4.84,4.84,0,0,1,1.79-4.12A16.55,16.55,0,0,0,126,32.3s-1.3-.33-4.62,1-3.66,1.73-4,1.94a17.36,17.36,0,0,1-2.31,1s5.86-11.77,10.77-16.45S137.54,8.69,138.77,7.82a3.84,3.84,0,0,0,1.47-5.18C139-.07,138.51-.34,138,.27a28.46,28.46,0,0,1-5.4,5.35,63.24,63.24,0,0,1-7.42,4.85,44,44,0,0,0,1.57-6.56c.35-2.84.74-4.11-.4-3.68s-1.52.5-2.05.71-1.17.16-1.33.9a51.08,51.08,0,0,1-3.71,8.56,34.36,34.36,0,0,1-5.56,7.19s.06-3.65-.1-4.92-.31-1.52-.67-1.35-1,2.89-1.94,4.73A24.27,24.27,0,0,1,107,21a11.87,11.87,0,0,1-1.53,1l1.14-12.12s.09-.4-.1-.5-.32.2-.32.2l-5,6.82a76.63,76.63,0,0,0-13.08-8.6,109.74,109.74,0,0,0-18.24-7c-.48-.15-.73-.28-1.12-.15s-.15.33-.15.33,2.23,1.8,4.64,4.11a52.77,52.77,0,0,1,5,5.89l0,.18c0,.17-.24.15-.51,0s-1.54-.85-2.32-1.46-8.27-4.83-8.81-5.09c-.27-.12-1-.4-1.21,0C65,5.3,68,7.45,68.4,7.85a35.71,35.71,0,0,1,4.45,4.5c2.61,3.18,3.05,4.91,3.05,4.91a4.54,4.54,0,0,1,.37,1.38,4.82,4.82,0,0,1-.1,1.71,41.11,41.11,0,0,0-2.8-5c-1.63-2.28-5.43-4.68-8.28-4a.88.88,0,0,0-.46.3c.2-.27,2,.72,2.22.88A6.29,6.29,0,0,1,69.17,20,4.92,4.92,0,0,1,68,21.74l-.4-.47a41.19,41.19,0,0,1-3.42-5.22c-.91-1.84-1.75-4.51-2.11-4.68s-.33,0-.49,1.3-.1,4.92-.1,4.92a34.36,34.36,0,0,1-5.56-7.19,51.08,51.08,0,0,1-3.71-8.56c-.16-.74-.81-.7-1.34-.9S49.93.67,48.79.23s-.74.84-.39,3.68A44,44,0,0,0,50,10.47a63.24,63.24,0,0,1-7.42-4.85A29,29,0,0,1,37.14.27c-.48-.61-1-.34-2.21,2.37A3.84,3.84,0,0,0,36.4,7.82c1.23.87,8,7.26,12.92,11.94S60.09,36.21,60.09,36.21a16.83,16.83,0,0,1-2.31-1c-.31-.21-.65-.61-4-1.94s-4.62-1-4.62-1a16.55,16.55,0,0,0,2.73,2.44,4.84,4.84,0,0,1,1.79,4.12l-8.36-9.3s-.59-.7-.92-.47-.06.74-.06.74l7.71,14.91-7.52-3.68s-1.46-.83-1.62-.53c-.34.62.36,1.34.36,1.34L54.35,53.42c-3.47,3.35-6.7,6.64-9.65,6.6-3.61,0-7.29-2.34-8.2-8s1.91-13.35,2.22-15.25c.24-1.53.19-2.89-.07-2.21S36,39.11,35.14,41.67c-.79,2.27-2,4.51-2,11.47s6.61,12.28,12.76,11.7c4.55-.43,4.4,1.75,4.4,1.75s6.09,1.09,9,.8c0,0,11.31,15.9,14.23,20.67,1.39,2.27,1.5,5.13,1.91,7.76A23,23,0,0,1,74,107.67a13.47,13.47,0,0,1-2.94,5,18.61,18.61,0,0,1-4.41,3.16.63.63,0,0,0-.39.64c0,.46.52.48.55.48a8.59,8.59,0,0,1,4.45,1c-.65-.32-1.65,3.74-1.39,4.56.12.4.62-.21,4-.74a11.47,11.47,0,0,1,3.67,0c-.65.26-1,4.91.41,4,2.94-1.6,6.42-4.06,9.77-4.27,3.36.21,6.83,2.67,9.77,4.27,1.38.89,1.06-3.76.41-4a11.47,11.47,0,0,1,3.67,0c3.41.53,3.91,1.14,4,.74.25-.82-.75-4.88-1.4-4.56a8.59,8.59,0,0,1,4.45-1s.52,0,.55-.48A.63.63,0,0,0,108.89,115.82Zm1.16-57.45c-.86,4.18-1.31,4.49-3.46,7.9s-1.87,2.14-1.64.68,1.18-8.82.82-10.37.44-4.06,3-3.47S110.05,58.37,110.05,58.37Zm6.6-19.62a3.35,3.35,0,0,1,.81-.74l2.46-1.5c.26-.16.34-.08.17.18L114.79,45c-.17.27-.09.37.19.23l5.08-2.55a3.36,3.36,0,0,0,.87-.68l6.71-7.83c.2-.24.25-.2.11.08L121.33,47c-.14.28,0,.43.28.33l2.39-.76c.29-.1.37,0,.18.27l-4,5.05a.51.51,0,0,1-.76.06s-1.34-1.23-3.16-2.67-3.58-2.68-8.58-2.72-8.54,5.22-8.54,5.33c1.06-.53,3.28-1.62,5.23-2.35a12.39,12.39,0,0,1,9.92.5c3.42,1.81,7,5.55,8,6.42,2.58,2.34,7.57,6.19,11.24,4.74,3.2-1.27,6.56-4.52,6.79-8.07a24.93,24.93,0,0,0-.5-8.22c-.77-2.89-1-3.89-1.94-6.74a58.89,58.89,0,0,1,3.14,7.8,24.94,24.94,0,0,1,.37,8.74,9.61,9.61,0,0,1-6.44,7.91c-5.47,2.2-10.49-1.18-13.89-4.6-2.3-2.31-4.71-4.89-8-5.8-4.91-1.38-11.71-.2-13.21.73a7.06,7.06,0,0,1-.64.37l-.43.26a2.77,2.77,0,0,1-.58,1c-1.09,1.05-3.94,1-5.2.47s-2-.89-3.09,0-2.69,2.14-4.72.88-2.16-4.07-3.46-5.5a2.67,2.67,0,0,0-3.5-.42c-.65.38-2.11.08-2-.93s1.82-1.79,4.23-1.17,3.5,3.11,4.39,3.53c.55.25,4.07-.71,4.38-.77l-2.43-8.05L86.51,41l-.34-6.09a1.33,1.33,0,0,0-.43-.92l-5.08-4.13a.47.47,0,0,1,0-.73L87.32,23a5.38,5.38,0,0,0,.72-.86l1.53-2.37c.17-.26.27-.22.22.09l-.41,2.7a2.44,2.44,0,0,1-.44,1l-3.4,4.35a.68.68,0,0,0,0,.85l2.74,2.91a.9.9,0,0,1,.15.92L88,33.66a3.08,3.08,0,0,0-.24,1.08V41a1.77,1.77,0,0,0,.37,1l3.26,3.78a1.06,1.06,0,0,1,.17,1l-1.28,3.47c2-1,3.93-2.28,5.09-2.66,1.76-.59,3.3.13,3.72,2.45a14.78,14.78,0,0,1,4.24-4.23c2.76-1.64,6.6-1.31,7.93-1.58a5.1,5.1,0,0,0,2.21-1.07Zm-23,59.42c-.61-.31-.09-1.19,0-1.62a9.4,9.4,0,0,0,.43-2.79,10.45,10.45,0,0,1,.21-1.68c.51.48.81,2.42.71,4C95,97.5,94.56,98.63,93.67,98.17Zm-.12,13a1.06,1.06,0,0,1-1.39.61c-.56-.13-.73-.63-.78-1.14s-.11-1.09-.16-1.64a1.53,1.53,0,0,1,.18-1.22,2.38,2.38,0,0,1,2,0,.48.48,0,0,1,.07.2A5,5,0,0,1,93.55,111.12Zm1.66-10.66a9.65,9.65,0,0,0,.59-2.76A10.8,10.8,0,0,1,96.11,96c.49.5.67,2.47.47,4-.18,1.4-.67,2.5-1.53,2C94.47,101.73,95,100.88,95.21,100.46ZM94.92,110c.68-1,2-6.45,2.22-7.54s.64-2.3,1.24.69.83,3.33.31,6.51c0,0-.67,3.86-2.61,3.59S94.25,111,94.92,110Zm-4.55.21c-.12.32-1,.58-1.74.26a5.23,5.23,0,0,1-.38-.4,2.17,2.17,0,0,1-.13-.71c0-.58,0-1.16,0-1.74a.76.76,0,0,1,.06-.34c.13-.26.44-.21.69-.21s1.13-.16,1.37.24a1.52,1.52,0,0,1,.12.52A5.62,5.62,0,0,1,90.37,110.19Zm-2.94-.85a2,2,0,0,1-.14.71,3.85,3.85,0,0,1-.37.4c-.75.32-1.62.06-1.74-.26a5.62,5.62,0,0,1,0-2.38,1.32,1.32,0,0,1,.12-.52c.24-.4,1-.24,1.37-.24s.56,0,.69.21a.93.93,0,0,1,.06.34C87.42,108.18,87.45,108.76,87.43,109.34Zm-6.8.64c.67,1,.78,3-1.16,3.25s-2.61-3.59-2.61-3.59c-.52-3.18-.28-3.52.31-6.51s1-1.79,1.24-.69S80,109,80.63,110ZM79.19,96a10.8,10.8,0,0,1,.31,1.66,9.65,9.65,0,0,0,.59,2.76c.17.42.74,1.27.16,1.61-.86.51-1.35-.59-1.53-2C78.52,98.51,78.71,96.54,79.19,96Zm1.3,0c-.1-1.59.2-3.53.72-4a10.6,10.6,0,0,1,.2,1.68,9.73,9.73,0,0,0,.43,2.79c.14.43.66,1.31,0,1.62C81,98.63,80.59,97.5,80.49,96.09ZM82,108a.48.48,0,0,1,.07-.2,2.37,2.37,0,0,1,2.05,0,1.53,1.53,0,0,1,.18,1.22c-.06.55-.11,1.09-.16,1.64s-.22,1-.78,1.14a1.07,1.07,0,0,1-1.4-.61A5.06,5.06,0,0,1,82,108Zm-9.8-63.75c-1.44-1.11-1.4-4.54-1.4-4.54L76.7,44.1A3.79,3.79,0,0,1,72.23,44.22Zm26-.12,5.86-4.42s0,3.43-1.4,4.54C100.51,45.88,98.22,44.1,98.22,44.1Zm18.19-15.22-1.55,4a3.56,3.56,0,0,1-.58.95l-7.38,8c-.2.22-.31.17-.22-.14l1.58-5.52a2.09,2.09,0,0,1,.58-.9l3.24-2.64a6.46,6.46,0,0,0,.78-.79l2.49-3.14a1,1,0,0,1,.81-.37C116.41,28.33,116.52,28.59,116.41,28.88Zm-3.57-2.51,1-4a3.54,3.54,0,0,1,.46-1s5.73-8.07,7.1-11.78S124,2.47,124,2.47c.11-.29.34-.32.52-.07l.33.48a1.25,1.25,0,0,1,.14,1s-2.26,6.49-3,8.69a23.82,23.82,0,0,1-1.67,3.73c-.15.27-.07.35.19.18,0,0,8-5.21,10.17-7.22s7.39-6.75,7.39-6.75a.38.38,0,0,1,.64.15l.93,2.17a.87.87,0,0,1-.19.9L124,20.31c-.22.22-.57.58-.78.81l-5.31,6.08c-.2.23-.27.19-.15-.1l1.81-4.37c.12-.29,0-.34-.17-.12l-3.43,3.7c-.21.22-.49.23-.63,0a.61.61,0,0,0-.75-.19l-1.32.57C112.94,26.82,112.77,26.67,112.84,26.37ZM109,21.18c.19-.25.24-.22.11.06l-4.6,9.81c-.13.29,0,.46.3.4l8.42-1.84c.3-.06.34,0,.1.22L94.15,44.14a.82.82,0,0,1-.9,0l-3.39-2.43a.65.65,0,0,1-.18-.82l4.07-7.3c.15-.27.25-.24.21.07l-.91,7.5c0,.31.09.36.28.12ZM100.39,28l4.39-12.9c.1-.3.14-.29.08,0L103,25.79a1.77,1.77,0,0,1-.54.91l-1.79,1.44C100.41,28.33,100.29,28.25,100.39,28Zm-27-25.1c-.25-.17-.22-.24.07-.15a84.85,84.85,0,0,1,14.4,5.88c3.48,1.8,7.84,3.86,9.61,7.67a10.59,10.59,0,0,1,1,5.32,1.8,1.8,0,0,1-.5.94l-7.42,6.55c-.23.2-.33.13-.23-.17L94,19.19a1.23,1.23,0,0,0-.12-1C90.17,12.93,85.73,9.63,80,6.91A52.21,52.21,0,0,1,73.4,2.85ZM61.29,29.69l8.59,3.22c.29.11.43,0,.31-.33L65.8,21.92c-.12-.28,0-.33.15-.09L76.09,33.88c.2.24.12.45-.19.48l-3.32.3c-.3,0-.35.21-.11.39l7.84,6.14a.83.83,0,0,0,.91,0L83,40c.25-.17.33-.09.16.17l-2.26,3.6a.52.52,0,0,1-.75.14l-19-14.11C61,29.64,61,29.58,61.29,29.69Zm7.82,36.58c-2.15-3.41-2.6-3.72-3.46-7.9,0,0-1.22-4.68,1.31-5.26s3.33,1.91,3,3.47.59,8.9.82,10.37S71.26,69.68,69.11,66.27ZM67.47,50.49c-3.19,0-6.18,1.14-9.69,3.75s-6.33,3.08-5.48,2.61,5.89-5.3,9.12-7.56c3-2.11,6.52-2.08,10.49-.75a15.71,15.71,0,0,1,6.69,5.1S70.66,50.49,67.47,50.49Zm38.07,65.08-3.85,0a.19.19,0,0,0-.19.26l1.44,4.26c0,.14,0,.21-.16.13l-6.89-3.59c-.14-.07-.24,0-.23.15l.37,4.34c0,.15-.07.2-.19.1s-6.68-5.49-6.68-5.56a5,5,0,0,0-1.35-.24c-1.56,0-3.9,1.4-5.13,1.79s-5.18,1.72-7.58-1a4.19,4.19,0,0,1-.33-5.36s-.3,4,3.73,4c5.68,0,6-2.43,9.26-2.48h.11c2.26,0,3.11,1.23,5.35,2,1.69.54,3.48,1,5.16.2.86-.4,2.1-1.29,2.28-2.29l.09-.44.11-.64c0-.15.15-.19.26-.08l4.5,4.29C105.73,115.49,105.7,115.57,105.54,115.57Z" style="fill: url(#名称未設定グラデーション_31-2)"/>
          <path d="M66.77,107.72s-.3-.35-1.31-.34c-1.18,0-2.84.65-5.18,2.76s-2.19,5.47-2.83,6.62-2.73,1.1-3.76,0-.27-2.86-.39-2.91c-.29-.11-1.6.51-1.46,2.71a4,4,0,0,0,1.45,2.35s-.09.11-.72.06-1.51-1.11-2-2.76-2.59-6.62-6-7.68c-6.1-1.9-8.28,1.69-8.69,2.81-.12.34-.4,1.13-.25,1.19A5.81,5.81,0,0,1,39,110c2.93-.65,4.16.27,5.28,1.86,1.42,2,.76,2.78,2,7.45s7.78,7.2,12.27,3.94,3.37-6.77,3.27-7.57a7.67,7.67,0,0,1,.59-4.72,6.07,6.07,0,0,1,4.21-3.15S66.8,107.85,66.77,107.72Z" style="fill: url(#名称未設定グラデーション_31-3)"/>
          <path d="M130.38,108.53c-3.37,1.06-5.52,6-6,7.68s-1.32,2.71-2,2.76-.72-.06-.72-.06a4,4,0,0,0,1.45-2.35c.14-2.2-1.17-2.82-1.46-2.71-.12.05.63,1.81-.39,2.91s-3.13,1.15-3.76,0-.49-4.51-2.83-6.62-4-2.75-5.18-2.76c-1,0-1.31.34-1.31.34s.12.12.12.12a6.08,6.08,0,0,1,4.22,3.15,7.67,7.67,0,0,1,.59,4.72c-.1.8-1.23,4.31,3.27,7.57s11,.72,12.27-3.94.61-5.44,2-7.45c1.12-1.59,2.35-2.51,5.28-1.86a5.73,5.73,0,0,1,3.26,2.5c.16-.06-.12-.85-.24-1.19C138.66,110.22,136.48,106.63,130.38,108.53Z" style="fill: url(#名称未設定グラデーション_31-4)"/>
          <path d="M97,50a.66.66,0,0,0-.87-.19l-3,1.59a.8.8,0,0,0-.43.86l.69,2.52c.08.31.39.4.69.19l3.63-2.44a.69.69,0,0,0,.25-.87Z" style="fill: url(#名称未設定グラデーション_31-5)"/>
        </g>
        <g>
          <g>
            <path d="M172.61,86.61a8.52,8.52,0,0,0-.7-1.14c.11-.21.23-.46.37-.74l.06-.12a3.38,3.38,0,0,1,.62-.92,4.45,4.45,0,0,0,1.28-3,3.49,3.49,0,0,0-2.17-3.22l-.22-.09A12.51,12.51,0,0,0,168,77h-4.65a4.09,4.09,0,0,0-3.2,1.42,3.59,3.59,0,0,0-1.69-1.57,7.34,7.34,0,0,0-3.28-.57,14.77,14.77,0,0,0-3.49.44l-4.18,1a3.87,3.87,0,0,0-1.95-.52,4.49,4.49,0,0,0-2.61.87,3.31,3.31,0,0,0-.94-.41,8.73,8.73,0,0,0-1.06-.25,3.7,3.7,0,0,0-1.41-1.24,6.18,6.18,0,0,0-2.85-.62l.25-.23a5.09,5.09,0,0,0,1.42-3.68c0-.09,0-.43.05-1.52,0-.86,0-1.84,0-2.91,0-1.33,0-2.71.05-4.11s.05-2.26.05-2.48c0-2-1.39-4.18-5.28-4.18a6.7,6.7,0,0,0-2.7.53,5.24,5.24,0,0,0-.53.28,6,6,0,0,0-1.06-.45,8.91,8.91,0,0,0-2.59-.36,4.35,4.35,0,0,0-4.3,3.27,17.72,17.72,0,0,1-1.34,2.78A17.78,17.78,0,0,1,119.64,60c-.21-.82-1.18-3.49-5-3.49A5.06,5.06,0,0,0,110.61,58a3.69,3.69,0,0,0-.85,2.37l.08,1.41c0,.52,0,1.06,0,1.6a1.7,1.7,0,0,0-1.2,1l-.29.72c-.25-.36-.52-.74-.78-1.14a23.17,23.17,0,0,1-2.18-3.66,5.36,5.36,0,0,0-1.92-3,5.92,5.92,0,0,0-3.56-.79,5.78,5.78,0,0,0-3.88,1.07,4.72,4.72,0,0,0-1.42,2.55,18.31,18.31,0,0,1-1.47,3.43,9.44,9.44,0,0,1-.5.83,2.12,2.12,0,0,0-.36-.21v-.51a7.22,7.22,0,0,1,.07-1,1.68,1.68,0,0,0,.39-1.08V60.36a3.62,3.62,0,0,0-2.24-3.24,6.55,6.55,0,0,0-2.94-.65,4.7,4.7,0,0,0-3.38,1.28,4.43,4.43,0,0,0-1.29,2.7l-.83-1.06c-.27-1.08-1.26-2.92-4.89-2.92a4.81,4.81,0,0,0-3.57,1.26,3.9,3.9,0,0,0-1.06,2.08,6,6,0,0,0-3-1.91c-1.17-1-2.9-1.43-5.41-1.43A12.06,12.06,0,0,0,56,59.16a4.6,4.6,0,0,0-1.49-1.45,6.5,6.5,0,0,0-3.62-1,7.52,7.52,0,0,0-2,.24l-.9.26a1.68,1.68,0,0,0-1.19,1.87l.06.37,0,0c-.46-1.56-1.9-3-4.86-3a6,6,0,0,0-2.67.57A4,4,0,0,0,37,60.65v1.08a1.65,1.65,0,0,0,0,.32v.69c.05,1.3.08,2.63.08,3.94,0,.78,0,1.75,0,2.86s-.05,2.1-.05,2.74A4.29,4.29,0,0,0,39,75.89a3.83,3.83,0,0,0,.44.25,4.22,4.22,0,0,0-2.29,1.19,2.39,2.39,0,0,0-.22.23,3.57,3.57,0,0,0-1.56-.33,3.45,3.45,0,0,0-.81.1v-2l-4.37,3a7.62,7.62,0,0,0-1.13,1,3.22,3.22,0,0,0-1.47-.87l-.26-.07-.26,0c-1.7-.12-3.6-.19-5.68-.23a3.92,3.92,0,0,0-1.52-1.38l-.08,0a7.93,7.93,0,0,0-3.47-.58,19,19,0,0,0-3.67.39L8,77.39l.61.72a13,13,0,0,0-2.12.15,3.41,3.41,0,0,0-2.93,3.38,7.67,7.67,0,0,0,.24,1.66A18.21,18.21,0,0,1,4,85.92c0,.48,0,.91,0,1.3L2.07,91.48a9.16,9.16,0,0,0-.72,3.71c0,3,1.95,4.41,3.89,4.41a5.8,5.8,0,0,0,2.09-.39,3.79,3.79,0,0,0,2.3.75,3.57,3.57,0,0,0,1.57-.36,2.27,2.27,0,0,0,.39.43,4.27,4.27,0,0,0,3,1.23,3.9,3.9,0,0,0,2.67-1,4,4,0,0,0,.84.09A3.67,3.67,0,0,0,20,99.82a1.85,1.85,0,0,0,.14.14,4.29,4.29,0,0,0,3.07,1.3,3.93,3.93,0,0,0,2.94-1.3,5,5,0,0,0,4-2.14l.28.49c1.45,2.54,3.2,3.07,4.42,3.07a5.93,5.93,0,0,0,.61,0,1.69,1.69,0,0,0-.57,1.29l0,.46c0,.26,0,.54,0,.83a1.24,1.24,0,0,0-.66.69,6.18,6.18,0,0,0-.31,2.16,1.84,1.84,0,0,0,1.89,2,2.37,2.37,0,0,0,1.77-.87,1.7,1.7,0,0,0,2,.31,1.66,1.66,0,0,0,1.29.56,3.13,3.13,0,0,0,1.14-.2,2.37,2.37,0,0,0,.9.17,2.61,2.61,0,0,0,1.88-1,5.88,5.88,0,0,1,.88,0,2.17,2.17,0,0,0,.25.37,1.89,1.89,0,0,0,1.46.69,2.26,2.26,0,0,0,1.08-.28,1.73,1.73,0,0,0,.95.28,2.44,2.44,0,0,0,2.14-1.31,4.29,4.29,0,0,0,.41-1h.08v.34a1.9,1.9,0,0,0,.73,1.61,2.13,2.13,0,0,0,1.25.33,1.91,1.91,0,0,0,2-1.73h.08c.08.57.49,1.73,2.51,1.73a3.88,3.88,0,0,0,2-.43,3.06,3.06,0,0,0,1-.85,5.14,5.14,0,0,0,.42.38,4.35,4.35,0,0,0,2.78.94,4.64,4.64,0,0,0,2.62-.71,1.8,1.8,0,0,0,1.43.67,2.48,2.48,0,0,0,2.17-1.36l.37.48a2.25,2.25,0,0,0,1.71.89,2,2,0,0,0,1.58-.65l0,0a4,4,0,0,0,3.51.45,2.27,2.27,0,0,0,1,.22,1.92,1.92,0,0,0,1.43-.55,2.09,2.09,0,0,0,.52-1.47,1.75,1.75,0,0,0,.83-.94,2.72,2.72,0,0,0,.23-1.11c0-.58.67-.54.9-.3a2.37,2.37,0,0,0,.48.37v.81c0,.27,0,.46,0,.54v0a1.25,1.25,0,0,0,0,1.43,3.21,3.21,0,0,0,.73.81,2.28,2.28,0,0,0,1.32.38,1.83,1.83,0,0,0,1.55-.68,2.13,2.13,0,0,0,.42-1.28l.2,0,.54,0a2,2,0,0,0,1-.27v.15A2.07,2.07,0,0,0,93,108.12l.09-.1h0a4,4,0,0,0,3.58.5,2.27,2.27,0,0,0,1,.22,2,2,0,0,0,1.33-.46,1.74,1.74,0,0,0,1.19.46,2.47,2.47,0,0,0,2.15-1.31,5,5,0,0,0,.4-1h.09c0,.21,0,.32,0,.34a1.91,1.91,0,0,0,.74,1.61,2.12,2.12,0,0,0,1.24.33,1.92,1.92,0,0,0,2.07-2c0-.2,0-.51,0-1,0-.25,0-.52,0-.8l.26,0v.75c0,.47,0,.82,0,1a2,2,0,0,0,2.14,2,2,2,0,0,0,2-2.1l0-.67c0-.28,0-.56,0-.83l.34,0a2,2,0,0,0,1.73-1.07,3.23,3.23,0,0,0,.39-1.59c0-.66,1.54-.4,1.54-.4a3.91,3.91,0,0,0-1.13,2.83,3.52,3.52,0,0,0,1.52,3.07,4.37,4.37,0,0,0,2.52.73,5.39,5.39,0,0,0,2.52-.57,1.72,1.72,0,0,0,1.21.49,4.16,4.16,0,0,0,.86-.14,4.55,4.55,0,0,1,2.21.08,5.18,5.18,0,0,0,1.2.24,1.71,1.71,0,0,0,1.36-.67l0,0a4.87,4.87,0,0,0,2.4.54,4,4,0,0,0,2.37-.67,2.5,2.5,0,0,0,1.28.56,14.69,14.69,0,0,0,2.38.11,8.8,8.8,0,0,0,2.3-.22,2.87,2.87,0,0,0,2.18-2.86,2.2,2.2,0,0,0-.52-1.4,2.44,2.44,0,0,0,.17-.86,2.39,2.39,0,0,0-2.06-2.33l-.18,0a4.48,4.48,0,0,0,1.63-1.47l.06.07.18.19a5.52,5.52,0,0,0,3.75,1.68,4.38,4.38,0,0,0,3.22-1.42l.15-.18a6.56,6.56,0,0,0,.87-1.46,3.32,3.32,0,0,0,3.19,2.34,11.75,11.75,0,0,0,1.71-.18l.21,0a8.16,8.16,0,0,1,1.71-.11c1.57,0,2.73,0,3.46,0a8.52,8.52,0,0,0,1.49.16,3.22,3.22,0,0,0,1.16-.22l.23.21a4.48,4.48,0,0,0,2.9,1,4.13,4.13,0,0,0,3.17-1.24l.06-.07a4.38,4.38,0,0,0,1-2.9v-.56a5.68,5.68,0,0,0,3.65-1.9l.13-.15a6.94,6.94,0,0,0,1.51-4.34,9.84,9.84,0,0,0-.71-3.62Zm-42.78,18.51Zm24.93-10.8,0,0,.64,0Z" style="fill: #b60014"/>
            <path d="M126.2,109.37a5.49,5.49,0,0,1-1.33-.25,4,4,0,0,0-2-.09,4.35,4.35,0,0,1-1,.16,2.21,2.21,0,0,1-1.28-.4,6,6,0,0,1-2.45.48,4.9,4.9,0,0,1-2.82-.82,4.06,4.06,0,0,1-1.75-3.51c0-.1,0-.2,0-.3a2.47,2.47,0,0,1-1.83,1V106l0,.67a2.6,2.6,0,0,1-.73,1.86,2.51,2.51,0,0,1-1.84.76,2.62,2.62,0,0,1-2.22-1.06,2.56,2.56,0,0,1-2.18,1.06,2.64,2.64,0,0,1-1.54-.42,2.54,2.54,0,0,1-.69-.82,2.89,2.89,0,0,1-2.38,1.24,2.29,2.29,0,0,1-1.2-.34,3,3,0,0,1-2.38.16,4.55,4.55,0,0,1-3.48-.4,2.53,2.53,0,0,1-1.63.57,2.45,2.45,0,0,1-2.55-2,2.38,2.38,0,0,1-.53,0h-.28a2.32,2.32,0,0,1-2.43,1.91,2.78,2.78,0,0,1-1.63-.48,3.75,3.75,0,0,1-.86-.94,1.8,1.8,0,0,1-.09-1.88V105a3.17,3.17,0,0,1-.34-.3,2.88,2.88,0,0,1-.25,1.27,2.41,2.41,0,0,1-.81,1,2.33,2.33,0,0,1-2.46,2.24,2.81,2.81,0,0,1-1.06-.19,4.52,4.52,0,0,1-3.4-.35,2.56,2.56,0,0,1-1.68.55,2.73,2.73,0,0,1-2.06-1,2.9,2.9,0,0,1-2.18,1,2.33,2.33,0,0,1-1.52-.54,5.32,5.32,0,0,1-2.54.59,4.92,4.92,0,0,1-3.11-1.06s0,0,0-.05a4,4,0,0,1-.78.57,4.42,4.42,0,0,1-2.2.49,3,3,0,0,1-2.52-1,2.54,2.54,0,0,1-2.11,1,2.61,2.61,0,0,1-1.56-.43,2.5,2.5,0,0,1-.68-.81,2.88,2.88,0,0,1-2.37,1.24,2.37,2.37,0,0,1-1-.22,2.52,2.52,0,0,1-2.93-.67s-.09-.11-.14-.17h-.33a2.9,2.9,0,0,1-3,.88,2.88,2.88,0,0,1-2.54-.29,2.26,2.26,0,0,1-1.87-.24,2.74,2.74,0,0,1-1.8.7,2.37,2.37,0,0,1-2.42-2.49,6.5,6.5,0,0,1,.35-2.35,1.72,1.72,0,0,1,.61-.8c0-.18,0-.35,0-.51l0-.46a2.17,2.17,0,0,1,.13-.76c-1.3-.1-3-.78-4.42-3.16a5.41,5.41,0,0,1-3.71,1.74,4.75,4.75,0,0,1-6.48,0,4.38,4.38,0,0,1-2.46.34,4.46,4.46,0,0,1-2.82,1,4.8,4.8,0,0,1-3.39-1.38l-.18-.17a4.35,4.35,0,0,1-3.79-.44,6.23,6.23,0,0,1-2,.33c-2.13,0-4.42-1.55-4.42-4.94a9.77,9.77,0,0,1,.76-3.93L3.4,87.1c0-.36,0-.75,0-1.18a18.55,18.55,0,0,0-.15-2.54A7.63,7.63,0,0,1,3,81.64a4,4,0,0,1,3.37-3.9,6.83,6.83,0,0,1,1.09-.12L7,77.05l5.54-1.13a19.37,19.37,0,0,1,3.78-.4,8.53,8.53,0,0,1,3.7.63,4.55,4.55,0,0,1,1.65,1.38c2,0,3.8.11,5.44.23l.61.1a3.54,3.54,0,0,1,1.33.66,6.86,6.86,0,0,1,.84-.67l5.2-3.58v2.44a4.06,4.06,0,0,1,1.71.22,4.66,4.66,0,0,1,1.42-1,4.77,4.77,0,0,1-1.67-3.68c0-.65,0-1.55.05-2.76s0-2.06,0-2.84c0-1.3,0-2.63-.07-3.93l0-.68a1.35,1.35,0,0,1,0-.34V60.65a4.45,4.45,0,0,1,2.57-4.08A6.45,6.45,0,0,1,42,55.94a5.51,5.51,0,0,1,4.55,1.82,2.18,2.18,0,0,1,1.34-1.08l.9-.26a8.1,8.1,0,0,1,2.1-.26,7.06,7.06,0,0,1,3.91,1.1,5.75,5.75,0,0,1,1.3,1.13,12.82,12.82,0,0,1,8-2.45c2.59,0,4.39.47,5.65,1.47a6.43,6.43,0,0,1,2.54,1.39,4.14,4.14,0,0,1,.94-1.44,5.37,5.37,0,0,1,4-1.42c4,0,5.09,2.17,5.38,3.21a.86.86,0,0,1,.07.1,4.91,4.91,0,0,1,1.18-1.87,5.24,5.24,0,0,1,3.76-1.44,7.17,7.17,0,0,1,3.18.7,4.14,4.14,0,0,1,2.53,3.72v1.19a2.18,2.18,0,0,1-.42,1.28.49.49,0,0,1,0,.12,17.12,17.12,0,0,0,1.26-3,5.33,5.33,0,0,1,1.59-2.8A6.24,6.24,0,0,1,100,55.94a6.46,6.46,0,0,1,3.87.88,5.92,5.92,0,0,1,2.11,3.31,23.74,23.74,0,0,0,2.12,3.54l.22.33a2.25,2.25,0,0,1,1.08-1c0-.4,0-.8,0-1.19l-.08-1.41a4.25,4.25,0,0,1,1-2.74,5.53,5.53,0,0,1,4.46-1.71c4.17,0,5.25,3,5.48,3.89a11.22,11.22,0,0,0,.63,1.51,13.25,13.25,0,0,0,.81-1.76,4.84,4.84,0,0,1,4.8-3.64,9.6,9.6,0,0,1,2.74.38,6,6,0,0,1,.9.36,3.18,3.18,0,0,1,.32-.16,7.08,7.08,0,0,1,2.92-.58c4.29,0,5.81,2.54,5.81,4.71,0,.22,0,1.05-.05,2.5s-.05,2.76-.05,4.09c0,1.08,0,2.06,0,2.93,0,1.08-.05,1.41-.05,1.5a5.73,5.73,0,0,1-1.08,3.47,5.5,5.5,0,0,1,2,.59A4.5,4.5,0,0,1,141.25,77a7.38,7.38,0,0,1,.9.23,3.79,3.79,0,0,1,.77.29,4.66,4.66,0,0,1,4.65-.29l4-1a14.71,14.71,0,0,1,3.61-.46,7.64,7.64,0,0,1,3.52.63,4.15,4.15,0,0,1,1.54,1.2,4.68,4.68,0,0,1,3.11-1.11H168a12.94,12.94,0,0,1,4,.44l.25.09a4,4,0,0,1,2.5,3.72A5,5,0,0,1,173.36,84a3.24,3.24,0,0,0-.54.78l-.29.6a9.15,9.15,0,0,1,.55,1l.12.24a10.49,10.49,0,0,1,.75,3.84,7.43,7.43,0,0,1-1.62,4.67l-.14.16a6.35,6.35,0,0,1-3.53,2v.1a5,5,0,0,1-1.18,3.25,4.65,4.65,0,0,1-3.63,1.49,4.94,4.94,0,0,1-3.23-1.09l0,0a5.54,5.54,0,0,1-2.63,0c-.65,0-1.8,0-3.36,0a7.59,7.59,0,0,0-1.59.1l-.23,0a12.21,12.21,0,0,1-1.81.19,3.89,3.89,0,0,1-3.21-1.7,5.66,5.66,0,0,1-.43.62l-.17.2a4.93,4.93,0,0,1-3.62,1.6,5.88,5.88,0,0,1-3.94-1.67,4.26,4.26,0,0,1-.52.52,2.8,2.8,0,0,1,1.61,2.52,2.85,2.85,0,0,1-.11.76,2.74,2.74,0,0,1,.46,1.5,3.4,3.4,0,0,1-2.56,3.37,9.39,9.39,0,0,1-2.45.24,14.43,14.43,0,0,1-2.47-.12,3.23,3.23,0,0,1-1.21-.44,5.77,5.77,0,0,1-4.69.11A2.25,2.25,0,0,1,126.2,109.37Zm-2.56-1.48a6.11,6.11,0,0,1,1.48.2,5.7,5.7,0,0,0,1.08.22,1.18,1.18,0,0,0,1-.48l.28-.34.39.21a4.28,4.28,0,0,0,2.19.51,3.51,3.51,0,0,0,2.07-.57l.34-.24.31.27a2.08,2.08,0,0,0,1,.44,15,15,0,0,0,2.29.1,8.66,8.66,0,0,0,2.16-.2,2.33,2.33,0,0,0,1.79-2.35,1.66,1.66,0,0,0-.4-1.06l-.2-.24.11-.29a1.83,1.83,0,0,0,.14-.67c0-.51-.22-1.43-1.67-1.82l-1.62-.33,1.34-.69a3.86,3.86,0,0,0,1.43-1.3l.38-.57.68.76a5,5,0,0,0,3.37,1.52,3.85,3.85,0,0,0,2.83-1.25l.14-.16a6.86,6.86,0,0,0,.79-1.34l.56-1.25.43,1.3a2.8,2.8,0,0,0,2.68,2,11.45,11.45,0,0,0,1.64-.18l.18,0a9.4,9.4,0,0,1,1.81-.12c1.58,0,2.75,0,3.48,0a4,4,0,0,0,2.43,0l.32-.12.25.24.2.18a3.92,3.92,0,0,0,2.56.85,3.59,3.59,0,0,0,2.78-1.07,3.91,3.91,0,0,0,1-2.61v-1l.47,0a5.24,5.24,0,0,0,3.32-1.74l.11-.13a6.38,6.38,0,0,0,1.39-4,9.13,9.13,0,0,0-.67-3.42l-.09-.2a7.66,7.66,0,0,0-.64-1.06l-.19-.26.56-1.14a4.05,4.05,0,0,1,.71-1,3.94,3.94,0,0,0,1.14-2.62A3,3,0,0,0,171.86,78l-.2-.07a12.18,12.18,0,0,0-3.67-.38h-4.65a3.55,3.55,0,0,0-2.79,1.23l-.51.6-.36-.69a3,3,0,0,0-1.45-1.33,6.69,6.69,0,0,0-3.06-.53,14.18,14.18,0,0,0-3.36.42l-4.39,1.1-.19-.11a3.64,3.64,0,0,0-4,.32l-.28.2-.29-.18a3.25,3.25,0,0,0-.81-.35c-.32-.09-.65-.17-1-.24l-.22,0-.13-.18a3.38,3.38,0,0,0-1.21-1.07,5.85,5.85,0,0,0-2.63-.56l-1.33,0,1-.88.21-.2a4.55,4.55,0,0,0,1.28-3.31c0-.09,0-.43.05-1.54,0-.85,0-1.83,0-2.89,0-1.33,0-2.72.05-4.12s.05-2.25.05-2.47c0-.86-.35-3.65-4.75-3.65a6,6,0,0,0-2.49.49,4.23,4.23,0,0,0-.47.25l-.26.16-.27-.15a5.78,5.78,0,0,0-1-.42,8.33,8.33,0,0,0-2.42-.33,3.84,3.84,0,0,0-3.79,2.89,17.75,17.75,0,0,1-1.38,2.88l-.5.9-.45-.92a17.37,17.37,0,0,1-1.14-2.66c-.19-.73-1-3.09-4.46-3.09A4.56,4.56,0,0,0,111,58.33a3.12,3.12,0,0,0-.73,2l.08,1.38c0,.53,0,1.07,0,1.62v.44l-.43.09a1.16,1.16,0,0,0-.82.69l-.65,1.61-.56-.78c-.26-.36-.52-.75-.8-1.16a23.32,23.32,0,0,1-2.23-3.77,5,5,0,0,0-1.71-2.78A5.47,5.47,0,0,0,100,57a5.21,5.21,0,0,0-3.53,1,4.17,4.17,0,0,0-1.26,2.27,19,19,0,0,1-1.52,3.56c-.19.36-.37.64-.52.87l-.31.46-.45-.34a2,2,0,0,0-.25-.14l-.32-.14v-.86a8.22,8.22,0,0,1,.07-1.07l0-.16.1-.12a1.13,1.13,0,0,0,.27-.73V60.36a3.12,3.12,0,0,0-2-2.77A6,6,0,0,0,87.61,57a4.18,4.18,0,0,0-3,1.13,3.85,3.85,0,0,0-1.12,2.38l-.13,1.28-.81-1c-.45-.55-.7-.89-.85-1.09l-.08-.18c-.24-.94-1.12-2.51-4.38-2.51A4.34,4.34,0,0,0,74,58.11a3.42,3.42,0,0,0-.91,1.79L72.92,61l-.72-.81a5.66,5.66,0,0,0-2.78-1.75l-.21-.11c-1.07-.89-2.68-1.3-5.07-1.3a11.56,11.56,0,0,0-7.8,2.56l-.46.4-.33-.52a4.44,4.44,0,0,0-1.33-1.29,6,6,0,0,0-3.34-.94,6.68,6.68,0,0,0-1.81.23l-.9.26A1.14,1.14,0,0,0,47.35,59l.1.64-.82.82-.29-.82C46.06,58.63,45.11,57,42,57a5.34,5.34,0,0,0-2.43.52,3.42,3.42,0,0,0-2,3.13v1.08a.76.76,0,0,0,0,.21l0,.78c0,1.31.07,2.64.07,4,0,.79,0,1.75,0,2.86s0,2.1,0,2.74a3.75,3.75,0,0,0,1.69,3.17,2.48,2.48,0,0,0,.31.18l1.35.72-1.43.31a3.76,3.76,0,0,0-2,1l-.19.21-.26.29L36.71,78a2.93,2.93,0,0,0-2-.2L34,78V76.29l-3.55,2.43a6,6,0,0,0-1,.89l-.38.41-.39-.41a2.57,2.57,0,0,0-1.22-.73L27,78.81c-1.69-.12-3.6-.19-5.65-.23h-.29l-.15-.25a3.39,3.39,0,0,0-1.32-1.19,7.48,7.48,0,0,0-3.3-.56,17.91,17.91,0,0,0-3.56.38L9,77.73l.74.87-1.11,0a12.83,12.83,0,0,0-2,.14,2.88,2.88,0,0,0-2.51,2.86,6.62,6.62,0,0,0,.23,1.55,18.47,18.47,0,0,1,.17,2.73c0,.49,0,.92,0,1.31l0,.2L2.55,91.69a8.67,8.67,0,0,0-.68,3.5c0,2.86,1.82,3.88,3.37,3.88a5.37,5.37,0,0,0,1.9-.35l.27-.11.24.18a3.28,3.28,0,0,0,3.32.34l.39-.19.26.34a1.86,1.86,0,0,0,.33.36,3.68,3.68,0,0,0,5,.21l.21-.19.27.06a3.26,3.26,0,0,0,2.32-.36l.37-.21.4.43a3.68,3.68,0,0,0,5.26,0l.15-.17h.24a4.46,4.46,0,0,0,3.6-1.93l.49-.64.67,1.19c1.32,2.31,2.88,2.8,4,2.8a4.93,4.93,0,0,0,.55,0l1.73-.2-1.32,1.13a1.19,1.19,0,0,0-.39.88l0,.44c0,.27,0,.56,0,.86v.34l-.32.14a.73.73,0,0,0-.37.4,5.57,5.57,0,0,0-.29,2,1.33,1.33,0,0,0,1.37,1.43,1.83,1.83,0,0,0,1.37-.7l.38-.42.39.4a1.18,1.18,0,0,0,1.36.24l.38-.23.29.33a1.72,1.72,0,0,0,1.85.21l.2-.08.2.09a1.86,1.86,0,0,0,2.17-.69l.14-.17h.22a8.5,8.5,0,0,1,.93,0h.3l.15.26a2.43,2.43,0,0,0,.19.29,1.52,1.52,0,0,0,1.88.29l.28-.16.26.17a1.22,1.22,0,0,0,.67.2,1.92,1.92,0,0,0,1.69-1,4.84,4.84,0,0,0,.35-.85l.11-.38h.93l.08.53v.34a1.38,1.38,0,0,0,.53,1.19,1.62,1.62,0,0,0,.92.22A1.37,1.37,0,0,0,55.6,107l0-.47h.94l.15.46c.08.58.49,1.27,2,1.27a3.42,3.42,0,0,0,1.69-.36,2.59,2.59,0,0,0,.83-.71l.37-.49.43.44a3,3,0,0,0,.37.34,4.31,4.31,0,0,0,4.77.2l.4-.27.31.37a1.29,1.29,0,0,0,1,.48,1.93,1.93,0,0,0,1.7-1.1l.4-.68.85,1.1a1.68,1.68,0,0,0,1.29.69,1.46,1.46,0,0,0,1.17-.47l.31-.34.42.22a3.46,3.46,0,0,0,3,.39l.21-.07.2.09a1.81,1.81,0,0,0,.8.17,1.4,1.4,0,0,0,1-.39,1.6,1.6,0,0,0,.37-1.12v-.31l.28-.15a1.2,1.2,0,0,0,.58-.65,2.2,2.2,0,0,0,.19-.92,1,1,0,0,1,.59-.92,1.16,1.16,0,0,1,1.23.25,1.27,1.27,0,0,0,.34.27l.28.15v1.83l-.1.16a.74.74,0,0,0,0,.83,2.84,2.84,0,0,0,.62.69,1.79,1.79,0,0,0,1,.27,1.37,1.37,0,0,0,1.14-.47,1.79,1.79,0,0,0,.31-1l0-.54.75.06.5,0a1.46,1.46,0,0,0,.7-.21l.81-.5v1.11a1.41,1.41,0,0,0,1.55,1.49,1.43,1.43,0,0,0,1.08-.45l.31-.37.46.2a3.46,3.46,0,0,0,3.11.44l.22-.07.2.09a1.74,1.74,0,0,0,1.77-.16l.35-.31.35.31a1.2,1.2,0,0,0,.84.33,1.9,1.9,0,0,0,1.69-1,4.18,4.18,0,0,0,.35-.85l.11-.38h.93l.08.53v.34a1.39,1.39,0,0,0,.54,1.2,1.7,1.7,0,0,0,.91.21,1.39,1.39,0,0,0,1.54-1.46c0-.2,0-.5,0-1,0-.24,0-.53,0-.82v-.45l1.33-.27v1.42c0,.48,0,.82,0,1a1.44,1.44,0,0,0,1.61,1.49,1.51,1.51,0,0,0,1.08-.43,1.57,1.57,0,0,0,.43-1.14l0-.69c0-.28,0-.55,0-.81v-.61l.6.09.26,0a1.44,1.44,0,0,0,1.27-.81,2.69,2.69,0,0,0,.33-1.32.85.85,0,0,1,.31-.67,2.54,2.54,0,0,1,1.83-.25l1,.17-.72.72a3.44,3.44,0,0,0-1,2.46,3,3,0,0,0,1.29,2.63,4.71,4.71,0,0,0,4.49.13l.34-.18.27.27a1.24,1.24,0,0,0,.85.34,3.79,3.79,0,0,0,.75-.13A4.37,4.37,0,0,1,123.64,107.89Zm30.81-13-.58-1.14,1.53,0v1.06Zm-45.64-.42a.53.53,0,1,1,.53-.53A.53.53,0,0,1,108.81,94.44Z" style="fill: #b60014"/>
          </g>
          <path d="M133.27,57.73a5.37,5.37,0,0,0-2.18.42,3.18,3.18,0,0,0-1,.73,3.33,3.33,0,0,0-1.45-.84,7.4,7.4,0,0,0-2.22-.31,3.11,3.11,0,0,0-3.09,2.39,22.06,22.06,0,0,1-1.69,3.46l-.91,1.57-.75-1.4a21.75,21.75,0,0,1-1.53-3.48c-.2-.77-1-2.54-3.75-2.54-3.38,0-3.65,2-3.65,2.63l.08,1.34c0,.84.07,1.73.07,2.63a4.89,4.89,0,0,1-.15,1.18l-.44-.71a.4.4,0,0,0-.37-.2.42.42,0,0,0-.35.25l-.79,2a7.66,7.66,0,0,0-.29.85,32.64,32.64,0,0,1-2.22-3,23.41,23.41,0,0,1-2.32-4,4.41,4.41,0,0,0-1.44-2.41,5,5,0,0,0-2.84-.56,4.61,4.61,0,0,0-3.08.79,3.5,3.5,0,0,0-1,1.93,19.88,19.88,0,0,1-1.57,3.68,6.64,6.64,0,0,1-1.48,2L92,65.38a.39.39,0,0,0-.32-.1.42.42,0,0,0-.29.19l-.27.43c0-1.11,0-1.87,0-2.27a10.65,10.65,0,0,1,.16-1.69.38.38,0,0,0,.17-.08.44.44,0,0,0,.13-.31V60.36A2.4,2.4,0,0,0,90,58.25a5.14,5.14,0,0,0-2.37-.52,3.5,3.5,0,0,0-2.49.91A3.2,3.2,0,0,0,84.18,61V63.9c-.74-.86-1.37-1.62-1.89-2.27-.87-1.05-1.22-1.53-1.35-1.73-.13-.86-.81-2.17-3.71-2.17-3.27,0-3.43,2.29-3.43,2.79l.08.8c0,.39.06,1,.06,1.66,0,1.1,0,1.9-.1,2.49a9.55,9.55,0,0,0-1.33-3.69A5.45,5.45,0,0,0,69,59.06c-.91-.91-2.44-1.33-4.81-1.33a10.62,10.62,0,0,0-7.73,2.76,8.81,8.81,0,0,0-1.13,1.39,2.46,2.46,0,0,0,.07-.6,2.9,2.9,0,0,0-1.54-2.51A5.21,5.21,0,0,0,50.88,58a6.06,6.06,0,0,0-1.61.2l-.9.26a.4.4,0,0,0-.29.45l.14.93a4.05,4.05,0,0,1-1.13,1.12l-1.35,1c0-.61,0-1,0-1.29,0-.68-.27-2.92-3.77-2.92a4.55,4.55,0,0,0-2.1.45,2.67,2.67,0,0,0-1.59,2.47v1.08a.35.35,0,0,0,0,.14l0,.82c0,1.32.07,2.66.07,4,0,.79,0,1.76,0,2.89s0,2.08,0,2.71a3,3,0,0,0,1.36,2.57,4.09,4.09,0,0,0,2.33.66,3.68,3.68,0,0,0,2.66-1.08,3.85,3.85,0,0,0,1-2.78c0-.4,0-.9,0-1.53,0-.12,0-.24,0-.35a33.27,33.27,0,0,1,2.34,3,15.21,15.21,0,0,0,1,1.52l.05.06a3.29,3.29,0,0,0,2.46,1.15,4.82,4.82,0,0,0,3.75-2,9.23,9.23,0,0,0,.74-1,10.46,10.46,0,0,0,1.12,1,11,11,0,0,0,6.72,2.13,11.47,11.47,0,0,0,6.65-1.79,7.4,7.4,0,0,0,.87-.7,3.73,3.73,0,0,0,.44.92,3.11,3.11,0,0,0,2.79,1.57c2.06,0,3.71-1.17,4.9-3.5a11.83,11.83,0,0,0,.91-2.45l.93,1.07c.8,1,1.64,2.07,2.51,3.12l0,0a4.53,4.53,0,0,0,3.32,1.75,3.73,3.73,0,0,0,2.86-1,3.87,3.87,0,0,0,2.66.89c1.46,0,2.9-.89,4.42-2.73,1.38-.12,2.36-.18,2.9-.18.77,0,1.56,0,2.35.07a7.62,7.62,0,0,0,1,1.74,3.26,3.26,0,0,0,2.57,1.17,4.47,4.47,0,0,0,3-1.1,3.22,3.22,0,0,0,2.6,1.1,4.93,4.93,0,0,0,3.57-1.77,9.25,9.25,0,0,0,1.64-2.55l.32.56a11,11,0,0,0,1.21,1.78,2.86,2.86,0,0,0,2.15,1c1.11,0,2.07-.82,3.21-2.75l0,0c0,.36,0,.58,0,.68a2.79,2.79,0,0,0,2.89,3.06,7,7,0,0,0,2.79-.48l.06,0a3.47,3.47,0,0,0,.87-.58,4,4,0,0,0,3,1.07,3.57,3.57,0,0,0,2.66-1,3.79,3.79,0,0,0,1.06-2.78c0-.09,0-.44,0-1.56,0-.85.05-1.82.05-2.87,0-1.35,0-2.74,0-4.13s.05-2.25.05-2.46C137.28,59.77,136.89,57.73,133.27,57.73ZM61.67,65h0a2.81,2.81,0,0,1,1.69-.47,4.53,4.53,0,0,1,1.39.14l.72.25a2.74,2.74,0,0,0,.41.43l.08.06a3.9,3.9,0,0,1,.57.5h0l.07.1a1.44,1.44,0,0,1,.24.9,1.76,1.76,0,0,1-.65,1.53,3.24,3.24,0,0,1-2.13.64,3.54,3.54,0,0,1-2.21-.64A2.13,2.13,0,0,1,61,66.59,1.73,1.73,0,0,1,61.67,65Zm-7.79,2.06A8.45,8.45,0,0,0,54,68.32l-.35-.24A33.2,33.2,0,0,1,51,66q.73-.48,1.17-.81a21,21,0,0,0,2.2-1.72,2.91,2.91,0,0,0,.3-.31A9.87,9.87,0,0,0,53.88,67.07Z" style="fill: #fff"/>
          <path d="M133.27,57.73a5.37,5.37,0,0,0-2.18.42,3.18,3.18,0,0,0-1,.73,3.33,3.33,0,0,0-1.45-.84,7.4,7.4,0,0,0-2.22-.31,3.11,3.11,0,0,0-3.09,2.39,22.06,22.06,0,0,1-1.69,3.46l-.91,1.57-.75-1.4a21.75,21.75,0,0,1-1.53-3.48c-.2-.77-1-2.54-3.75-2.54-3.38,0-3.65,2-3.65,2.63l.08,1.34c0,.84.07,1.73.07,2.63a4.89,4.89,0,0,1-.15,1.18l-.44-.71a.4.4,0,0,0-.37-.2.42.42,0,0,0-.35.25l-.79,2a7.66,7.66,0,0,0-.29.85,32.64,32.64,0,0,1-2.22-3,23.41,23.41,0,0,1-2.32-4,4.41,4.41,0,0,0-1.44-2.41,5,5,0,0,0-2.84-.56,4.61,4.61,0,0,0-3.08.79,3.5,3.5,0,0,0-1,1.93,19.88,19.88,0,0,1-1.57,3.68,6.64,6.64,0,0,1-1.48,2L92,65.38a.39.39,0,0,0-.32-.1.42.42,0,0,0-.29.19l-.27.43c0-1.11,0-1.87,0-2.27a10.65,10.65,0,0,1,.16-1.69.38.38,0,0,0,.17-.08.44.44,0,0,0,.13-.31V60.36A2.4,2.4,0,0,0,90,58.25a5.14,5.14,0,0,0-2.37-.52,3.5,3.5,0,0,0-2.49.91A3.2,3.2,0,0,0,84.18,61V63.9c-.74-.86-1.37-1.62-1.89-2.27-.87-1.05-1.22-1.53-1.35-1.73-.13-.86-.81-2.17-3.71-2.17-3.27,0-3.43,2.29-3.43,2.79l.08.8c0,.39.06,1,.06,1.66,0,1.1,0,1.9-.1,2.49a9.55,9.55,0,0,0-1.33-3.69A5.45,5.45,0,0,0,69,59.06c-.91-.91-2.44-1.33-4.81-1.33a10.62,10.62,0,0,0-7.73,2.76,8.81,8.81,0,0,0-1.13,1.39,2.46,2.46,0,0,0,.07-.6,2.9,2.9,0,0,0-1.54-2.51A5.21,5.21,0,0,0,50.88,58a6.06,6.06,0,0,0-1.61.2l-.9.26a.4.4,0,0,0-.29.45l.14.93a4.05,4.05,0,0,1-1.13,1.12l-1.35,1c0-.61,0-1,0-1.29,0-.68-.27-2.92-3.77-2.92a4.55,4.55,0,0,0-2.1.45,2.67,2.67,0,0,0-1.59,2.47v1.08a.35.35,0,0,0,0,.14l0,.82c0,1.32.07,2.66.07,4,0,.79,0,1.76,0,2.89s0,2.08,0,2.71a3,3,0,0,0,1.36,2.57,4.09,4.09,0,0,0,2.33.66,3.68,3.68,0,0,0,2.66-1.08,3.85,3.85,0,0,0,1-2.78c0-.4,0-.9,0-1.53,0-.12,0-.24,0-.35a33.27,33.27,0,0,1,2.34,3,15.21,15.21,0,0,0,1,1.52l.05.06a3.29,3.29,0,0,0,2.46,1.15,4.82,4.82,0,0,0,3.75-2,9.23,9.23,0,0,0,.74-1,10.46,10.46,0,0,0,1.12,1,11,11,0,0,0,6.72,2.13,11.47,11.47,0,0,0,6.65-1.79,7.4,7.4,0,0,0,.87-.7,3.73,3.73,0,0,0,.44.92,3.11,3.11,0,0,0,2.79,1.57c2.06,0,3.71-1.17,4.9-3.5a11.83,11.83,0,0,0,.91-2.45l.93,1.07c.8,1,1.64,2.07,2.51,3.12l0,0a4.53,4.53,0,0,0,3.32,1.75,3.73,3.73,0,0,0,2.86-1,3.87,3.87,0,0,0,2.66.89c1.46,0,2.9-.89,4.42-2.73,1.38-.12,2.36-.18,2.9-.18.77,0,1.56,0,2.35.07a7.62,7.62,0,0,0,1,1.74,3.26,3.26,0,0,0,2.57,1.17,4.47,4.47,0,0,0,3-1.1,3.22,3.22,0,0,0,2.6,1.1,4.93,4.93,0,0,0,3.57-1.77,9.25,9.25,0,0,0,1.64-2.55l.32.56a11,11,0,0,0,1.21,1.78,2.86,2.86,0,0,0,2.15,1c1.11,0,2.07-.82,3.21-2.75l0,0c0,.36,0,.58,0,.68a2.79,2.79,0,0,0,2.89,3.06,7,7,0,0,0,2.79-.48l.06,0a3.47,3.47,0,0,0,.87-.58,4,4,0,0,0,3,1.07,3.57,3.57,0,0,0,2.66-1,3.79,3.79,0,0,0,1.06-2.78c0-.09,0-.44,0-1.56,0-.85.05-1.82.05-2.87,0-1.35,0-2.74,0-4.13s.05-2.25.05-2.46C137.28,59.77,136.89,57.73,133.27,57.73ZM61.67,65h0a2.81,2.81,0,0,1,1.69-.47,4.53,4.53,0,0,1,1.39.14l.72.25a2.74,2.74,0,0,0,.41.43l.08.06a3.9,3.9,0,0,1,.57.5h0l.07.1a1.44,1.44,0,0,1,.24.9,1.76,1.76,0,0,1-.65,1.53,3.24,3.24,0,0,1-2.13.64,3.54,3.54,0,0,1-2.21-.64A2.13,2.13,0,0,1,61,66.59,1.73,1.73,0,0,1,61.67,65Zm-7.79,2.06A8.45,8.45,0,0,0,54,68.32l-.35-.24A33.2,33.2,0,0,1,51,66q.73-.48,1.17-.81a21,21,0,0,0,2.2-1.72,2.91,2.91,0,0,0,.3-.31A9.87,9.87,0,0,0,53.88,67.07Z" style="fill: #fff"/>
          <g>
            <path d="M55.29,70.63a5.48,5.48,0,0,1-1.09,1.91A3.39,3.39,0,0,1,51.59,74a1.84,1.84,0,0,1-1.38-.68,15,15,0,0,1-1-1.38,46.83,46.83,0,0,0-3.56-4.43l-1.5.9c0,.55,0,1.14,0,1.76s0,1.07,0,1.46a2.46,2.46,0,0,1-.63,1.77,2.16,2.16,0,0,1-1.6.63,2.62,2.62,0,0,1-1.5-.41,1.57,1.57,0,0,1-.73-1.36c0-.62,0-1.5,0-2.67s0-2.14,0-2.93c0-1.34,0-2.69-.08-4s0-2,0-2a1.23,1.23,0,0,1,.77-1.16A3.15,3.15,0,0,1,42,59.2c1.54,0,2.3.48,2.3,1.45,0,.31,0,.87,0,1.7,0,1,0,1.88-.05,2.59L48,62.08c1.14-.89,1.72-1.63,1.72-2.23a1.43,1.43,0,0,0,0-.29,4.37,4.37,0,0,1,1.21-.14A3.83,3.83,0,0,1,53,60a1.56,1.56,0,0,1,.87,1.28,1.6,1.6,0,0,1-.58,1.11c-.21.21-.9.75-2.06,1.6-.54.41-1.44,1-2.72,1.8l1.17,1a32,32,0,0,0,3.07,2.44A6.51,6.51,0,0,0,55.29,70.63Z" style="fill: #b60014"/>
            <path d="M72.44,66.68a6.62,6.62,0,0,1-2.71,5.84,10,10,0,0,1-5.81,1.53,9.55,9.55,0,0,1-5.84-1.84,6.13,6.13,0,0,1-2.74-5.14,7.5,7.5,0,0,1,2.11-5.55,9.15,9.15,0,0,1,6.69-2.32c2.24,0,3.59.42,4,1.26a3.74,3.74,0,0,1,3.08,2.1A7.79,7.79,0,0,1,72.44,66.68Zm-4.14.24a2.92,2.92,0,0,0-.53-1.79,4.13,4.13,0,0,0-.92-.87c-.31-.27-.45-.52-.41-.75a1.64,1.64,0,0,1-.34.05,3.15,3.15,0,0,1-.83-.24,5.38,5.38,0,0,0-1.91-.25,4.22,4.22,0,0,0-2.54.75,3.19,3.19,0,0,0-1.29,2.77,3.58,3.58,0,0,0,1.43,3,5,5,0,0,0,3.1,1,4.63,4.63,0,0,0,3-1A3.2,3.2,0,0,0,68.3,66.92Z" style="fill: #b60014"/>
            <path d="M90.06,60.36s-.09.36-.25,1.14a12,12,0,0,0-.21,2.13c0,.57,0,1.82,0,3.75v4a3.38,3.38,0,0,1-.53,2.18,2.33,2.33,0,0,1-1.82.56A3.14,3.14,0,0,1,85,72.81c-.84-1-1.67-2-2.49-3.1-1-1.18-1.61-1.86-1.77-2a8.31,8.31,0,0,0-1.38-1.24,10.85,10.85,0,0,1-1.14,4.92Q76.88,74,74.67,74.05a1.67,1.67,0,0,1-1.55-.88,3.29,3.29,0,0,1-.48-1.86,16.4,16.4,0,0,1,.58-3.63.91.91,0,0,0,.87.53c.87,0,1.31-1.75,1.31-5.23a17.6,17.6,0,0,0-.07-1.82l-.08-.68c0-.85.66-1.28,2-1.28,1.51,0,2.27.36,2.27,1.09a10.42,10.42,0,0,0,1.65,2.27q1.33,1.65,3.54,4.17c.34.37.59.56.77.56s.17-.28.17-.85l0-5.47a1.75,1.75,0,0,1,.51-1.29,2,2,0,0,1,1.45-.48,3.86,3.86,0,0,1,1.72.36C89.81,59.82,90.06,60.09,90.06,60.36Z" style="fill: #b60014"/>
            <path d="M109.73,70.56a3.58,3.58,0,0,1-.9,1.94,3.4,3.4,0,0,1-2.76,1.55,1.8,1.8,0,0,1-1.45-.66,9.38,9.38,0,0,1-1.19-2.2c-1.12-.08-2.22-.12-3.32-.12q-1,0-3.66.24C95.1,73.09,93.88,74,92.79,74c-1.48,0-2.22-.65-2.22-2a8.78,8.78,0,0,1,1.35-4.7,1.27,1.27,0,0,0,.8.39c.86,0,1.81-1,2.86-2.86a21.71,21.71,0,0,0,1.7-4,2.53,2.53,0,0,1,.53-1.21A3.46,3.46,0,0,1,100,59.2a4.08,4.08,0,0,1,2,.29,3.48,3.48,0,0,1,.9,1.67,25.52,25.52,0,0,0,2.49,4.31A19.31,19.31,0,0,0,109.73,70.56Zm-8-3.18-1.46-3.19c-.32.76-.78,1.82-1.38,3.19l1.29,0Z" style="fill: #b60014"/>
            <path d="M129.71,72.69c0,.39-.28.72-.85,1a5.48,5.48,0,0,1-2.2.37c-1,0-1.43-.54-1.43-1.6,0-.26,0-1.18-.1-2.76s-.09-2.51-.09-2.77a46.76,46.76,0,0,0-2.6,4.17c-.79,1.34-1.43,2-1.93,2a1.43,1.43,0,0,1-1.07-.56,9.62,9.62,0,0,1-1-1.52l-2-3.44a10.59,10.59,0,0,1-2.33,5.16,3.5,3.5,0,0,1-2.49,1.31c-1.25,0-1.87-.66-1.87-2a13.06,13.06,0,0,1,.68-4.72,1,1,0,0,0,.8.56c.34,0,.66-.42,1-1.26a6.74,6.74,0,0,0,.43-2.33c0-.95,0-1.85-.07-2.71l-.07-1.28c0-.76.72-1.14,2.18-1.14,1.31,0,2.08.47,2.32,1.43a25.67,25.67,0,0,0,1.65,3.78c.49.9,1,1.8,1.41,2.68q.36.78.6.78c.15,0,.38-.32.7-1q.78-1.31,1.53-2.61a22.91,22.91,0,0,0,1.82-3.76,1.66,1.66,0,0,1,1.69-1.35,6.27,6.27,0,0,1,1.8.24c.64.21,1,.49,1,.85,0,0,0,.65-.13,1.91s-.09,2.42-.09,3.51a34.11,34.11,0,0,0,.38,4.24C129.58,71.81,129.71,72.72,129.71,72.69Z" style="fill: #b60014"/>
            <path d="M135.82,60.65c0,.21,0,1,0,2.42s-.05,2.8-.05,4.17c0,1,0,2-.05,2.81s0,1.41,0,1.62a2.36,2.36,0,0,1-.63,1.75,2.14,2.14,0,0,1-1.62.6c-1.63,0-2.45-.71-2.45-2.13V69.42c0-1,0-2,0-2.74,0-1.34,0-2.69,0-4s0-2,0-2a1.23,1.23,0,0,1,.85-1.16,3.73,3.73,0,0,1,1.57-.29C135,59.2,135.82,59.68,135.82,60.65Z" style="fill: #b60014"/>
          </g>
          <g>
            <g>
              <path d="M42.08,107c0,.14-.1.26-.29.35a1.71,1.71,0,0,1-.74.14c-.32,0-.47-.2-.47-.58,0-.08,0-.41,0-1s0-.89,0-1a14.32,14.32,0,0,0-.88,1.5c-.26.47-.48.71-.65.71a.53.53,0,0,1-.37-.2,5,5,0,0,1-.34-.54c-.14-.26-.36-.68-.67-1.24a3.78,3.78,0,0,1-.78,1.85,1.16,1.16,0,0,1-.84.47c-.41,0-.63-.23-.63-.7a5.07,5.07,0,0,1,.23-1.7c.08.14.17.2.27.2s.22-.15.33-.45a2.45,2.45,0,0,0,.14-.83c0-.34,0-.66,0-1s0-.46,0-.46c0-.29.24-.42.73-.42s.7.17.79.52a7.63,7.63,0,0,0,.55,1.35l.48,1c.08.19.14.27.2.27s.13-.11.24-.33l.51-.94a7.64,7.64,0,0,0,.61-1.34.57.57,0,0,1,.58-.49,1.64,1.64,0,0,1,.6.09c.22.07.32.17.32.31s0,.23,0,.68,0,.86,0,1.25A12.4,12.4,0,0,0,42,106C42,106.68,42.08,107,42.08,107Z" style="fill: #fff"/>
              <path d="M45.57,105.08h-.43L45.6,104l.49,1.14Zm1.75-.67a8.18,8.18,0,0,1-.84-1.54,1.58,1.58,0,0,0-.3-.61,1.36,1.36,0,0,0-.67-.1,1.06,1.06,0,0,0-.73.17,1,1,0,0,0-.18.44,8.25,8.25,0,0,1-.57,1.42c-.36.68-.68,1-1,1a.44.44,0,0,1-.27-.14,3.34,3.34,0,0,0-.45,1.69c0,.47.25.7.75.7s.77-.32,1.23-1c.6,0,1-.08,1.24-.08s.74,0,1.11,0a3.7,3.7,0,0,0,.4.78.62.62,0,0,0,.5.24,1.13,1.13,0,0,0,.92-.56,1.3,1.3,0,0,0,.3-.69A7,7,0,0,1,47.32,104.41Z" style="fill: #fff"/>
              <path d="M55,102.7c0,.12,0,.38,0,.78s0,.77,0,1.11,0,.87,0,1.27,0,.7,0,.89c0,.49-.26.73-.79.73a.93.93,0,0,1-.53-.11.69.69,0,0,1-.19-.57s0-.55,0-1.55c-.39,0-.79-.06-1.22-.06s-.8,0-1.18.06a4.06,4.06,0,0,1-.46,1.55,1.2,1.2,0,0,1-1,.68.54.54,0,0,1-.46-.26,1.07,1.07,0,0,1-.18-.65,4.21,4.21,0,0,1,.19-1.32c.05.11.12.17.18.17s.25-.17.34-.49a4.46,4.46,0,0,0,.14-1.19c0-.17,0-.35,0-.55s0-.37,0-.51c0-.35.24-.52.73-.52s.68.19.68.58v.63c0,.34,0,.57,0,.69.42,0,.79,0,1.11,0s.74,0,1.24,0l0-1.32c0-.39.24-.58.72-.58a1,1,0,0,1,.57.15A.52.52,0,0,1,55,102.7Z" style="fill: #fff"/>
              <path d="M57.48,104.92v.83h-2.1v-.83Z" style="fill: #fff"/>
              <path d="M61.3,102.58s0,.1,0,.23,0,.23,0,.34v1.7a2.4,2.4,0,0,1-1.08,2.35,2.76,2.76,0,0,1-1.34.28c-.85,0-1.27-.24-1.27-.72a1.42,1.42,0,0,1,.4-.94c.21-.24.36-.35.46-.35,0,.27.15.41.47.41q1,0,1-1.44,0-.81,0-1.32a4,4,0,0,0,0-.43.44.44,0,0,1,.22-.39.91.91,0,0,1,.54-.14,1,1,0,0,1,.58.14A.37.37,0,0,1,61.3,102.58Z" style="fill: #fff"/>
              <path d="M74.21,102.58s0,.14-.08.41a4.29,4.29,0,0,0-.07.76v2.75a1.22,1.22,0,0,1-.18.78.74.74,0,0,1-.61.21,1.09,1.09,0,0,1-.75-.45c-.28-.37-.57-.74-.84-1.12l-.6-.73a2.71,2.71,0,0,0-.46-.44,4,4,0,0,1-.39,1.76c-.31.65-.71,1-1.2,1a.55.55,0,0,1-.53-.32,1.21,1.21,0,0,1-.16-.67,6.36,6.36,0,0,1,.19-1.3.3.3,0,0,0,.3.19c.29,0,.44-.62.44-1.86a5.55,5.55,0,0,0,0-.65c0-.16,0-.24,0-.24,0-.32.22-.47.66-.47s.77.12.77.4a3.77,3.77,0,0,0,.56.81c.29.39.69.89,1.19,1.49.12.13.2.19.26.19s0-.1,0-.3v-2a.6.6,0,0,1,.66-.64,1.25,1.25,0,0,1,.59.13C74.13,102.38,74.21,102.48,74.21,102.58Z" style="fill: #fff"/>
              <path d="M81.16,104.67a1.46,1.46,0,0,1-.12.6c-.09.24-.23.36-.4.36l-.48-.09a.63.63,0,0,0,0,.26v.82a1.06,1.06,0,0,1-.19.71.71.71,0,0,1-.51.15q-.68,0-.78-.51a2.53,2.53,0,0,1-1.55.51,2.58,2.58,0,0,1-1.55-.49,2.35,2.35,0,0,1-1-2,2.69,2.69,0,0,1,.77-2,3.1,3.1,0,0,1,2.24-.73,3.78,3.78,0,0,1,1.48.25c.45.18.67.43.67.73a.71.71,0,0,1-.16.49.48.48,0,0,1-.41.2,2.23,2.23,0,0,1-.75-.24,2.4,2.4,0,0,0-1-.24,1.36,1.36,0,0,0-.92.34A1.4,1.4,0,0,0,76,104.8a1.64,1.64,0,0,0,.28,1,1,1,0,0,0,.9.45,1.84,1.84,0,0,0,.86-.24c.34-.18.52-.38.56-.6h-.18a1.44,1.44,0,0,0-.37,0,1.66,1.66,0,0,1-.32,0c-.34,0-.51-.18-.51-.56s.24-.63.72-.63a21,21,0,0,1,2.9.18.38.38,0,0,1,.24.05A.17.17,0,0,1,81.16,104.67Z" style="fill: #fff"/>
              <path d="M90.38,102.5a1.81,1.81,0,0,1-.19.89.59.59,0,0,1-.51.37,2,2,0,0,1-.45-.1,9.1,9.1,0,0,0-.91-.16,12.26,12.26,0,0,0-1.72-.1l0,.95.64,0q.41,0,1.65.09c.22,0,.32.1.32.27,0,.59-.21.88-.64.88l-.41,0a7.6,7.6,0,0,0-.87,0h-.7c0,.59,0,.91,0,1a1.39,1.39,0,0,1-.15.78.69.69,0,0,1-.56.2,1,1,0,0,1-.61-.16,2,2,0,0,1-.41-.48.9.9,0,0,0,.23-.74v-1.22a11.66,11.66,0,0,0,0-1.28,2.3,2.3,0,0,1-.44.08.43.43,0,0,1-.34-.17.71.71,0,0,1-.18-.52c0-.49.26-.74.78-.74l.53,0,.8,0c1.29,0,2.6.06,3.92.18a.67.67,0,0,1,.23,0S90.38,102.42,90.38,102.5Z" style="fill: #fff"/>
              <path d="M92.46,102.69c0,.07,0,.36,0,.86s0,1,0,1.49,0,.7,0,1,0,.49,0,.57a.84.84,0,0,1-.21.62.73.73,0,0,1-.55.22c-.54,0-.82-.25-.82-.76v-1.87c0-.48,0-1,0-1.44s0-.71,0-.71a.47.47,0,0,1,.28-.43,1.24,1.24,0,0,1,.54-.1C92.17,102.16,92.46,102.33,92.46,102.69Z" style="fill: #fff"/>
              <path d="M99.55,104.67a1.64,1.64,0,0,1-.11.6c-.1.24-.24.36-.41.36l-.48-.09a.63.63,0,0,0,0,.26v.82a1,1,0,0,1-.19.71.71.71,0,0,1-.51.15c-.45,0-.71-.17-.77-.51a2.67,2.67,0,0,1-3.11,0,2.35,2.35,0,0,1-1-2,2.69,2.69,0,0,1,.77-2,3.11,3.11,0,0,1,2.25-.73,3.76,3.76,0,0,1,1.47.25c.45.18.67.43.67.73a.71.71,0,0,1-.16.49.47.47,0,0,1-.4.2,2.2,2.2,0,0,1-.76-.24,2.43,2.43,0,0,0-1-.24,1.4,1.4,0,0,0-.93.34,1.44,1.44,0,0,0-.45,1.11,1.64,1.64,0,0,0,.29,1,1,1,0,0,0,.9.45,1.84,1.84,0,0,0,.86-.24c.34-.18.52-.38.56-.6h-.18a1.44,1.44,0,0,0-.37,0,1.63,1.63,0,0,1-.31,0c-.35,0-.52-.18-.52-.56s.24-.63.73-.63a20.8,20.8,0,0,1,2.89.18.38.38,0,0,1,.24.05A.17.17,0,0,1,99.55,104.67Z" style="fill: #fff"/>
              <path d="M105.75,102.7q0,.18,0,.78c0,.4,0,.77,0,1.11s0,.87,0,1.27,0,.7,0,.89c0,.49-.27.73-.8.73a1,1,0,0,1-.53-.11.69.69,0,0,1-.19-.57s0-.55,0-1.55c-.4,0-.8-.06-1.23-.06s-.8,0-1.18.06a4.26,4.26,0,0,1-.45,1.55,1.21,1.21,0,0,1-1,.68.54.54,0,0,1-.46-.26,1.07,1.07,0,0,1-.18-.65,4.52,4.52,0,0,1,.19-1.32c.05.11.11.17.18.17s.25-.17.34-.49a4.46,4.46,0,0,0,.14-1.19c0-.17,0-.35,0-.55s0-.37,0-.51c0-.35.24-.52.73-.52s.67.19.67.58v.63c0,.34,0,.57,0,.69.43,0,.8,0,1.11,0s.75,0,1.25,0v-1.32c0-.39.24-.58.72-.58a1,1,0,0,1,.57.15A.52.52,0,0,1,105.75,102.7Z" style="fill: #fff"/>
              <path d="M112.61,102.51a2,2,0,0,1-.23,1,.73.73,0,0,1-.64.43,2.73,2.73,0,0,1-.68-.13,7.58,7.58,0,0,0-.91-.21v1.23c0,.36,0,.75,0,1.14s0,.63,0,.71a.88.88,0,0,1-.21.62.81.81,0,0,1-.57.22c-.58,0-.87-.26-.87-.76,0-.23,0-.57,0-1v-2.26a7.29,7.29,0,0,0-1.18.17,5.82,5.82,0,0,1-.6.13.56.56,0,0,1-.43-.19.78.78,0,0,1-.17-.54c0-.51.28-.78.83-.78l.51,0,.83,0a37.22,37.22,0,0,1,4,.18C112.51,102.36,112.61,102.41,112.61,102.51Z" style="fill: #fff"/>
              <path d="M121.25,105.89c0,.34-.24.66-.71,1a3.8,3.8,0,0,1-2.22.6,3.11,3.11,0,0,1-1.81-.51,2.29,2.29,0,0,1-1-2,2.64,2.64,0,0,1,.77-1.94,3,3,0,0,1,2.24-.83,4.36,4.36,0,0,1,1.5.22c.46.18.69.41.69.7a.86.86,0,0,1-.15.49.45.45,0,0,1-.38.23,3.17,3.17,0,0,1-.7-.2,3.15,3.15,0,0,0-1-.19,1.68,1.68,0,0,0-.92.24,1.27,1.27,0,0,0-.54,1.14,1.36,1.36,0,0,0,.37,1,1.41,1.41,0,0,0,1.09.43,1.89,1.89,0,0,0,1.07-.29c.31-.19.46-.4.46-.62a.32.32,0,0,0,0-.13C120.82,105.19,121.25,105.43,121.25,105.89Z" style="fill: #fff"/>
              <path d="M127.06,106.15a2.33,2.33,0,0,1-.18.9c-.15.35-.33.53-.56.53l-.92-.21a7.06,7.06,0,0,0-1.49-.21,6.6,6.6,0,0,0-1.27.12l-.59.12a.5.5,0,0,1-.4-.18.64.64,0,0,1-.15-.4.62.62,0,0,1,.08-.33l.13-.2a4.3,4.3,0,0,0,.18-1.44c0-.15,0-.4,0-.76v-.69a3.4,3.4,0,0,0,0-.42c0-.16,0-.27,0-.33,0-.34.27-.49.81-.49s.76.17.76.53c0,.12,0,.64-.09,1.57s-.09,1.39-.09,1.43.06.23.19.23l.42,0,.62,0,1.12,0,1.08,0C126.94,105.94,127.06,106,127.06,106.15Z" style="fill: #fff"/>
              <path d="M132.83,102.62a2.06,2.06,0,0,1,0,.21c0,.08,0,.18,0,.28l-.05,1.69c0,1.79-.92,2.68-2.6,2.68a3.71,3.71,0,0,1-1.79-.38,1.74,1.74,0,0,1-.91-1.65c0-.23,0-.53,0-.87s0-.59,0-.71a7.45,7.45,0,0,0,0-.83c0-.28,0-.4,0-.38,0-.34.31-.5.92-.5a.84.84,0,0,1,.53.17.59.59,0,0,1,.21.42c0-.07,0,.08,0,.44s0,.87,0,1.54a2.15,2.15,0,0,0,.16,1,1.06,1.06,0,0,0,1,.43,1,1,0,0,0,1-.48,2,2,0,0,0,.17-1v-.8c0-.39,0-.71,0-1,0-.55.22-.82.65-.82a1.42,1.42,0,0,1,.71.14A.4.4,0,0,1,132.83,102.62Z" style="fill: #fff"/>
              <path d="M136.07,104.21a.47.47,0,0,0-.37.16v-1l.44,0c.76,0,1.14.15,1.14.46S136.88,104.21,136.07,104.21Zm2.35.34a1.42,1.42,0,0,0,.44-.58,1.27,1.27,0,0,0,.16-.57c0-.55-.36-.91-1.09-1.1a9.69,9.69,0,0,0-2.05-.14l-1,0-.79,0a.64.64,0,0,0-.48.17.63.63,0,0,0-.17.47c0,.48.18.72.56.72l.31,0v2.61c-.21-.08-.31-.21-.31-.37a.79.79,0,0,0-.52.32.92.92,0,0,0-.29.61q0,.51.84.66a16.06,16.06,0,0,0,2.16.09,7.82,7.82,0,0,0,1.94-.17,1.59,1.59,0,0,0,1.28-1.65C139.37,105.22,139.05,104.85,138.42,104.55Zm-1.37,1.65a3.68,3.68,0,0,1-.89.07h-.45V105a.56.56,0,0,0,.41.13h.64c.52,0,.78.16.78.5A.59.59,0,0,1,137.05,106.2Z" style="fill: #fff"/>
            </g>
            <path d="M66,105.88a1.48,1.48,0,0,1-1.05.37,1.58,1.58,0,0,1-1.06-.36,1.32,1.32,0,0,1-.49-1.1,1.16,1.16,0,0,1,.44-1,1.34,1.34,0,0,1,.87-.28,1.79,1.79,0,0,1,.66.09,1.11,1.11,0,0,0,.28.09l.12,0q0,.12.15.27a1.43,1.43,0,0,1,.31.32,1.12,1.12,0,0,1,.18.66A1.2,1.2,0,0,1,66,105.88Zm1.43-2.55a1.28,1.28,0,0,0-1.06-.77c-.16-.32-.62-.47-1.39-.47a3,3,0,0,0-2.29.86,2.83,2.83,0,0,0-.73,2,2.31,2.31,0,0,0,.94,1.88,3.14,3.14,0,0,0,2,.67,3.29,3.29,0,0,0,2-.56,2.5,2.5,0,0,0,.93-2.14A3,3,0,0,0,67.44,103.33Z" style="fill: #fff"/>
          </g>
          <path d="M171.44,87.2a6.88,6.88,0,0,0-1.06-1.55l.73-1.5,0-.07a4.74,4.74,0,0,1,.85-1.26,3.23,3.23,0,0,0,.94-2.11,2.18,2.18,0,0,0-1.38-2l-.11,0a11.61,11.61,0,0,0-3.45-.35h-4.65a2.75,2.75,0,0,0-2.23,1l0,0a3.24,3.24,0,0,0-.33.52c-.52-.08-1-.15-1.54-.2A2.19,2.19,0,0,0,157.88,78a6,6,0,0,0-2.71-.45A13.14,13.14,0,0,0,152,78l-2.24.56,1,1.21a4.7,4.7,0,0,0-1.87.65,3.87,3.87,0,0,0-.62.5,3.28,3.28,0,0,0-.59-1.32l0,0a2.62,2.62,0,0,0-2-1,3.5,3.5,0,0,0-2.26.94l-.4.33a2.12,2.12,0,0,0-1.26-.85,8.49,8.49,0,0,0-1.53-.32,2.44,2.44,0,0,0-1.18-1.28,6.14,6.14,0,0,0-2.85-.48,14.25,14.25,0,0,0-3.26.4l-2.27.55.77,1c-.27,0-.54.1-.81.17l-.14,0a2.28,2.28,0,0,0-1.15.84l-.13-.11a4,4,0,0,0-2.52-1.19,3,3,0,0,0-2,.92l-.15.17a3.72,3.72,0,0,0-.77,2.26A2.74,2.74,0,0,0,125,84.53l-.64.76a4.38,4.38,0,0,0-.84,2.95,3.62,3.62,0,0,0,.59,2.2l0,0-.48-.07-1.34-.18,0-.16.54-6.52c.11-1,.21-1.81.31-2.35a3.24,3.24,0,0,0,.26-1.17,2.05,2.05,0,0,0-1.62-2c-.58-.17-1.82-.36-6.31-.36a38.46,38.46,0,0,0-5.91.23,3,3,0,0,0-.45.1,2.58,2.58,0,0,0-3.77.35l-.07.08a10.61,10.61,0,0,1-2.3,2.2,3.78,3.78,0,0,1-1.2.64l-1-1.81-.39.66c0-.08,0-.16,0-.24A2,2,0,0,0,98.47,78a49.41,49.41,0,0,0-5.13-.16H89.79a11,11,0,0,0-1.76.11,2.22,2.22,0,0,0-.37.09L87.45,78a11.1,11.1,0,0,0-2.16-.15H80.52a3.89,3.89,0,0,1-.52,0,4.63,4.63,0,0,0-1.37-.19,2.65,2.65,0,0,0-2.8,2.54c0,.13,0,.3,0,.52a2.3,2.3,0,0,0-1.15-1.17l-.16-.08-.17,0a16.51,16.51,0,0,0-3.23-.24h-.8a2.26,2.26,0,0,0-1.91-.94,2.45,2.45,0,0,0-1.77.92,13.59,13.59,0,0,1-2.77,2.39,3.58,3.58,0,0,1-1,.45l-.32-.19a2.12,2.12,0,0,0-1.11-.48l-.77-.11V81a3.53,3.53,0,0,0-1.18-2.78l-.09-.07a3.46,3.46,0,0,0-2.11-.65,3.11,3.11,0,0,0-2.3.94l-.06.07a3.52,3.52,0,0,0-.84,2.37v.31l-.55.07.06-.53-1.19-.35a24.21,24.21,0,0,1-4.69-2.12,2.62,2.62,0,0,0-1.43-.52A2.3,2.3,0,0,0,44,79.53l-.38.29A2.7,2.7,0,0,0,42.51,78a3.56,3.56,0,0,0-2.16-.68,3.07,3.07,0,0,0-2.28.89,3,3,0,0,0-.78,1.35,2.1,2.1,0,0,0-1.92-1.07,2.8,2.8,0,0,0-1.19.33h0c-.37.19-.67.32-.91.43V77.76l-2.33,1.6c-1.47,1-2.23,3-2.23,2.52a2.05,2.05,0,0,0-1.44-2.25l-.14,0H27c-1.9-.14-4.06-.22-6.44-.24a2.41,2.41,0,0,0-1.27-1.52l-.05,0a7,7,0,0,0-2.9-.44,17.21,17.21,0,0,0-3.41.36l-2.49.51,1,1.13a36.38,36.38,0,0,0-4.65.18,2.09,2.09,0,0,0-1.89,2.1,6.89,6.89,0,0,0,.23,1.43,19.61,19.61,0,0,1,.18,2.85,18.63,18.63,0,0,1-.36,4.32l-.51-.81L3.26,92a8,8,0,0,0-.61,3.19c0,2.29,1.34,3.11,2.59,3.11a4.4,4.4,0,0,0,2.36-.67,2.41,2.41,0,0,0,2,1,2.72,2.72,0,0,0,2.07-1.07,2.66,2.66,0,0,0,.78,1.49,3,3,0,0,0,2.13.88,2.66,2.66,0,0,0,2.28-1.26,2.55,2.55,0,0,0,1.23.33,2.9,2.9,0,0,0,2.23-1.24A2.52,2.52,0,0,0,21,99a3,3,0,0,0,2.16.93,2.67,2.67,0,0,0,2.35-1.4,1.64,1.64,0,0,0,.56.1c1.19,0,2.86-.61,4.06-3.5l.34-.82L30,93.65a5.56,5.56,0,0,1-.89-1.92c-.08-.24-.14-.49-.2-.74a4.82,4.82,0,0,0,1.21.15,14.07,14.07,0,0,0,1.8-.12c0,.53,0,1.14,0,1.82a9.17,9.17,0,0,1-.38,3.46l-.31.7.37.66c.92,1.6,2,2.42,3.29,2.42a3.52,3.52,0,0,0,1.69-.4,35.12,35.12,0,0,1,5.26-.32,19.5,19.5,0,0,1,5.5.65,6.48,6.48,0,0,0,1.94.43c1.54,0,2.48-1.32,2.78-3.91l.16-1.35s-.34,0,.47,0a3.4,3.4,0,0,0,1.3-.27v.52c0,2,.29,3.11,1,3.75a3.34,3.34,0,0,0,2.32.94,2.88,2.88,0,0,0,2.61-1.72,7.08,7.08,0,0,0,.67-3.29V93.51a2.64,2.64,0,0,0,.4.12,26.13,26.13,0,0,1,.48,4.27l0,.18a2.14,2.14,0,0,0,2.1,2,8.42,8.42,0,0,0,1.73-.28l.08,0a8.59,8.59,0,0,1,2.11-.18c1.84,0,3.09,0,3.82.08a8.64,8.64,0,0,0,1.43.16,2,2,0,0,0,1.93-1.66h0a2.83,2.83,0,0,0,2.27,1.18,2.65,2.65,0,0,0,1.6-.56l.2.21a2.41,2.41,0,0,0,1.8.83,3.13,3.13,0,0,0,.79-.14,20,20,0,0,1,2.26-.45c1.06-.18,2.45-.38,4.12-.61l.14,0,.14,0a3.1,3.1,0,0,0,.55-.26,2.64,2.64,0,0,0,2.09,1A5.36,5.36,0,0,0,94.19,98a2.35,2.35,0,0,0,2.4,1.92,3.42,3.42,0,0,0,2.47-.84,3.18,3.18,0,0,0,1-2.32,16.41,16.41,0,0,0-.16-2.06c-.1-1-.14-2.92-.14-5.78v-.54a3.52,3.52,0,0,0,1.34.25h.21c0,.69,0,1.46,0,2.31,0,3.58-.29,5.14-.53,5.81l-.24.66.36.61c1,1.58,2.09,2.39,3.38,2.39A3,3,0,0,0,107,98.88a2.47,2.47,0,0,0,2.29,1.56c1.24,0,2.45-.69,3.7-2.1l0,0a5.7,5.7,0,0,0,1.44-2.8h.68A7.9,7.9,0,0,0,116.91,99l.08.09a3.69,3.69,0,0,0,2.69,1.46,3.13,3.13,0,0,0,2.34-1l.09-.1a7,7,0,0,0,1.22-2.85l.14-.63a4.61,4.61,0,0,0,.47-.67,2.44,2.44,0,0,0,1.13.64,6.4,6.4,0,0,0-.08,1c0,3,2.08,3.16,2.5,3.16a6.36,6.36,0,0,0,4.21-2,8.77,8.77,0,0,0,.9-1,3.53,3.53,0,0,0,.89,2.08,3.48,3.48,0,0,0,2.48,1,3,3,0,0,0,2.76-1.81,6.32,6.32,0,0,0,.5-1.41,13.6,13.6,0,0,0,1.37,1.78l.1.1a4.21,4.21,0,0,0,2.85,1.34,3.07,3.07,0,0,0,2.27-1l.08-.1a6.69,6.69,0,0,0,1.21-2.79l.18-.84a3.18,3.18,0,0,0,1-1.16c.09-.15.15-.3.23-.45a27.38,27.38,0,0,1,.38,3.56l0,.15A2.09,2.09,0,0,0,151,99.48a11.49,11.49,0,0,0,1.52-.17l.11,0a9.3,9.3,0,0,1,2-.14c1.65,0,2.86,0,3.6,0a8.39,8.39,0,0,0,1.35.16,1.8,1.8,0,0,0,1.48-.78,2.49,2.49,0,0,0,.75,1.06,3.12,3.12,0,0,0,2.06.68,2.84,2.84,0,0,0,2.2-.82l0,0a3.11,3.11,0,0,0,.74-2V95.52a2.9,2.9,0,0,0,.6.07,4.44,4.44,0,0,0,3.38-1.52l.07-.08a5.59,5.59,0,0,0,1.24-3.53,8.52,8.52,0,0,0-.62-3.14Z" style="fill: #fff"/>
          <g>
            <path d="M11.42,85a2,2,0,0,0-1.46.46,1.2,1.2,0,0,0-.22.42V84a.39.39,0,0,1,.28-.42c.75-.1,1.92-.17,3.53-.21a1.8,1.8,0,0,0-.42,1.23V85Zm1.79-5.77a1.72,1.72,0,0,1,.51.93,3.62,3.62,0,0,1-.1.72c-4,0-6.17.08-6.62.18s-.66.27-.66.63a7.89,7.89,0,0,0,.2,1.15,20.19,20.19,0,0,1,.21,3.13,16.31,16.31,0,0,1-.59,5.27q-.59,1.53-1.23,1.53a.33.33,0,0,1-.3-.12,6.43,6.43,0,0,0-.49,2.59c0,1.08.37,1.61,1.1,1.61a3.47,3.47,0,0,0,3.09-2.19,5.58,5.58,0,0,0,.38-.81,7.45,7.45,0,0,0-.17,1.71c0,1.11.37,1.65,1.09,1.65.41,0,.84-.32,1.28-1a10.51,10.51,0,0,0,1.2-3.39,14.5,14.5,0,0,0,.41-3.25c0-.78-.26-1.17-.79-1.17s-.72.27-.89.81A14.4,14.4,0,0,1,10.2,92q-.33.9-.57.9a.66.66,0,0,1-.5-.21l-.08.15a18.9,18.9,0,0,0,.69-5.48v-.18a1,1,0,0,0,.12.3,1,1,0,0,0,.87.47,3.54,3.54,0,0,0,1.16-.29,9.87,9.87,0,0,1,1.22-.12L13,95.64c0,1.29.15,2.09.46,2.34a1.53,1.53,0,0,0,1.12.49,1.24,1.24,0,0,0,1.16-.81,5.09,5.09,0,0,0,.45-2.35v-4c.6.84,1,1.26,1.1,1.26.86,0,1.28-.51,1.28-1.54a3.26,3.26,0,0,0-.92-1.59q-.84-1-1.17-1a.68.68,0,0,0-.29.06v-1h1.21a.84.84,0,0,0,.74-.3,1.34,1.34,0,0,0,.36-1q0-1-.51-1.17a17.28,17.28,0,0,0-1.8-.1v-.39a1.74,1.74,0,0,0-.48-1.29H18.4c1,0,2.24,0,3.68.12a1.82,1.82,0,0,0-.36,1.17v.24H20.11a1.52,1.52,0,0,0-1.23.43,1.7,1.7,0,0,0-.28,1,1.43,1.43,0,0,0,.23.87,1,1,0,0,0,.8.42,6.22,6.22,0,0,0,1.22-.18l.84,0-.07,8.18c0,1.37.15,2.18.46,2.44a1.51,1.51,0,0,0,1.12.52,1.23,1.23,0,0,0,1.15-.81,5,5,0,0,0,.46-2.35l.08-8H26.8a.81.81,0,0,0,.69-.27,1.57,1.57,0,0,0,.31-1c0-.58-.17-.93-.51-1.06a16,16,0,0,0-2.38-.09v-.15a1.88,1.88,0,0,0-.33-1.14q1.16.09,1.71.09c.38,0,.63-.25.77-.75a3.83,3.83,0,0,0,.15-1q0-.72-.33-.81c-2.32-.16-5-.24-7.95-.24a3,3,0,0,0,.18-.93.83.83,0,0,0-.53-.75,5.77,5.77,0,0,0-2.26-.3A15.46,15.46,0,0,0,13.21,79.18Zm6.21,9.87a19.72,19.72,0,0,1-.69,3.49c-.24.74-.44,1.11-.61,1.11a.5.5,0,0,1-.41-.24A4.83,4.83,0,0,0,17.12,96c0,1,.33,1.54,1,1.54q.66,0,1.35-1a11.32,11.32,0,0,0,1.28-3.61,15.42,15.42,0,0,0,.46-3.46c0-.78-.27-1.17-.79-1.17A1,1,0,0,0,19.42,89.05Zm6-.75a1.33,1.33,0,0,0-.28.87,42.6,42.6,0,0,0,.43,6.65c.16.9.32,1.34.49,1.34,1.07,0,2-.85,2.68-2.57a7.12,7.12,0,0,1-1.14-2.41,12.55,12.55,0,0,1-.54-3.34c0-.56-.4-.86-1.1-.86A.66.66,0,0,0,25.47,88.3Z" style="fill: #b60014"/>
            <path d="M36.76,95.25l3.83-.06v.6c-1.44,0-2.72.09-3.86.2C36.75,95.75,36.76,95.51,36.76,95.25Zm-1.92-15a7,7,0,0,1-2.35.87q-.72,0-.72-.48a3.32,3.32,0,0,0-1.59,2.83c0,.62.41.93,1.21.93a5,5,0,0,0,3.06-1.5c1.08-1,1.61-1.7,1.61-2.14a.61.61,0,0,0-.69-.69A1.4,1.4,0,0,0,34.84,80.2Zm4.29-.9a1.55,1.55,0,0,0-.46,1.17l.08,4a17.47,17.47,0,0,1-7.16,1.66c-.86,0-1.3-.2-1.3-.6a2.37,2.37,0,0,0-1.35,1,3.68,3.68,0,0,0-.57,1.81q0,1.29,1.71,1.29a13.87,13.87,0,0,0,3.25-.42c0,.8.05,2,.05,3.61a11,11,0,0,1-.51,4.08c.63,1.12,1.3,1.67,2,1.67A1.79,1.79,0,0,0,36,98.25a35.76,35.76,0,0,1,5.8-.39,21,21,0,0,1,6,.73,5.34,5.34,0,0,0,1.48.36c.66,0,1.1-.87,1.3-2.6A38.06,38.06,0,0,0,44,95.79l0-.6h1.28q.39,0,1.53.12a7.24,7.24,0,0,0,1.05.08.6.6,0,0,0,.59-.39,2.83,2.83,0,0,0,.23-1.11c0-.4-.11-.63-.31-.66a5.32,5.32,0,0,0-1.4-.18c-1,0-2,0-2.94,0v-.6h1.35q.39,0,1.53.12a5.71,5.71,0,0,0,1.06.12.61.61,0,0,0,.58-.42,2.87,2.87,0,0,0,.23-1.11c0-.41-.1-.63-.3-.67a5.62,5.62,0,0,0-1.41-.18c-1,0-2.06,0-3,0v-.72h2.13c.27,0,.8,0,1.61.12a5.55,5.55,0,0,0,1.07.12.61.61,0,0,0,.59-.42,2.87,2.87,0,0,0,.23-1.11c0-.45-.11-.7-.31-.76a5.37,5.37,0,0,0-1.4-.18H44a1.85,1.85,0,0,0,.57-1.29,1.77,1.77,0,0,0-.33-1,1,1,0,0,0-.85-.4,20.06,20.06,0,0,0,3.19-2.52,32.79,32.79,0,0,1,2,2.86c.21.32.4.48.56.48a2.13,2.13,0,0,0,1.67-.79,5.63,5.63,0,0,0,1.15-3,25.45,25.45,0,0,1-5-2.28,1.55,1.55,0,0,0-.66-.3q-.84,0-.9,1.17l-.2.15A34.42,34.42,0,0,1,42,82.73l.2-2.26a1.41,1.41,0,0,0-.54-1.23,2.09,2.09,0,0,0-1.28-.39A1.62,1.62,0,0,0,39.13,79.3ZM36.78,93.2v-.66l3.83-.06v.63C39.16,93.13,37.88,93.16,36.78,93.2Zm0-2.72v-.77c1.18,0,2.49,0,3.9,0l0,.72C39.17,90.42,37.88,90.45,36.76,90.48Zm4.75-4.62A16.73,16.73,0,0,0,41,87.45l-2.76.06C39.27,87,40.36,86.48,41.51,85.86Z" style="fill: #b60014"/>
            <path d="M67.19,89.77l.87-.66c.69.44,1.36.86,2,1.26-.76,0-1.64,0-2.62,0-.44,0-.83,0-1.21,0C66.56,90.19,66.87,90,67.19,89.77ZM52.45,83.18A2.36,2.36,0,0,0,52,84.83c0,1,.39,1.42,1.17,1.42a1.72,1.72,0,0,0,.59-.21,5.16,5.16,0,0,1,1.79-.45v2a8.66,8.66,0,0,1-1.25,1.36,2.36,2.36,0,0,1-1.31.63q-.3,0-.3-.24a3.83,3.83,0,0,0-1,2.83,2.63,2.63,0,0,0,.21,1.2.93.93,0,0,0,.79.33,2.77,2.77,0,0,0,1.76-.84,5.62,5.62,0,0,0,1-1.3l0,3.88c0,1.47.16,2.36.51,2.66a1.82,1.82,0,0,0,1.3.54,1.38,1.38,0,0,0,1.28-.9,5.72,5.72,0,0,0,.51-2.63l0-4.51a4.44,4.44,0,0,0,1.18.39h.1c0,.87.49,1.3,1.48,1.3l.31,0q.07.27.15.63a25.93,25.93,0,0,1,.62,5c.08.51.3.76.63.76A9,9,0,0,0,65,98.34a10,10,0,0,1,2.51-.23c1.88,0,3.22,0,4,.09a9.1,9.1,0,0,0,1.25.14c.31,0,.5-.31.57-1,.29-2.32.56-4,.81-5.08a2.65,2.65,0,0,0,1.1-1A5.06,5.06,0,0,0,76,88.72a33.74,33.74,0,0,1-5.29-2,34.31,34.31,0,0,0,3.4-4.18,1.9,1.9,0,0,0,.41-1.06A.76.76,0,0,0,74,80.8a14.78,14.78,0,0,0-2.91-.21,16.07,16.07,0,0,0-1.81.09c0-.68-.33-1-.9-1a1,1,0,0,0-.66.42,14.75,14.75,0,0,1-3.12,2.68,4.17,4.17,0,0,1-1.81.66,1.16,1.16,0,0,1-.59-.12,3.15,3.15,0,0,0-.79,2.11c0,.78.36,1.17,1.1,1.17a3.47,3.47,0,0,0,1.1-.21q.84.54,1.68,1a5,5,0,0,1-2.3.82c-.53,0-.79-.2-.79-.58a6.62,6.62,0,0,0-1.18,1.27,7.08,7.08,0,0,0-.89-.78,5.51,5.51,0,0,0-1.07-.73l0-1.68a6.71,6.71,0,0,0,1.13.15,1,1,0,0,0,1-.72,5.25,5.25,0,0,0,.41-2c0-.26-.15-.41-.46-.45a19,19,0,0,0-2.07-.21l0-1.57a2.06,2.06,0,0,0-.66-1.65,2,2,0,0,0-1.23-.36,1.63,1.63,0,0,0-1.23.48,2.11,2.11,0,0,0-.48,1.41v1.69C53.74,82.6,52.71,82.82,52.45,83.18Zm15.31.33a20.48,20.48,0,0,1,2.07-.09,9.87,9.87,0,0,1-1.79,2l-1.43-.82A15.15,15.15,0,0,0,67.76,83.51ZM65.84,94.59v-1.3c0-.16.1-.24.28-.24h4c.19,0,.29.08.29.24l0,1.3c0,.47-.08.72-.14.72H66.12C66,95.31,65.88,95.06,65.84,94.59Z" style="fill: #b60014"/>
            <path d="M82,83.42a16,16,0,0,1,1.92.12l0,.36q0,.21-.3.21h-3v-.63C81,83.44,81.5,83.42,82,83.42ZM75.33,95.51a3.19,3.19,0,0,0,.49,1.75,1.4,1.4,0,0,0,1.1.6c.83,0,1.64-1.07,2.42-3.18A27,27,0,0,0,80.62,86h1.84c1.29,0,2.26,0,2.89.06l1.15.06c.34,0,.5-.2.5-.6.14-2.53.26-4.2.34-5a3,3,0,0,0,.15-.75.34.34,0,0,0-.33-.36,9.86,9.86,0,0,0-1.87-.12H80.52a4.85,4.85,0,0,1-.87-.09,3.31,3.31,0,0,0-1-.15,1.2,1.2,0,0,0-1,.33,1.16,1.16,0,0,0-.33.72c0,.46,0,1.49.11,3.1v3.55a18.38,18.38,0,0,1-.56,5.3c-.36,1.14-.68,1.71-1,1.71s-.22-.08-.31-.24A9.32,9.32,0,0,0,75.33,95.51ZM81,81.07h2.5c.41,0,.62.11.62.33l-.05.51a14,14,0,0,0-2-.15c-.52,0-1,0-1.4.06V81.4C80.62,81.18,80.74,81.07,81,81.07Zm7.26-1.68a.25.25,0,0,0-.26.27c0,.12,0,.33,0,.6a8,8,0,0,1,.06.93v4.46c0,.32.13.48.41.48L90.33,86c.9,0,2.06,0,3.47,0h1.61c0,.78,0,1.47,0,2.08l-.9-.07V87.3a.91.91,0,0,0-.41-.81,1.62,1.62,0,0,0-.79-.24,1.44,1.44,0,0,0-.86.27,1.48,1.48,0,0,0-.34,1V88c-1.63,0-2.62.22-3,.56a1.68,1.68,0,0,0-.33,1.23c0,.7.29,1,.79,1a1.54,1.54,0,0,0,.53-.18,3.8,3.8,0,0,1,1.53-.3l.44,0v2.8a1.59,1.59,0,0,1-.56,1.26,4,4,0,0,1-2.43.63,4.19,4.19,0,0,0,.51,2.22,1.17,1.17,0,0,0,1,.58,3.87,3.87,0,0,0,2.78-1.11,4.33,4.33,0,0,0,1.1-3.22V90.46h.31a.64.64,0,0,0,.59-.42c0,3.76.09,6.28.23,7.52a.89.89,0,0,0,1,.91A2,2,0,0,0,98,98.05a1.7,1.7,0,0,0,.56-1.25,15.71,15.71,0,0,0-.15-1.89q-.17-1.53-.16-6a43.28,43.28,0,0,1,.44-8.16,3.48,3.48,0,0,0,.18-.9c0-.24-.21-.39-.62-.45a48.68,48.68,0,0,0-4.93-.15H89.79A9.22,9.22,0,0,0,88.26,79.39Zm3,4.6v-.42c.61,0,1.34,0,2.2,0,.61,0,1.25,0,1.94.06v.63H91.7C91.43,84.23,91.3,84.15,91.3,84Zm.3-2.92h3.58c.21,0,.31.08.31.24V82a19.08,19.08,0,0,0-2-.1c-.86,0-1.59,0-2.2,0v-.6Q91.3,81.07,91.6,81.07ZM81,86.94a1.41,1.41,0,0,0-.23.81,1.49,1.49,0,0,0,.18.82.69.69,0,0,0,.62.39,4.9,4.9,0,0,0,1.09-.18q1.08-.06,2.58-.06H87.9a.61.61,0,0,0,.56-.24,1.35,1.35,0,0,0,.23-.82c0-.46-.13-.74-.38-.84A38.15,38.15,0,0,0,82,86.58,1.37,1.37,0,0,0,81,86.94Zm.39,2.53q-.72.15-.72.54a3.66,3.66,0,0,0,.18.78,12.62,12.62,0,0,1,.46,3c0,.3.2.45.46.45h.13l.23,1.24c-1.13.13-1.82.24-2.07.29a1.75,1.75,0,0,0-.59,1.41,1,1,0,0,0,.36.79,1,1,0,0,0,.74.39,1.87,1.87,0,0,0,.4-.09,22,22,0,0,1,2.41-.47c1.07-.18,2.46-.39,4.16-.62a1.27,1.27,0,0,0,.69-.54,2.32,2.32,0,0,0,.23-1.23c0-.38-.1-.56-.3-.56a8,8,0,0,0-.9.06l-.33,0,.22-.84.39,0c.24,0,.39-.19.46-.57a26,26,0,0,1,.66-3.19,1.78,1.78,0,0,0,.08-.45q0-.27-.51-.45a29.33,29.33,0,0,0-3.83-.15A17.5,17.5,0,0,0,81.34,89.47Zm3,4.54H85l-.15,1.11-.9.13L83.89,94Zm-.82-2.16,0-.66c0-.17.11-.25.31-.25H85.5c.13,0,.2.08.2.25l0,.66q0,.39-.15.39H83.71Q83.56,92.24,83.53,91.85Zm7-.36a2.4,2.4,0,0,1-1.43.63c-.23,0-.37,0-.41-.12a2.62,2.62,0,0,0-.28,1.41c0,.78.23,1.18.69,1.18s1-.38,1.66-1.12a2.68,2.68,0,0,0,.74-1.59q0-.57-.51-.57A1.09,1.09,0,0,0,90.53,91.49Z" style="fill: #b60014"/>
            <path d="M112.5,88.12l0-.73a16.07,16.07,0,0,1,2.8-.21,14,14,0,0,1,2.82.3l0,.5c0,.18-.15.26-.38.26-.89-.08-1.62-.12-2.2-.12a13.53,13.53,0,0,0-2.81.24Q112.5,88.36,112.5,88.12Zm-6-8.79a12,12,0,0,1-2.63,2.52,4.15,4.15,0,0,1-2.3,1c-.43,0-.7-.11-.82-.33a6.56,6.56,0,0,0-1.1,3.28c0,.94.5,1.41,1.51,1.41a3.77,3.77,0,0,0,1.68-.51c0,1.08,0,2.52,0,4.3a21.42,21.42,0,0,1-.62,6.31c.67,1.12,1.37,1.67,2.1,1.67s1.41-.51,1.66-1.5a23.22,23.22,0,0,0,.33-4.94c0-4,0-6.87-.05-8.7a12.41,12.41,0,0,0,1.1-1.44,5.52,5.52,0,0,0,1-2.26c0-.84-.37-1.26-1.1-1.26A1.13,1.13,0,0,0,106.45,79.33Zm3.31.06a.76.76,0,0,0-.76.84c0,.16,0,.5,0,1a82.88,82.88,0,0,1,.64,8.64c0,.86.45,1.3,1.2,1.3a2.64,2.64,0,0,0,.74-.25,12.5,12.5,0,0,1,4.06-.48,11.75,11.75,0,0,1,3.22.29,4,4,0,0,0,.88.19q.85,0,1-1l.54-6.5c.12-1.14.23-2,.35-2.62a2.26,2.26,0,0,0,.21-.75q0-.39-.54-.54a31.9,31.9,0,0,0-5.9-.3A42.36,42.36,0,0,0,109.76,79.39Zm5.52,5a26,26,0,0,1,3,.18l0,1a13.21,13.21,0,0,0-2.92-.33,14.91,14.91,0,0,0-2.88.24l0-.88A19.86,19.86,0,0,1,115.28,84.35Zm-1.7-2.83h3.21q1.59,0,1.59.24l0,.76c-1-.1-2.06-.15-3.07-.15a21.51,21.51,0,0,0-3,.18v-.67Q112.29,81.52,113.58,81.52Zm-6,10.6a1.38,1.38,0,0,0-1,1.53,1.49,1.49,0,0,0,.33.9,1,1,0,0,0,.77.51,4,4,0,0,0,1.22-.27,23,23,0,0,1,6.16-.78,16.79,16.79,0,0,1,5.37.94,3.91,3.91,0,0,0,1.22.36c.37,0,.72-.3,1-.88a6.1,6.1,0,0,0,.67-2.55,57.65,57.65,0,0,0-7.77-.69A27.37,27.37,0,0,0,107.6,92.12Zm4.11,2.56a5.59,5.59,0,0,1-2.5.71c-.31,0-.48-.07-.52-.2a3,3,0,0,0-.51,2c0,1.2.37,1.79,1.1,1.79a5,5,0,0,0,3.7-3.89c0-.39-.16-.59-.48-.59A2.26,2.26,0,0,0,111.71,94.68Zm4.88.38a5.85,5.85,0,0,0,1.51,3,2.31,2.31,0,0,0,1.58,1,1.64,1.64,0,0,0,1.25-.58,5.7,5.7,0,0,0,.95-2.25A15.2,15.2,0,0,1,118.43,95a3.62,3.62,0,0,0-1.46-.41C116.72,94.59,116.59,94.75,116.59,95.06Z" style="fill: #b60014"/>
            <path d="M134.05,86.94l0-1a17.94,17.94,0,0,1,1.94-.09,13.08,13.08,0,0,1,1.94.15l0,.78a.38.38,0,0,1-.41.36,12,12,0,0,0-1.69-.12,4.34,4.34,0,0,0-1.4.24C134.15,87.3,134.05,87.18,134.05,86.94Zm-.9-8.22a1.53,1.53,0,0,1,.42.82.94.94,0,0,1-.21.45,20.53,20.53,0,0,0-2.53.42.83.83,0,0,0-.56.9L131,88.6c.08.86.36,1.29.82,1.29a1.43,1.43,0,0,0,.41-.18,12,12,0,0,1,2.57-.27.65.65,0,0,0-.18.15,2.44,2.44,0,0,0-.46.89,41.43,41.43,0,0,0-8.65,1,1.44,1.44,0,0,0-1.1,1.62,1.37,1.37,0,0,0,.38.9,1.11,1.11,0,0,0,.82.52,6.78,6.78,0,0,0,1.68-.34A33.62,33.62,0,0,1,134,93.2l-.06,2c0,1.59.19,2.58.56,2.92a2,2,0,0,0,1.44.6,1.54,1.54,0,0,0,1.43-1,6.24,6.24,0,0,0,.56-2.88V93.26a41.08,41.08,0,0,1,6.1.78,10.5,10.5,0,0,0,2,.31c.36,0,.68-.27,1-.79a5,5,0,0,0,.64-2.25c-3.87-.45-7.12-.72-9.76-.83a2.08,2.08,0,0,0-.61-1q1.42.06,2.25.18a2.1,2.1,0,0,0,.53.15c.5,0,.76-.31.79-.93.33-4,.63-6.58.9-7.89a.56.56,0,0,0-.51-.57,11.32,11.32,0,0,0-2.71-.39,1.08,1.08,0,0,0,.23-.57.85.85,0,0,0-.54-.76,5.08,5.08,0,0,0-2.14-.3A12.6,12.6,0,0,0,133.15,78.72Zm.95,3.89a4.09,4.09,0,0,1,1.41-.24,11.12,11.12,0,0,1,2.4.18c.17.06.25.15.25.27l-.07.87a15.33,15.33,0,0,0-2.12-.15q-1.18,0-2.07.09l0-.81C133.87,82.72,134,82.65,134.1,82.61Zm-8.56-2.08a2.14,2.14,0,0,0-.46,1.35c0,.89.31,1.36.92,1.42a10.67,10.67,0,0,1,1.82.21,2.7,2.7,0,0,0,.76.15c.74,0,1.1-.39,1.1-1.17,0-.22-.52-.76-1.56-1.63a2.84,2.84,0,0,0-1.56-.84A1.55,1.55,0,0,0,125.54,80.53Zm3.17,4.67A4.47,4.47,0,0,1,126,86.46q-.44,0-.51-.21a3.06,3.06,0,0,0-.49,2c0,1.1.33,1.65,1,1.65a4.21,4.21,0,0,0,2.86-1.77,4.39,4.39,0,0,0,1.22-2.59c0-.46-.16-.7-.48-.7A1.9,1.9,0,0,0,128.71,85.2Zm15.53-4.58c-1.32,1.06-2,1.73-2,2,0,.7.37,1,1.1,1a9.79,9.79,0,0,0,2.71-.45,1.44,1.44,0,0,0,.79-1.45,2.15,2.15,0,0,0-.4-1.29,1.12,1.12,0,0,0-.9-.45A2.08,2.08,0,0,0,144.24,80.62ZM142,85.17a7.41,7.41,0,0,0,1.46,3.52c.56.72,1.08,1.08,1.54,1.08a1.51,1.51,0,0,0,1.09-.48,5.47,5.47,0,0,0,.82-2,11.15,11.15,0,0,1-3.17-2,2.48,2.48,0,0,0-1.33-.64C142.18,84.71,142,84.86,142,85.17Zm-11.39,9.3a7.91,7.91,0,0,1-3.27.84c-.24,0-.38-.08-.41-.25a2.92,2.92,0,0,0-.49,1.86c0,1.12.34,1.67,1,1.67A5.06,5.06,0,0,0,130.68,97a3.51,3.51,0,0,0,1.38-2.27c0-.32-.13-.49-.39-.49A3.3,3.3,0,0,0,130.65,94.47Zm9.3.24c0,.72.59,1.73,1.77,3.07a2.82,2.82,0,0,0,1.83.93,1.57,1.57,0,0,0,1.18-.55,5.11,5.11,0,0,0,.92-2.17,16.23,16.23,0,0,1-3.73-1.31,4.06,4.06,0,0,0-1.56-.46C140.09,94.22,140,94.39,140,94.71Z" style="fill: #b60014"/>
            <path d="M155.76,83.66a8.09,8.09,0,0,1,1.17.09l-.49,2.38h-1.73l-.46-2.41C154.72,83.68,155.23,83.66,155.76,83.66Zm-3.4-4.24a1.48,1.48,0,0,1,.4.81,4.57,4.57,0,0,1-.12.81,6.91,6.91,0,0,0-3,.6,1.59,1.59,0,0,0-.79,1.42,1.77,1.77,0,0,0,.34,1.11,1.13,1.13,0,0,0,.86.42,7,7,0,0,0,1.23-.27l.08,0,.69,1.93a7.19,7.19,0,0,0-3.3.72,1.54,1.54,0,0,0-.82,1.42,1.8,1.8,0,0,0,.36,1.11,1.14,1.14,0,0,0,.85.42,7.86,7.86,0,0,0,1.38-.3,14,14,0,0,1,4.92-.75,12.86,12.86,0,0,1,3.78.66,7.15,7.15,0,0,0,1.51.27,1,1,0,0,0,.8-.42,5.1,5.1,0,0,0,.58-2.53q-1.6-.3-3.12-.48l.75-1.93a3.56,3.56,0,0,0,.58.06,1,1,0,0,0,.82-.42,5.4,5.4,0,0,0,.59-2.53,35.91,35.91,0,0,0-4.14-.51,5.38,5.38,0,0,0,.13-1,.7.7,0,0,0-.51-.66,4.79,4.79,0,0,0-2.07-.3A11.71,11.71,0,0,0,152.36,79.42ZM150.55,90.7c-.65.18-1,.45-1,.81a6.83,6.83,0,0,0,.23,1.24,25,25,0,0,1,.59,4.58c.07.44.27.65.59.65a11.62,11.62,0,0,0,1.3-.15,11.46,11.46,0,0,1,2.33-.17c1.77,0,3,0,3.78,0a6,6,0,0,0,1.17.15c.26,0,.42-.3.49-.9a42.06,42.06,0,0,1,.71-4.84,2.67,2.67,0,0,0,.1-.69c0-.31-.25-.54-.76-.7a33.79,33.79,0,0,0-5.49-.27A23.68,23.68,0,0,0,150.55,90.7Zm2.63,3.68V93.17c0-.16.09-.24.28-.24h3.6c.13,0,.2.08.2.24l0,1.21c0,.46-.08.68-.15.68h-3.71C153.25,95.06,153.19,94.84,153.18,94.38Zm9.09-14.15a1.92,1.92,0,0,0-.41,1.17,1.48,1.48,0,0,0,.41,1.06l.08.09V97.41a1.33,1.33,0,0,0,.38,1.08,1.68,1.68,0,0,0,1.12.34,1.42,1.42,0,0,0,1.1-.34,1.55,1.55,0,0,0,.38-1.08V82.79q1.26-.09,1.71-.09.21,0,.21.24l-1.17,3a2.56,2.56,0,0,0-.23,1,.75.75,0,0,0,.33.57,2.37,2.37,0,0,1,1.36,2.26c0,.9-.71,1.42-2.1,1.54.53,1.86,1.19,2.79,2,2.79a3,3,0,0,0,2.28-1,4.15,4.15,0,0,0,.92-2.62,6.88,6.88,0,0,0-.52-2.59A6,6,0,0,0,168.63,86a17,17,0,0,1,1.15-2.53,6.06,6.06,0,0,1,1.1-1.66,1.82,1.82,0,0,0,.56-1.11.69.69,0,0,0-.48-.66,10.77,10.77,0,0,0-3-.27h-4.65A1.29,1.29,0,0,0,162.27,80.23Z" style="fill: #b60014"/>
          </g>
        </g>
      </g>
    </g>
  </g>
</svg>
