<svg height="135.4" viewBox="0 0 124.77 135.4" width="124.77" xmlns="http://www.w3.org/2000/svg"><path d="m62.38 118.37-56-56 56-56 56 56zm-47.8-56 47.8 47.83 47.8-47.8-47.8-47.8z" fill="#d61718"/><path d="m16.98 11.8h34.57v44.94h-34.57z" fill="#231815" transform="matrix(.70710678 -.70710678 .70710678 .70710678 -14.19 34.27)"/><path d="m29.36 44.73a31.22 31.22 0 0 0 -5.45-8.53c-.41-.41-.85-.8-1.31-1.18l-1.77.18a.49.49 0 0 1 -.33-.07c-.31-.3.74-1.92.83-2a5.8 5.8 0 0 1 1.94-.93c1.09-4 2.69-8.06 5.63-11 1.44-1.44 3.87-1.59 4.48-1a.71.71 0 0 1 .11.55c-.16 2 1.39 3.67 2.79 5.06a22.87 22.87 0 0 0 11 6.51 17.54 17.54 0 0 0 -3-3.54c-1.27-1.27-2.54-2.49-3.85-3.71v-.07a.07.07 0 0 1 .09 0 49.74 49.74 0 0 0 5.17 3.3 21.68 21.68 0 0 1 4.78 3.08c1.75 1.74 1.79 3.36 1.47 3.69 0 0-5.46 4.45-19.54-9.63-.7-.7-1.31-1.31-1.77-1.81a5.27 5.27 0 0 0 -1.7 1.26 19.42 19.42 0 0 0 -4.5 8.33c2.84 3.5 6.53 8.89 8.12 13.06a7 7 0 0 1 .52 4.27 2 2 0 0 1 -2-.34c-1.48-1.49-2.55-5-4.28-7.08a.06.06 0 0 1 0-.08h.09zm3.56-5a5.3 5.3 0 0 1 .26 1.18.33.33 0 0 1 -.11.28c-.3.31-1.63.07-3.07-1.37a18.42 18.42 0 0 1 -1.45-1.71.14.14 0 0 1 0-.19.21.21 0 0 1 .15-.07h1a12.65 12.65 0 0 1 .67-3.65 1.38 1.38 0 0 0 -1.16 0 .32.32 0 0 1 -.3 0s-.07-.06-.07-.1l-.15-1.1c-.81.76-2.42 1.68-2.71 1.39a.28.28 0 0 1 0-.28 12.75 12.75 0 0 0 1.12-2.73c.37-1.37.43-2.75 1.46-3.78.55-.54 2.23-1.79 3-1s-.7 2.57-1.07 3.21a6.41 6.41 0 0 0 -1 2.94l.15-.15a2.65 2.65 0 0 1 1.92-1l1.18-1.92a1.34 1.34 0 0 1 .26-.28 2.57 2.57 0 0 1 .37-.28 2.81 2.81 0 0 1 2.88.13.54.54 0 0 1 .17.48 17.56 17.56 0 0 0 -.61 2.88 4 4 0 0 1 1.09 0 .51.51 0 0 1 .33.15.32.32 0 0 1 .13.22c.11.77-.52 1.66-.78 2.32a5.49 5.49 0 0 1 6.79.41c1 1 .93 1.86.74 2a.68.68 0 0 1 -.33.16c-1.62.35-3.43-.68-4.89-1.23a43.73 43.73 0 0 0 -1 4.54 27 27 0 0 1 -1.51 5.35.25.25 0 0 1 -.26.09 8.6 8.6 0 0 1 -1.3-.52 2 2 0 0 1 -.31-.27 1.48 1.48 0 0 1 -.26-.3l-.3-.5a.74.74 0 0 1 0-.68c1.07-1.68 1.93-4.19.53-5.85zm-1.07-4.39a8.56 8.56 0 0 0 -1 2.69l1.77 1.24.63-2.51zm6.2 1a4.15 4.15 0 0 0 -1.92-.65l-.5.85.83 1.92zm-5.2-3 1.15 1.06a11.34 11.34 0 0 0 -.1-2.73z" fill="#fff"/><path d="m68.02 16.99h44.94v34.57h-44.94z" fill="#231815" transform="matrix(.70710678 -.70710678 .70710678 .70710678 2.27 74.03)"/><path d="m87.72 45.65c-1 1-3.62 1.79-4.3 1.11a.53.53 0 0 1 -.13-.31c-.18-2.62 1.94-6.09 2.77-8.49-3.17.85-5.22.72-5.59.35-.06-.07-.11-.11-.09-.22a2.39 2.39 0 0 1 .77-1.85 10.47 10.47 0 0 1 3.43-1.69l.1.07a6.59 6.59 0 0 0 -.74.66 12.52 12.52 0 0 0 -1.11 1.2 15 15 0 0 0 4.19-.7l-1.18-1.14s-.07-.11 0-.15.06 0 .11 0l2.94.59 4.35-1.68c-5.79-2.51-9-.44-9.06-.42l-1.73 1.73c-.59.59-1.15 1.15-1.76 1.72-.2.2-.53.39-.75.57-.7.57-1.39 1.26-2.29 1.2a.61.61 0 0 1 -.37-.15c-.54-.55.44-2.14.9-2.6.83-.83 1.83-1.58 2.73-2.34-5.68-.13-6.09-.33-6.25-.48-.3-.31 0-1 .42-1.46a1.9 1.9 0 0 1 1-.61l6.27-1.36a13.31 13.31 0 0 0 2.84-1.2 15.36 15.36 0 0 1 -3-1.77c-.46-.46-1.38-2.29-1.18-2.49a.19.19 0 0 1 .15 0 41.94 41.94 0 0 0 8.54 2.16l2.38-2-.92-1.14a.38.38 0 0 1 0-.43.09.09 0 0 0 .08-.05c.85-.23 2.06-.39 2.67.22 1.29 1.34 1 2.19.78 2.45a1.06 1.06 0 0 1 -.35.18 4.18 4.18 0 0 0 -2.18 1.13 2.91 2.91 0 0 0 -.33.37c.29.24.59.46.85.72a1.34 1.34 0 0 1 .2 1.77.86.86 0 0 1 -.33.2c-1.48.35-3.73-.81-4.76.13l-1.88 1.64c4-.31 8.32-.37 12.12.81l2.77-2.72a2.49 2.49 0 0 0 -.79-1.35c-.15-.16-.33-.29-.46-.42s0-.13 0-.2a.83.83 0 0 1 .22-.08c1.07-.24 2.69-.46 3.43.28a2.66 2.66 0 0 1 .13 3.71 18.65 18.65 0 0 1 -2.91 1.9 4.73 4.73 0 0 1 1.82 1.16l.17.18a2.54 2.54 0 0 1 .5 3.12.61.61 0 0 1 -.54.19c-2.1-.13-3-1.48-4.85-2.09l-3.69 3.6c1.73 2.25 4.67 5.94 3 8.84l-.11.16a.53.53 0 0 1 -.35.17c-1.33.11-3.4-2-4.52-2.64a7.84 7.84 0 0 0 -2.35-.83.08.08 0 0 1 0-.09 6.84 6.84 0 0 0 3.71-.79 5.86 5.86 0 0 0 -1.3-2.78l-4.09 4.43zm-.28-3.65.5-.51.79-.78 1.54-1.55a5.12 5.12 0 0 0 -1-1.4c-.19-.19-.41-.37-.61-.57l-2.09.57c0 1.66-.42 3.34 0 5zm6.81-6.51a10.16 10.16 0 0 0 -3.41 1l1.31 1z" fill="#fff"/><path d="m73.21 68.02h34.57v44.94h-34.57z" fill="#231815" transform="matrix(.70710678 -.70710678 .70710678 .70710678 -37.48 90.49)"/><path d="m91.47 72.29a.15.15 0 0 1 .18 0c-2.56 6.7-.28 15.3 4.71 20.3a.57.57 0 0 1 .11.11c.62.61 1.27 1.18 1.93 1.75a1.93 1.93 0 0 0 1.48-.75l.37-.37a.19.19 0 0 1 .28 0c.4.39 1 3.62-.56 5.28-1 1-2.38 1.29-2.86.81a.5.5 0 0 1 -.11-.22 11.25 11.25 0 0 0 -.4-2 7.29 7.29 0 0 0 -1.22-1.49c-1.42-1.59-2.71-3.4-4-5.08a19.3 19.3 0 0 0 -.65 6.46 5.6 5.6 0 0 0 2 0h.06c.22.22-1.68 2.73-1.7 2.75a1.16 1.16 0 0 1 -.39.26c-1.31.35-2.77 1.72-4 .5a.47.47 0 0 1 -.13-.61c.87-1.22 1.46-3.86 1.9-5.22a21.85 21.85 0 0 1 2.36-4.77c-6.22-2.12-12.51 1.68-18.25 1.74a.29.29 0 0 1 -.13 0c-.24-.24 1.26-2.1 2.53-3.36l.11-.11c1.42-1.42 3.34-2.42 9.71-1.64 1.51.2 3.06.35 4.54.65-1.74-5.37-2.51-10.28 1.86-14.69zm6.73 10.56 1 1.25c.46.23.83.43 1.25.63h.09a.21.21 0 0 1 0 .26 8.61 8.61 0 0 1 -3.19.79 22 22 0 0 0 -.15 3.22v.11a.14.14 0 0 1 0-.09c-.57-2.49-2.34-4.51-2.58-7.16a.26.26 0 0 1 .07-.24c.59-.59 2.94.51 3.47 1z" fill="#fff"/><path d="m11.81 73.2h44.94v34.57h-44.94z" fill="#231815" transform="matrix(.70710678 -.70710678 .70710678 .70710678 -53.94 50.74)"/><path d="m33.41 84.52c-2-2-1.79-2.27-1.63-2.42a3.77 3.77 0 0 1 2.2-.5.92.92 0 0 1 .7.3 33.29 33.29 0 0 0 13.64 7.3c.4.13.92 0 1.2.33s.29.59.2 1.33a4.27 4.27 0 0 1 -.92 2.44c-.06.07-.13.09-.19.16a19.27 19.27 0 0 1 -2.8 1.31c-1.88 1-3.53 3.18-5.65 1.07a11.74 11.74 0 0 1 -3.52-5.7c-1.5 1.33-2.94 2.77-4.34 4.17-1 1-1.92 1.92-2.84 2.92-.17.22-.28.33-.24.64a3.7 3.7 0 0 0 .78 1.52.29.29 0 0 1 -.07.33 3.16 3.16 0 0 1 -2.75 0c-1-1-2-4-1.18-4.8a.65.65 0 0 1 .46-.16 3.61 3.61 0 0 0 2.82-.94c.52-.52 1.09-1.09 1.59-1.63 1.11-1.25 2.25-2.56 3.43-3.74.52-.52 1.11-1 1.66-1.52-.9-.77-1.75-1.53-2.56-2.34m7.6 10.33c1 1 2.18.56 3.08-.33a8.13 8.13 0 0 0 1.67-2.59v-.22a.6.6 0 0 0 -.22-.09 27.73 27.73 0 0 1 -6.14-3 7 7 0 0 0 1.61 6.22m-11-9.43a.14.14 0 0 1 0 .19 2.65 2.65 0 0 1 -2.69-.19 8 8 0 0 1 -1.31-3.69 1.29 1.29 0 0 1 .35-.66.94.94 0 0 1 .75-.22 3.1 3.1 0 0 0 2.18-1.13c.41-.42.78-.92 1.2-1.33 1.05-1 4.56-2.73 5.87-1.42.31.3.22 2.22.29 2.77a13.28 13.28 0 0 0 1.55 3.78.06.06 0 0 1 0 .08.09.09 0 0 1 -.07 0c-.24-.24-.55-.59-.92-1-1.2-1.18-2.89-2.66-3.83-2.44a8.72 8.72 0 0 0 -2.31 1.78 15.49 15.49 0 0 0 -1.8 2.24c-.21.35-.17.44.11.73a4.09 4.09 0 0 0 .64.45z" fill="#fff"/><path d="m38.01 38h48.76v48.76h-48.76z" fill="#d61718" transform="matrix(.70710678 -.70710678 .70710678 .70710678 -25.83 62.38)"/><path d="m41.96 72.2v-19.64h17.7v4.31h-11.47v2.92h8.11v4.26h-8.14v3.89h11.5v4.26z" fill="#fff"/><path d="m83.9 52.56h-7.3l-3.97 5.11-3.97-5.11h-7.3l7.62 9.82-7.62 9.82h7.3l3.97-5.11 3.97 5.11h7.3l-7.62-9.82z" fill="#fff"/><path d="m11.05 130.99v-7.27h6.55v1.6h-4.25v1.08h3.01v1.57h-3.02v1.44h4.26v1.58z" fill="#231815"/><path d="m26.57 123.72h-2.7l-1.47 1.89-1.47-1.89h-2.7l2.82 3.64-2.82 3.63h2.7l1.47-1.89 1.47 1.89h2.7l-2.82-3.63z" fill="#231815"/><path d="m34.42 125.32v1.3h3.23v1.58h-3.23v2.79h-2.29v-7.27h5.75v1.6z" fill="#231815"/><path d="m42.05 123.72v4.6c0 .72.36 1.08 1 1.08s1-.38 1-1.14v-4.54h2.32v4.35c0 2.1-1.49 3.11-3.35 3.11s-3.28-.79-3.28-2.9v-4.56z" fill="#231815"/><path d="m52.74 123.72c1.22 0 2.58.48 2.58 2.33a2 2 0 0 1 -1.49 2l1.78 2.95h-2.61l-1.42-2.56h-.58v2.56h-2.35v-7.27zm-.83 3.21c.49 0 1.11-.07 1.11-.84s-.66-.89-1.11-.89h-.91v1.69z" fill="#231815"/><path d="m57.47 123.72h2.31v7.27h-2.31z" fill="#231815"/><path d="m66.83 130.99-2.4-4.17v4.17h-2.14v-7.27h2.43l2.44 4.12v-4.12h2.15v7.27z" fill="#231815"/><path d="m76.75 130.99-1.6-2.9-1.08 1.18v1.72h-2.3v-7.27h2.3v2.75l2.28-2.75h2.81l-2.53 2.76 2.71 4.51z" fill="#231815"/><path d="m85.91 131-.32-1h-2.53l-.32 1h-2.47l2.78-7.27h2.62l2.71 7.27zm-1.56-5.2-.79 2.56h1.56z" fill="#231815"/><path d="m92.53 129.22h3.66v1.77h-6.71v-1.45l3.73-4.08h-3.51v-1.74h6.49v1.48z" fill="#231815"/><path d="m102.91 131-.32-1h-2.59l-.32 1h-2.46l2.78-7.27h2.62l2.71 7.27zm-1.56-5.2-.79 2.56h1.56z" fill="#231815"/><path d="m102.34 119.36h-2.77l25.2-25.2-16-16 15.78-15.77-15.78-15.78 16-16-30.61-30.61-16 16-15.78-15.8-15.77 15.8-16-16-30.61 30.61 16 16-15.77 15.77 15.77 15.82-16 16 25.2 25.2h-18.51v16h111.39v-16h-15.74zm-49.6 0h-16.74l10.59-10.6 10.6 10.6zm20.93 0h-6.11l10.59-10.6 10.6 10.6z" fill="#fff"/><path d="m111.24 130.99-2.4-4.17v4.17h-2.14v-7.27h2.44l2.43 4.12v-4.12h2.15v7.27z" fill="#231815"/><path d="m62.38 118.37-56-56 56-56 56 56zm-47.8-56 47.8 47.83 47.8-47.8-47.8-47.8z" fill="#d61718"/><path d="m16.98 11.8h34.57v44.94h-34.57z" fill="#231815" transform="matrix(.70710678 -.70710678 .70710678 .70710678 -14.19 34.27)"/><path d="m29.36 44.73a31.22 31.22 0 0 0 -5.45-8.53c-.41-.41-.85-.8-1.31-1.18l-1.77.18a.49.49 0 0 1 -.33-.07c-.31-.3.74-1.92.83-2a5.8 5.8 0 0 1 1.94-.93c1.09-4 2.69-8.06 5.63-11 1.44-1.44 3.87-1.59 4.48-1a.71.71 0 0 1 .11.55c-.16 2 1.39 3.67 2.79 5.06a22.87 22.87 0 0 0 11 6.51 17.54 17.54 0 0 0 -3-3.54c-1.27-1.27-2.54-2.49-3.85-3.71v-.07a.07.07 0 0 1 .09 0 49.74 49.74 0 0 0 5.17 3.3 21.68 21.68 0 0 1 4.78 3.08c1.75 1.74 1.79 3.36 1.47 3.69 0 0-5.46 4.45-19.54-9.63-.7-.7-1.31-1.31-1.77-1.81a5.27 5.27 0 0 0 -1.7 1.26 19.42 19.42 0 0 0 -4.5 8.33c2.84 3.5 6.53 8.89 8.12 13.06a7 7 0 0 1 .52 4.27 2 2 0 0 1 -2-.34c-1.48-1.49-2.55-5-4.28-7.08a.06.06 0 0 1 0-.08h.09zm3.56-5a5.3 5.3 0 0 1 .26 1.18.33.33 0 0 1 -.11.28c-.3.31-1.63.07-3.07-1.37a18.42 18.42 0 0 1 -1.45-1.71.14.14 0 0 1 0-.19.21.21 0 0 1 .15-.07h1a12.65 12.65 0 0 1 .67-3.65 1.38 1.38 0 0 0 -1.16 0 .32.32 0 0 1 -.3 0s-.07-.06-.07-.1l-.15-1.1c-.81.76-2.42 1.68-2.71 1.39a.28.28 0 0 1 0-.28 12.75 12.75 0 0 0 1.12-2.73c.37-1.37.43-2.75 1.46-3.78.55-.54 2.23-1.79 3-1s-.7 2.57-1.07 3.21a6.41 6.41 0 0 0 -1 2.94l.15-.15a2.65 2.65 0 0 1 1.92-1l1.18-1.92a1.34 1.34 0 0 1 .26-.28 2.57 2.57 0 0 1 .37-.28 2.81 2.81 0 0 1 2.88.13.54.54 0 0 1 .17.48 17.56 17.56 0 0 0 -.61 2.88 4 4 0 0 1 1.09 0 .51.51 0 0 1 .33.15.32.32 0 0 1 .13.22c.11.77-.52 1.66-.78 2.32a5.49 5.49 0 0 1 6.79.41c1 1 .93 1.86.74 2a.68.68 0 0 1 -.33.16c-1.62.35-3.43-.68-4.89-1.23a43.73 43.73 0 0 0 -1 4.54 27 27 0 0 1 -1.51 5.35.25.25 0 0 1 -.26.09 8.6 8.6 0 0 1 -1.3-.52 2 2 0 0 1 -.31-.27 1.48 1.48 0 0 1 -.26-.3l-.3-.5a.74.74 0 0 1 0-.68c1.07-1.68 1.93-4.19.53-5.85zm-1.07-4.39a8.56 8.56 0 0 0 -1 2.69l1.77 1.24.63-2.51zm6.2 1a4.15 4.15 0 0 0 -1.92-.65l-.5.85.83 1.92zm-5.2-3 1.15 1.06a11.34 11.34 0 0 0 -.1-2.73z" fill="#fff"/><path d="m68.02 16.99h44.94v34.57h-44.94z" fill="#231815" transform="matrix(.70710678 -.70710678 .70710678 .70710678 2.27 74.03)"/><path d="m87.72 45.65c-1 1-3.62 1.79-4.3 1.11a.53.53 0 0 1 -.13-.31c-.18-2.62 1.94-6.09 2.77-8.49-3.17.85-5.22.72-5.59.35-.06-.07-.11-.11-.09-.22a2.39 2.39 0 0 1 .77-1.85 10.47 10.47 0 0 1 3.43-1.69l.1.07a6.59 6.59 0 0 0 -.74.66 12.52 12.52 0 0 0 -1.11 1.2 15 15 0 0 0 4.19-.7l-1.18-1.14s-.07-.11 0-.15.06 0 .11 0l2.94.59 4.35-1.68c-5.79-2.51-9-.44-9.06-.42l-1.73 1.73c-.59.59-1.15 1.15-1.76 1.72-.2.2-.53.39-.75.57-.7.57-1.39 1.26-2.29 1.2a.61.61 0 0 1 -.37-.15c-.54-.55.44-2.14.9-2.6.83-.83 1.83-1.58 2.73-2.34-5.68-.13-6.09-.33-6.25-.48-.3-.31 0-1 .42-1.46a1.9 1.9 0 0 1 1-.61l6.27-1.36a13.31 13.31 0 0 0 2.84-1.2 15.36 15.36 0 0 1 -3-1.77c-.46-.46-1.38-2.29-1.18-2.49a.19.19 0 0 1 .15 0 41.94 41.94 0 0 0 8.54 2.16l2.38-2-.92-1.14a.38.38 0 0 1 0-.43.09.09 0 0 0 .08-.05c.85-.23 2.06-.39 2.67.22 1.29 1.34 1 2.19.78 2.45a1.06 1.06 0 0 1 -.35.18 4.18 4.18 0 0 0 -2.18 1.13 2.91 2.91 0 0 0 -.33.37c.29.24.59.46.85.72a1.34 1.34 0 0 1 .2 1.77.86.86 0 0 1 -.33.2c-1.48.35-3.73-.81-4.76.13l-1.88 1.64c4-.31 8.32-.37 12.12.81l2.77-2.72a2.49 2.49 0 0 0 -.79-1.35c-.15-.16-.33-.29-.46-.42s0-.13 0-.2a.83.83 0 0 1 .22-.08c1.07-.24 2.69-.46 3.43.28a2.66 2.66 0 0 1 .13 3.71 18.65 18.65 0 0 1 -2.91 1.9 4.73 4.73 0 0 1 1.82 1.16l.17.18a2.54 2.54 0 0 1 .5 3.12.61.61 0 0 1 -.54.19c-2.1-.13-3-1.48-4.85-2.09l-3.69 3.6c1.73 2.25 4.67 5.94 3 8.84l-.11.16a.53.53 0 0 1 -.35.17c-1.33.11-3.4-2-4.52-2.64a7.84 7.84 0 0 0 -2.35-.83.08.08 0 0 1 0-.09 6.84 6.84 0 0 0 3.71-.79 5.86 5.86 0 0 0 -1.3-2.78l-4.09 4.43zm-.28-3.65.5-.51.79-.78 1.54-1.55a5.12 5.12 0 0 0 -1-1.4c-.19-.19-.41-.37-.61-.57l-2.09.57c0 1.66-.42 3.34 0 5zm6.81-6.51a10.16 10.16 0 0 0 -3.41 1l1.31 1z" fill="#fff"/><path d="m73.21 68.02h34.57v44.94h-34.57z" fill="#231815" transform="matrix(.70710678 -.70710678 .70710678 .70710678 -37.48 90.49)"/><path d="m91.47 72.29a.15.15 0 0 1 .18 0c-2.56 6.7-.28 15.3 4.71 20.3a.57.57 0 0 1 .11.11c.62.61 1.27 1.18 1.93 1.75a1.93 1.93 0 0 0 1.48-.75l.37-.37a.19.19 0 0 1 .28 0c.4.39 1 3.62-.56 5.28-1 1-2.38 1.29-2.86.81a.5.5 0 0 1 -.11-.22 11.25 11.25 0 0 0 -.4-2 7.29 7.29 0 0 0 -1.22-1.49c-1.42-1.59-2.71-3.4-4-5.08a19.3 19.3 0 0 0 -.65 6.46 5.6 5.6 0 0 0 2 0h.06c.22.22-1.68 2.73-1.7 2.75a1.16 1.16 0 0 1 -.39.26c-1.31.35-2.77 1.72-4 .5a.47.47 0 0 1 -.13-.61c.87-1.22 1.46-3.86 1.9-5.22a21.85 21.85 0 0 1 2.36-4.77c-6.22-2.12-12.51 1.68-18.25 1.74a.29.29 0 0 1 -.13 0c-.24-.24 1.26-2.1 2.53-3.36l.11-.11c1.42-1.42 3.34-2.42 9.71-1.64 1.51.2 3.06.35 4.54.65-1.74-5.37-2.51-10.28 1.86-14.69zm6.73 10.56 1 1.25c.46.23.83.43 1.25.63h.09a.21.21 0 0 1 0 .26 8.61 8.61 0 0 1 -3.19.79 22 22 0 0 0 -.15 3.22v.11a.14.14 0 0 1 0-.09c-.57-2.49-2.34-4.51-2.58-7.16a.26.26 0 0 1 .07-.24c.59-.59 2.94.51 3.47 1z" fill="#fff"/><path d="m11.81 73.2h44.94v34.57h-44.94z" fill="#231815" transform="matrix(.70710678 -.70710678 .70710678 .70710678 -53.94 50.74)"/><path d="m33.41 84.52c-2-2-1.79-2.27-1.63-2.42a3.77 3.77 0 0 1 2.2-.5.92.92 0 0 1 .7.3 33.29 33.29 0 0 0 13.64 7.3c.4.13.92 0 1.2.33s.29.59.2 1.33a4.27 4.27 0 0 1 -.92 2.44c-.06.07-.13.09-.19.16a19.27 19.27 0 0 1 -2.8 1.31c-1.88 1-3.53 3.18-5.65 1.07a11.74 11.74 0 0 1 -3.52-5.7c-1.5 1.33-2.94 2.77-4.34 4.17-1 1-1.92 1.92-2.84 2.92-.17.22-.28.33-.24.64a3.7 3.7 0 0 0 .78 1.52.29.29 0 0 1 -.07.33 3.16 3.16 0 0 1 -2.75 0c-1-1-2-4-1.18-4.8a.65.65 0 0 1 .46-.16 3.61 3.61 0 0 0 2.82-.94c.52-.52 1.09-1.09 1.59-1.63 1.11-1.25 2.25-2.56 3.43-3.74.52-.52 1.11-1 1.66-1.52-.9-.77-1.75-1.53-2.56-2.34m7.6 10.33c1 1 2.18.56 3.08-.33a8.13 8.13 0 0 0 1.67-2.59v-.22a.6.6 0 0 0 -.22-.09 27.73 27.73 0 0 1 -6.14-3 7 7 0 0 0 1.61 6.22m-11-9.43a.14.14 0 0 1 0 .19 2.65 2.65 0 0 1 -2.69-.19 8 8 0 0 1 -1.31-3.69 1.29 1.29 0 0 1 .35-.66.94.94 0 0 1 .75-.22 3.1 3.1 0 0 0 2.18-1.13c.41-.42.78-.92 1.2-1.33 1.05-1 4.56-2.73 5.87-1.42.31.3.22 2.22.29 2.77a13.28 13.28 0 0 0 1.55 3.78.06.06 0 0 1 0 .08.09.09 0 0 1 -.07 0c-.24-.24-.55-.59-.92-1-1.2-1.18-2.89-2.66-3.83-2.44a8.72 8.72 0 0 0 -2.31 1.78 15.49 15.49 0 0 0 -1.8 2.24c-.21.35-.17.44.11.73a4.09 4.09 0 0 0 .64.45z" fill="#fff"/><path d="m38.01 38h48.76v48.76h-48.76z" fill="#d61718" transform="matrix(.70710678 -.70710678 .70710678 .70710678 -25.83 62.38)"/><path d="m41.96 72.2v-19.64h17.7v4.31h-11.47v2.92h8.11v4.26h-8.14v3.89h11.5v4.26z" fill="#fff"/><path d="m83.9 52.56h-7.3l-3.97 5.11-3.97-5.11h-7.3l7.62 9.82-7.62 9.82h7.3l3.97-5.11 3.97 5.11h7.3l-7.62-9.82z" fill="#fff"/><g fill="#231815"><path d="m11.05 130.99v-7.27h6.55v1.6h-4.25v1.08h3.01v1.57h-3.02v1.44h4.26v1.58z"/><path d="m26.57 123.72h-2.7l-1.47 1.89-1.47-1.89h-2.7l2.82 3.64-2.82 3.63h2.7l1.47-1.89 1.47 1.89h2.7l-2.82-3.63z"/><path d="m34.42 125.32v1.3h3.23v1.58h-3.23v2.79h-2.29v-7.27h5.75v1.6z"/><path d="m42.05 123.72v4.6c0 .72.36 1.08 1 1.08s1-.38 1-1.14v-4.54h2.32v4.35c0 2.1-1.49 3.11-3.35 3.11s-3.28-.79-3.28-2.9v-4.56z"/><path d="m52.74 123.72c1.22 0 2.58.48 2.58 2.33a2 2 0 0 1 -1.49 2l1.78 2.95h-2.61l-1.42-2.56h-.58v2.56h-2.35v-7.27zm-.83 3.21c.49 0 1.11-.07 1.11-.84s-.66-.89-1.11-.89h-.91v1.69z"/><path d="m57.47 123.72h2.31v7.27h-2.31z"/><path d="m66.83 130.99-2.4-4.17v4.17h-2.14v-7.27h2.43l2.44 4.12v-4.12h2.15v7.27z"/><path d="m76.75 130.99-1.6-2.9-1.08 1.18v1.72h-2.3v-7.27h2.3v2.75l2.28-2.75h2.81l-2.53 2.76 2.71 4.51z"/><path d="m85.91 131-.32-1h-2.53l-.32 1h-2.47l2.78-7.27h2.62l2.71 7.27zm-1.56-5.2-.79 2.56h1.56z"/><path d="m92.53 129.22h3.66v1.77h-6.71v-1.45l3.73-4.08h-3.51v-1.74h6.49v1.48z"/><path d="m102.91 131-.32-1h-2.59l-.32 1h-2.46l2.78-7.27h2.62l2.71 7.27zm-1.56-5.2-.79 2.56h1.56z"/><path d="m111.24 130.99-2.4-4.17v4.17h-2.14v-7.27h2.44l2.43 4.12v-4.12h2.15v7.27z"/></g></svg>