<svg height="127.53" viewBox="0 0 155.59 127.53" width="155.59" xmlns="http://www.w3.org/2000/svg"><path d="m57.76 105.55c-3.48.21-7 .47-10.34.78l-3 .28c-2.24.23-4.42.47-6.48.71l-5.88.76c-2.3.32-4.51.65-6.56 1l-8.73 1.37v-15.64l-16.77-11.11 16.81-4.7v-16l29.26-29.3-10.44-16.1 16.37 8.07 1.39.69 26.36-26.36 26.36 26.36c.85-.42 1.37-.67 1.39-.69l16.37-8.07-10.44 16.07 29.26 29.27v15.59l12.9 3.82-12.9 8.43v19.65l-8.69-1.37c-2.06-.33-4.27-.66-6.59-1l-5.88-.76c-2-.24-4.22-.48-6.47-.71l-3-.28c-3.39-.31-6.86-.57-10.33-.78l-22 22z" fill="#bfa566"/><path d="m130.58 63.89-1.9 1.9-5.69-.02 1.9-1.89h.01l-20.22-20.31 2.25-3.43z" fill="#fff"/><path d="m105.19 57.1-12.61 9.69-2.3 1.77h-5.28l1.15-1.77 4.24-6.58-7.23 1 4.59-11.21s4.7-.27 6.26-.49c3.07-.44 8-1.18 8-1.18l-6.67 9.47s2.57 0 5.24-.23l4.57-.47" fill="#bfa566"/><path d="m92.9 101.41-1.67 1.66-11.59 11.54-11.54-11.61-1.71-1.72c1.82-.07 3.67-.12 5.53-.15l1.73 1.74 6 6 6-6 1.71-1.7 2.6.08h1.2 1.2.51" fill="#fff"/><path d="m71.79 49.92 4.55 11.25-7.23-1 4.23 6.58 1.15 1.77h-5.3l-2.29-1.77-12.56-9.75 4.57.49c2.66.27 5.24.25 5.24.25l-6.65-9.55 8 1.21c1.55.23 6.25.52 6.25.52" fill="#bfa566"/><path d="m140.68 80.17v-16.26l-29.75-29.91 7.41-11.3-9.83 4.82-2.69 1.31-25.89-26-26 25.89-2.69-1.32-9.9-4.87 7.33 11.33-29.86 29.78v16.71l-14.09 4 14 9.32v14.33l6.41-1c2.17-.34 4.41-.67 6.62-1l5.9-.75c2.09-.24 4.28-.48 6.52-.7l3-.27c3.71-.34 7.5-.61 11.31-.82l21.16 21.26 21.26-21.16c3.81.22 7.61.51 11.31.86l3 .29c2.24.23 4.44.48 6.52.73l5.9.77c2.21.32 4.45.65 6.62 1l6.41 1 .07-18.39 10.2-6.63zm-75.14-30.77c1.55.23 6.25.52 6.25.52l4.55 11.25-7.22-1 4.22 6.58 1.15 1.77h-5.29l-2.3-1.78-12.56-9.74 4.57.49c2.66.27 5.24.25 5.24.25l-6.65-9.55 8 1.21m-34.85 16-1.77-1.78 23.79-23.62 2.24 3.45-20.31 20.22 1.74 1.78zm60.54 37.6-11.55 11.61-11.54-11.61-1.71-1.72c1.82-.07 3.67-.12 5.53-.15l1.73 1.74 6 6 6-6 1.71-1.7 2.6.08h1.19 1.21.51zm1.35-36.28-2.3 1.77h-5.33l1.15-1.77 4.28-6.54-7.23 1 4.64-11.18s4.7-.26 6.26-.48c3.07-.44 8-1.18 8-1.18l-6.67 9.46s2.57 0 5.24-.23l4.57-.47zm36.1-1h-5.64l1.91-1.89-20.22-20.26 2.24-3.43 23.65 23.75z" fill="#231815"/><path d="m52.67 40.01 2.23 3.45-20.3 20.21.01.01 1.76 1.77-5.69-.01-1.76-1.78z" fill="#fff"/><path d="m79.75 12.94 19.13 19.13-3.88 1.8-15.25-15.25-15.25 15.25c-1.19-.54-2.52-1.16-3.88-1.8z" fill="#070002"/><path d="m51.6 31c1.65.81 4.21 2.06 6.81 3.3 1.32.63 2.65 1.26 3.87 1.82 1.6.74 3 1.38 4 1.79 2.43 1 10.23 3.59 10.23 3.59l-3-8.52 6.33-10.25 6.29 10.27-3.07 8.52s7.82-2.58 10.25-3.52c1-.4 2.43-1 4-1.77l3.87-1.8c2.61-1.23 5.18-2.47 6.83-3.27l1.8-.89-1.06 1.63-4 6.12-2.25 3.44-2.15 3.29a113.38 113.38 0 0 1 -20.56 1.85 113.94 113.94 0 0 1 -20.6-2l-2.14-3.3-2.23-3.45-4-6.14-1.06-1.63 1.8.89" fill="#bfa566"/><path d="m137.7 85.07-14.53-4.07v-5.14l5.11.14v3.49c2.26.1 4.52.2 6.78.32v-10.39h-21.72l3 2.8v6.85 7l12 3.4v4.66c-1.7-.19-3.4-.36-5.1-.53v-3.41q-3.39-.28-6.78-.52v9.61q9.35.94 18.63 2.42v-14.88z" fill="#bfa566"/><path d="m24.42 84.72-6.42 1.81 6.43 4.25v10.85q3.38-.54 6.75-1v-10.77l6-1.68v11.68q3.38-.4 6.77-.75l.05-29.76h-19.58zm12.77-9v5.36l-6 1.69v-6.89z" fill="#bfa566"/><path d="m44.56 80.83 2.19 1.93v16q6.49-.6 13-.94v-15.49l-2.23-1.93q-6.5.16-13 .4m10.14 12.82-2.93.18v-2.09l2.93-.16zm0-6.57-2.93.13v-2.09l2.94-.09v2.07" fill="#bfa566"/><path d="m111.26 80.75q-6.48-.23-13-.36l2.2 2v15.61c1.68.1 3.36.21 5 .34v-6.64l2.93.18v6.65c1.67.14 3.35.29 5 .46v-16.1l-2.24-2.14m-5.72 6.43v-2.08l2.93.12v2.08l-2.93-.14" fill="#bfa566"/><path d="m95.34 80.3q-10-.18-19.93-.14l2.19 1.9v15.24h5v-12.8h2.4v12.82c1.69 0 3.37.07 5 .12v-12.84h2.42v12.91l5 .24v-15.51z" fill="#bfa566"/><path d="m74.76 82v2.51c-2.37 0-4.73 0-7.1.09v2c2.36 0 4.73-.09 7.1-.1v4.4c-2.37 0-4.74.07-7.11.13v2q3.54-.11 7.1-.14v4.41q-4.95.08-9.92.28l-2.23-1.88v-13.5l-2.17-1.9q6.09-.12 12.17-.17z" fill="#bfa566"/><g fill="#fff"><path d="m64.27 78.05v-2.56h-2.66v2.58l-2.25.05.01-7.08h2.25l-.01 2.71h2.67v-2.71h2.24v6.99z"/><path d="m69.8 78.07v-7.03h2.25v7.01z"/><path d="m89.12 78.17a4.41 4.41 0 0 1 -2.64-.71 2.5 2.5 0 0 1 -1-2.15v-4.31h2.24v4.3a3.84 3.84 0 0 0 0 .48.73.73 0 0 0 .19.37 1.16 1.16 0 0 0 .39.26 2.26 2.26 0 0 0 .73.1 1.6 1.6 0 0 0 1.08-.27 1.28 1.28 0 0 0 .29-.94v-4.3h2.25v4.3a2.5 2.5 0 0 1 -1 2.15 4.41 4.41 0 0 1 -2.64.71"/><path d="m97.68 77.99v-2.7l-3.08-4.3h2.54l1.69 2.39 1.68-2.39h2.54l-3.12 4.34v2.69z"/><path d="m109.26 78.38-.64-1.66h-2.57l-.63 1.57-2.27-.07 3.15-7.33h2.14l3.21 7.57zm-1.26-3.25-.64-1.64-.67 1.64z"/><path d="m82.82 76c0 1.21-.58 2-2.39 2h-5.09v-7h5.25c.89 0 2.2.24 2.2 1.9 0 1.28-.52 1.5-.78 1.61a1.56 1.56 0 0 1 .83 1.55m-5.5-3.56v1.09h2.79c.17 0 .42-.11.42-.54s-.26-.55-.42-.55zm0 2.77v1.08h2.79c.17 0 .42-.11.42-.54s-.26-.54-.42-.54z"/><path d="m54.34 73.75h-3a.43.43 0 0 1 0-.86h4.71v-1.77h-4.9a2 2 0 0 0 -2.3 1.64 2 2 0 0 0 0 .54 2 2 0 0 0 1.76 2.21 1.61 1.61 0 0 0 .38 0h3.1a.43.43 0 1 1 0 .86h-5.04v1.78h5.17a2 2 0 0 0 2.18-1.8 2.67 2.67 0 0 0 0-.4 2 2 0 0 0 -1.78-2.2z"/><path d="m98.88 32.07-19.13-19.13-19.13 19.13 3.88 1.8 15.25-15.24 15.25 15.24c1.19-.54 2.52-1.16 3.88-1.8"/></g></svg>