<svg height="92.78" viewBox="0 0 155.05 92.78" width="155.05" xmlns="http://www.w3.org/2000/svg" xmlns:xlink="http://www.w3.org/1999/xlink"><linearGradient id="a" gradientUnits="userSpaceOnUse" x1="77.52" x2="77.52" y1="92.78"><stop offset="0" stop-color="#fff000"/><stop offset="1" stop-color="#fbc600"/></linearGradient><path d="m51.53 17.18 2.11-17.18h-44.78l-8.86 72.22h74.46l-2.53 20.56h73.84l9.28-75.6z" fill="url(#a)"/><g fill="#231815"><path d="m101 73.64h.1c.18 0 .43.1.83.2a9.85 9.85 0 0 0 1.78.36.2.2 0 0 1 .13 0h.27a.3.3 0 0 0 -.16 0h-.18a.34.34 0 0 1 .17 0 .83.83 0 0 0 .4 0s0 0 0 0 0 0-.06 0-.06 0-.07 0a.45.45 0 0 0 -.16 0c-.07 0-.15 0-.16-.05a.37.37 0 0 0 -.13-.07c-.38-.15-.51-.16-.58-.06s0 0 0 0a.53.53 0 0 0 -.16-.06.34.34 0 0 1 -.18-.1.11.11 0 0 0 -.11 0s-.1 0-.13 0a.29.29 0 0 0 -.1-.05.13.13 0 0 1 -.07 0 .3.3 0 0 0 -.12 0 1.36 1.36 0 0 1 -.27-.06c-.21-.06-.21-.06-.2 0s0 0-.06 0a.19.19 0 0 1 -.08 0s-.16-.09-.17 0 0 0 0 0a.32.32 0 0 0 -.15 0 .29.29 0 0 1 -.18 0 .09.09 0 0 0 -.08 0 .57.57 0 0 1 -.16 0c-.11 0-.16 0-.14.07s0 0 0 0-.15.1-.13.13a3.34 3.34 0 0 0 .49.08z"/><path d="m103 74.41s0 0 .08 0 .07 0 .07 0 0 0-.09 0-.06-.02-.06 0z"/><path d="m124.76 72.72c-.07 0-.11.16 0 .13s.06 0 .06 0a.08.08 0 0 0 -.06-.13z"/><path d="m98.1 71.35s0 0 0 0h-.23s0 0 0 0l.15.07a4.4 4.4 0 0 0 .86.24c.08 0 .2 0 .14-.06l-.31-.1-.32-.1a.56.56 0 0 0 -.29-.05z"/><path d="m100.8 73.86s0 0 .06 0a.15.15 0 0 0 .11 0 .12.12 0 0 0 -.17 0z"/><path d="m102.19 74.18a.12.12 0 0 1 -.07 0l-.22-.08-.18-.07a0 0 0 0 0 0 0s.25.18.29.17a.08.08 0 0 1 .07 0 .62.62 0 0 0 .26.09s-.13-.13-.15-.11z"/><path d="m125.83 63.47s0 0 0 0 0-.16 0-.16-.01.14 0 .16z"/><path d="m102.87 74.34s-.15 0-.16 0a.48.48 0 0 0 .24 0s0 0 0 0a0 0 0 0 0 0 0z"/><path d="m121 77.17h-.11-.09.1c.1.01.1 0 .1 0z"/><path d="m124.76 77.64-.65.12c-.15 0-.62 0-.81.07s-.16.09-.2.1l-.3.08s-.4 0-.45 0a7.81 7.81 0 0 0 -1.14.35c-.41.13-1.25.26-1.44.32l-.64.13a1.21 1.21 0 0 0 0 .18.72.72 0 0 1 0 .13.2.2 0 0 0 0 .09s0 .05 0 .1a.31.31 0 0 0 0 .11s0 0 0 0a.1.1 0 0 1 0 .08s0 .07 0 .11 0 .07 0 .07a0 0 0 0 0 0 0s0 0 0 0a0 0 0 0 0 0 0s0 0 0 0l.41-.14.55-.17a19.85 19.85 0 0 1 3.19-.7c.71-.11 1-.15 1.3-.19l.12-.15c.12-.18.3-.49.38-.65s.16-.29.21-.4h-.29z"/><path d="m121.88 76.87h-.16a.37.37 0 0 0 .16 0z"/><path d="m135.16 82.44.14-.15a1.1 1.1 0 0 0 .13-.17s0 0 0 0l-.17.19c-.06.06-.12.13-.11.14s-.02.02.01-.01z"/><path d="m38.34 68.49a1.06 1.06 0 0 0 -.08.33 1.2 1.2 0 0 0 0 .32.13.13 0 0 0 .13.08.16.16 0 0 0 .14-.06 1.22 1.22 0 0 0 .06-.3l.08-.66a.84.84 0 0 0 -.33.29z"/><path d="m97.59 69.81s0 0-.07 0-.07.05 0 .06.07-.04.07-.06z"/><path d="m118.26 81.85a.52.52 0 0 0 0 .25s0 0 0-.11a.85.85 0 0 1 0-.14z"/><path d="m128.14 84a.3.3 0 0 1 .17.13c.1.17.14.18.41.2h1.65.93c.15 0 0-.05.62-.12 1-.11 1.27-.16 1.77-.25a1.51 1.51 0 0 1 .38-.06c.22 0 .26 0 .27-.2s0-.06-.07-.07-.08 0-.09 0 0 .07-.05.06a.31.31 0 0 0 -.13 0 6.7 6.7 0 0 1 -.75.07s0 0 0-.06a0 0 0 0 0 0 0s0 0-.05 0 0 .06-.06.06 0 0 0-.05 0 0-.39 0a1.45 1.45 0 0 1 -.41 0 .42.42 0 0 0 -.16 0h-.14s-.28 0-.54 0 0 0 .06 0h.08s0 0-.08 0-.05 0-.09 0a.31.31 0 0 0 -.13 0c-.05 0-.09 0-.11 0s0 0-.06 0a.16.16 0 0 1 -.1 0 .42.42 0 0 0 -.16 0 .32.32 0 0 1 -.13 0 2.08 2.08 0 0 0 -.33 0 2.85 2.85 0 0 1 -.33 0 .54.54 0 0 0 -.29 0h-.06a3.77 3.77 0 0 0 -.68 0h-.33a.37.37 0 0 0 -.15 0 .51.51 0 0 1 -.17 0h-.25a.06.06 0 0 0 -.06 0s-.04.29.01.29z"/><path d="m88.66 85.85h.08.09.17s0 0 0 0h.09a.2.2 0 0 1 .08 0l.14-.06h.12.08.07.06l.13-.06s0 0 0 0h.1a0 0 0 0 0 0 0h.1l.3-.16s0 0 0 0h.07s0 0 .06 0h.11.06.06s0 0 0 0h.06s0 0 0 0h.1s0 0 0 0l.09-.05s0 0 0 0h.06s0 0 0 0h.07l-.14-1.07c-.47.11-1.71.65-1.73.65-.19.13-.53.36-.69.32s-.1.09-.13.1h-.16-.22a.26.26 0 0 1 -.24 0c-.12-.06-.22-.4-.27-.51s0-.09 0-.09-.08.08-.11 0a.77.77 0 0 0 -.16-.21.17.17 0 0 0 0 .07c0 .15-.07.43-.1.64-.06.42-.15 1-.21 1.19s-.17.7-.21.94a3.21 3.21 0 0 1 -.07.36.24.24 0 0 0 .1 0h.06a0 0 0 0 0 0 0h.07.09l.15-.06h.06l.24-.08h.06.07.09.06a0 0 0 0 1 0 0l.25-.1s.8-1.82.79-1.82z"/><path d="m52.85 67c-.08 0-.12 0-.14.06a.9.9 0 0 0 -.07.33v.24h.3v-.24a1.2 1.2 0 0 0 0-.32.09.09 0 0 0 -.09-.07z"/><path d="m87.21 69s0-.06 0-.09v-.06.07c-.1.08-.05.08 0 .08z"/><path d="m73.9 67a.16.16 0 0 0 -.13.06.84.84 0 0 0 -.07.28l-.13 1.07a.72.72 0 0 0 0 .29s0 .06.11.06a.14.14 0 0 0 .14-.08 1 1 0 0 0 .08-.35l.12-1a.61.61 0 0 0 0-.28s-.02-.05-.12-.05z"/><path d="m32.08 6c-.72 2.76-1.21 4.79-1.46 6.06h1.29q.02-2.48.17-6.06z"/><path d="m86.61 55.38q.67-1 1.22-5.34l2.08-16.93a22.35 22.35 0 0 0 .27-3.79 1.52 1.52 0 0 0 -.71-1.23 5.23 5.23 0 0 0 -2.47-.39l-3.53 28.66c1.63 0 2.68-.36 3.14-.98z"/><path d="m32.57 68.33h.37c0-.35 0-.9 0-1.65-.12.65-.26 1.2-.37 1.65z"/><path d="m90 75.18a0 0 0 0 0 0 0 2.92 2.92 0 0 0 -.37.24.45.45 0 0 1 -.1.1s-.08.07-.06.07a3.45 3.45 0 0 0 .53-.41z"/><path d="m91.89 78.92a.46.46 0 0 0 -.21-.09c-.05 0-.08 0-.08.07l-1.26.4s0 .08 0 .08h-.11-.09-.23-.13l-.52.17s0-.08 0-.09h-.13-.18a1.64 1.64 0 0 0 -.28.1l-.22.09h-.08s-.22.06-.2 0-.33 0-.43.07h-.14a2.7 2.7 0 0 1 .34.79s0 .08 0 .14a3.4 3.4 0 0 1 .1.46.87.87 0 0 1 -.04.89h.84a4.92 4.92 0 0 1 .78.07 4.62 4.62 0 0 0 1.62-.27 1.16 1.16 0 0 0 0-.15 1.3 1.3 0 0 0 0-.26.64.64 0 0 1 0-.16c0-.09 0-.25 0-.35a3.56 3.56 0 0 1 .15-.69s0-.05 0-.08 0 0 0-.07 0 0 .06-.09a.19.19 0 0 1 .09-.11 1 1 0 0 0 .17-.28 1.61 1.61 0 0 1 .25-.42c.08-.1.14-.19.16-.22-.12.01-.22.02-.23 0z"/><path d="m93.31 78.68.52.11a4.05 4.05 0 0 1 .65.56 3.9 3.9 0 0 1 -.21 1.65l.39-.12s.61-.28.7-.3a1.43 1.43 0 0 0 .38-.23 7 7 0 0 1 .61-.44.91.91 0 0 0 .3-.19c.1-.09.21-.15.17-.07s0 0 .05.06.06 0 .11-.09.06-.12.09-.1a0 0 0 0 1 0 0 0 0 0 0 0 0 0s0 0 0 .08 0 .07 0 .08.22 0 .26-.09 0 0 0 0a.58.58 0 0 1 0 .1s0 0 0 0 .15 0 .17.07 0 0 .08 0 .16 0 .13.08 0 0 0 0 .39.19.49.34 0 .11 0 .15c.26.19.34.23.36.28a.23.23 0 0 0 .09.08s.06 0 0 .07a.1.1 0 0 0 .35.24.27.27 0 0 1 .08.1s0-.11 0-.16a7.12 7.12 0 0 0 .12-1.14 1.33 1.33 0 0 1 0-.3 2.63 2.63 0 0 0 0-.3s0-.17 0-.26a1.89 1.89 0 0 0 0-.59c0-.06 0-.13 0-.13a2.34 2.34 0 0 0 -.2-.52c-.08-.12-.59-.12-1.54 0-1.32.24-2.13.4-2.42.48a2.55 2.55 0 0 1 -.57.13l-1.38.34z"/><path d="m91.56 84.29a0 0 0 0 0 0 0s0 0 0 0h-.06s0 0 0 0h-.5a0 0 0 0 0 0 0h-.05s0 0 0 0h-.06s0 0 0 0h-.06a.05.05 0 0 1 0 0h-.05s0 0 0 0a.17.17 0 0 1 0 .05s0 0 0 0a0 0 0 0 0 0 0s0 0 0 0a0 0 0 0 0 0 0s0 0 0 0a.08.08 0 0 1 0 0 .17.17 0 0 0 0 0v.06s0 0 0 0 0 0-.05.06l-.07.06-.12.18s-.08.07-.07.13h.57s0 0 .09 0h.11.1.1.09.06a.46.46 0 0 0 .19 0s0 0 0 0 0 0 .07 0l.47-.06.15-.06s0 0 0 0a1 1 0 0 1 .21 0s0 0 0 0h.13l.23-.05a.33.33 0 0 1 .14 0h.13s0 0 0 0a.13.13 0 0 0 .08 0s0 0 0 0h.12c0-.52 0-1.58-.06-1.69a4.6 4.6 0 0 1 -1.89 1.32z"/><path d="m99 81.92c-.09.12-.22.09-.16.12s0 0 0 .11a.14.14 0 0 0 0 .11s0 .06-.09.15a.34.34 0 0 1 -.29.12c-.11 0-.18 0-.2.06a.1.1 0 0 1 -.08 0 1.19 1.19 0 0 0 -.25 0 .67.67 0 0 0 -.19.06c-.08 0-.12 0-.16 0h-.08a2.63 2.63 0 0 1 -.32-.12 1.14 1.14 0 0 0 -.42-.11c-.06 0 0-.08 0-.09h-.09a.14.14 0 0 1 -.11 0c-.07 0-.12.14-.21.17s.09-.12 0-.12h-.22c-.09 0-.17-.12-.26-.09s-.16 0-.24 0-.34 0-.44 0l-1.19.3c0 .11 0 .33-.08.5a8.07 8.07 0 0 1 -.58 1.8l-.11.24a.07.07 0 0 1 0 .06 6 6 0 0 0 -.28 1h.48s0 0 0 0l.16-.05h.07.07.07.12l.5-.16h.07.07.12s0 0 .06 0h.06.05s0 0 0 0h.14s0 0 .08 0 0 0 0 0h.07.18l.17-.06h.12.19s0 0 0 0h.14.1.06.12.14.09.07.13s0 0 0 0h.35.11s0 0 0 0h.06.12s0 0 0 0a0 0 0 0 0 0 0h.06v-.92l.18.17c.05 0 .19-.23.21-.17a.26.26 0 0 0 .11.08h.09a2.07 2.07 0 0 0 .06-.24 1.49 1.49 0 0 1 0-.57 5.83 5.83 0 0 0 .11-1.17l.21-.47c0 .1.06.07.08 0s-.13.28 0-.36c.53-.16.6-.27.6-.35z"/><path d="m87.55 80s0 0 0 0h.08-.06s.36-.18.25-.17a2.39 2.39 0 0 0 -.37.13s.13-.03.1.04z"/><path d="m91.11 74a.43.43 0 0 0 .15-.09c.15-.12.12-.13 0 0s-.2.09-.15.09z"/><path d="m92.22 72.85-.14.08c-.16.11-.23.17-.19.16z"/><path d="m92.19 73.1v-.1l-.1.05a.33.33 0 0 0 -.13.09.44.44 0 0 1 -.14.11s0 0 0 0a6.28 6.28 0 0 1 -.65.5 1.21 1.21 0 0 0 -.27.18s-.37.3-.37.3l-.09.07-.31.21c-.07 0-.12.09-.08.09a2.88 2.88 0 0 0 .44-.21 1.43 1.43 0 0 1 .15-.11c.06 0 .45-.36.74-.55s.42-.29.51-.37.11-.06.2-.06h.08v-.12l.16-.07s-.12-.01-.14-.01z"/><path d="m132.73 74.6a4.64 4.64 0 0 0 -.94-.22 10.7 10.7 0 0 0 -1.86.07 1.31 1.31 0 0 0 -.25 0h-.44-.14l-.25.16c-.17 0-.46-.18-.57-.13a3.56 3.56 0 0 1 -.76.17l-.34.08a2.45 2.45 0 0 1 .11.43 2.35 2.35 0 0 0 0 .24 1.05 1.05 0 0 1 0 .13v.19l.66-.06h.82a5.21 5.21 0 0 1 .89.09.32.32 0 0 0 .14 0 1.49 1.49 0 0 1 .3.09l.1.06.22.14a1.19 1.19 0 0 1 .34.36c.15.21.16.25.07.38a.43.43 0 0 1 -.17.2l-.19.15a3.62 3.62 0 0 0 -.39.27l-.69.21h.06s-.48 0-.38-.1 0 0-.05 0a3.41 3.41 0 0 0 -.8-.06h-.13c-.09 0-.58 0-1 .05a2.12 2.12 0 0 0 0 .28c0 .21-.09.52-.14.72l.43-.06c.34 0 1-.13 1.41-.17a4.14 4.14 0 0 0 .82-.11.23.23 0 0 1 .14 0h.12s.05 0 .24-.05h.61.24l1.32.18h.32a1.43 1.43 0 0 1 .35.08 3.44 3.44 0 0 1 .22-.55 6.94 6.94 0 0 0 .47-1.14 2.54 2.54 0 0 0 -.07-1.16 4.35 4.35 0 0 0 -.84-.92z"/><path d="m136.8 72.75c-.14.14-.3.24-.44.17s0 0 0 0-.23.26-.34.11-2.29-.26-2.25-.38h.12c0-.12-1-.26-1.1-.3a2.68 2.68 0 0 0 -1.13-.3 2.2 2.2 0 0 1 -.61-.31 5.74 5.74 0 0 0 -1-.33c-.17-.07-.29-.16-.48-.23s-.31-.28-.5-.3a2.73 2.73 0 0 1 -.82-.69h.12s0-.08 0-.16-.14.16-.14.18.14 0 .07.12h-.12.12c0 .07-.23.09-.24.17s.19 0 .2-.06a7 7 0 0 1 -.09 1 1.49 1.49 0 0 0 0 .36c0 .07.11.11.08.18s-.19.23-.14.32a.32.32 0 0 1 .07.25 3.59 3.59 0 0 1 -.2.51l-.06.15s0-.16 0-.17c-.11.22-.13.18-.27.27l.89-.17 1.7-.4v.06a.11.11 0 0 0 0 .09s.11-.13.1-.2l.1-.12a1.46 1.46 0 0 1 0 .22c0 .06 0 .06.19 0a8.55 8.55 0 0 1 .85-.15l.4-.06a5.19 5.19 0 0 1 .52-.06 14.4 14.4 0 0 1 1.54.1 4.66 4.66 0 0 1 .86.27c.27.14.53.06.64.13l.37.26c.35.21.43 0 .73.19a4.32 4.32 0 0 0 .36-.71.15.15 0 0 1 -.1-.01z"/><path d="m136.65 73.66.13.12-.07-.11z"/><path d="m136.35 64.77a.48.48 0 0 0 .17.13.63.63 0 0 1 .17.15.88.88 0 0 0 .12.17l.1.14a.33.33 0 0 0 .12.09c.05 0 .09.07.09.1a.22.22 0 0 0 0 .08s0 .07 0 .12 0 .17 0 .2a.26.26 0 0 0 -.05.09.68.68 0 0 1 -.21.27s-.07.06-.11.12a.86.86 0 0 1 -.34.25h-.07a1.56 1.56 0 0 1 -.4.16.55.55 0 0 0 -.26.13l-.11.1a.79.79 0 0 0 -.16.16l-.13.18a.8.8 0 0 0 -.13.16l-.22.26-.07.09c0 .06-.08.07-.07 0s0 0 0 0-.12.08-.11.09 0 0 0 0 0-.05-.1 0-.08 0-.08.06 0 .05 0 .06a.09.09 0 0 0 -.05 0 .26.26 0 0 1 -.11.07c-.09 0-.11 0-.14 0s-.14-.08-.17-.06h-.09c-.06 0-.07 0-.07 0s0 0 0 0-.05.07-.09 0 0 0-.07 0a.09.09 0 0 1 -.1.06.13.13 0 0 0 -.11 0s-.05 0-.05 0-.11 0-.26 0a5 5 0 0 1 -.54 0c-.36 0-.43 0-.48 0s0 0-.06 0 0 0 0 0 .05 0 0-.06-.05 0-.11 0-.12 0-.11-.06 0 0-.08 0-.05 0-.06 0-.06 0-.07 0-.05 0-.11.07-.1 0-.1 0 0-.07-.06 0h-.12l-.16.05a.71.71 0 0 1 -.37 0s-.06 0-.14 0l-.1.06s-.13-.14-.16-.12-.72.37-.76.38.07-.06.06 0 .08-.25 0-.22-.87.51-.88.52l-.17.08c.33 0 .68.21.94.27.56.14 1.19.21 1.73.37a5.21 5.21 0 0 0 1.85.08c.16 0 .94-.26 1.05-.17s-.1 0-.11-.06.47-.42.44-.41-.08-.46 0-.55.47-.16.64-.14a.92.92 0 0 1 .51.2c.06.06.5.61.58.59a.12.12 0 0 0 -.1 0c-.1.1.34.15.4.17s-.12.43.1.46.19.32.21.38a9.74 9.74 0 0 1 .4.94 4.17 4.17 0 0 0 0 .81 2.55 2.55 0 0 1 .26-.42 8.17 8.17 0 0 0 .45-.75c.07-.15.17-.37.23-.47a9.22 9.22 0 0 0 .51-1.2c0-.1.1-.31.16-.46a3.26 3.26 0 0 0 .24-.76l.66-1.42c.24-1.06-1.41-1.47-3.41-1.59z"/><path d="m137.54 72.27-.74 1.16-.12.19a.08.08 0 0 0 0 0l.1.06c.24-.41.73-1.25.76-1.36s.02-.09 0-.05z"/><path d="m134.94 78.46s0 0-.06 0-.09 0-.15.09-.08.09-.09.09l-.06.06-.21.21a.93.93 0 0 1 .14.14l.08-.06a1.36 1.36 0 0 0 .21-.28.57.57 0 0 1 .16-.22.32.32 0 0 0 .16-.2s0 0 0 0-.19.14-.18.17z"/><path d="m59.81 67a.18.18 0 0 0 -.14.06.69.69 0 0 0 -.06.28l-.14 1.07a.88.88 0 0 0 0 .29s.05.06.11.06a.16.16 0 0 0 .14-.08 1.13 1.13 0 0 0 .07-.35l.13-1a1.2 1.2 0 0 0 0-.28s-.05-.05-.11-.05z"/><path d="m134.49 78.75s0 0 0-.07l.12-.12c0-.07 0-.1 0-.14s0-.08 0-.19.1-.21 0-.18 0 0 0 0a.89.89 0 0 0 -.08-.13l-.08-.1-.07.09c-.09.1-.16.13-.12 0s0-.19 0-.2a1.19 1.19 0 0 0 -.06.48c.08.06.07.08-.09.15s-.16.1-.06.12 0 0 0 0a.57.57 0 0 1 -.16 0h-.13l.27.13.21.14h.1c.11.06.15.03.15.02z"/><path d="m141.44 70.51s0 0 0 .06l-.14.2a.6.6 0 0 1 -.11.16 0 0 0 0 0 0 0c.05 0 .27-.23.26-.27a0 0 0 0 1 0 0 .71.71 0 0 0 .15-.22s-.18.06-.16.07z"/><path d="m142.43 70.37h-.06c-.05 0-.06 0-.05 0s0 .06.05 0a.06.06 0 0 1 .07 0 0 0 0 1 0 0-.06s-.01.04-.01.06z"/><path d="m141.9 69.67s-.05 0-.06.07 0 .06 0 .05a.14.14 0 0 0 .07-.08s.01-.05-.01-.04z"/><path d="m51.53 17.18 2.11-17.18h-44.78l-8.86 72.22h74.46l-2.53 20.56h73.84l9.28-75.6zm73.25 3.07-1.07 8.75h-9.84l-1.06 8.65h9.35l-1 8.29h-9.35l-1.13 9.19h9.84l-.35 2.82a13.05 13.05 0 0 0 -1.36-.06h-.54a11 11 0 0 1 -3.34 0c-.72-.33-.58 2.26-.58 2.26a4.63 4.63 0 0 0 -.13.67 2.67 2.67 0 0 0 -.08.48l-.42 1.88a9.43 9.43 0 0 0 -1.72-1.48l-.18-.12a6.91 6.91 0 0 0 -.92-.55 4.3 4.3 0 0 0 -1.65-.47 1.47 1.47 0 0 0 0-.21 3.21 3.21 0 0 0 0-.56 2.46 2.46 0 0 0 -1.1-1.75 3.41 3.41 0 0 0 -.61-.68l-.86-.68-.13-.12a3.37 3.37 0 0 0 -1-.85h-.05a2.45 2.45 0 0 0 -1.15-.63l-.16-.08h-.6a3.25 3.25 0 0 0 -.44 0h-.15-.37-.08a2.9 2.9 0 0 0 -.43 0h-.37a6.82 6.82 0 0 0 -1.44.45l4.32-35.16zm-39.73 0q8.22 0 11 .75a7.34 7.34 0 0 1 4.1 2.48 6.94 6.94 0 0 1 1.41 3.83 57.36 57.36 0 0 1 -.64 8.31l-1.86 15.25c-.29 2.33-.58 4.2-.89 5.6h-.09l-.28.09-5.93 1.86-.82.13h-1.66a4 4 0 0 0 -.49 0l-.45.05a8.07 8.07 0 0 0 -1 .13l-.43.09a4.58 4.58 0 0 1 -1.17.12 3.09 3.09 0 0 0 -.85.06h-.27-.08l-.25-.17h-.8a3 3 0 0 0 -1.4.36 3 3 0 0 0 -.91.42 2.7 2.7 0 0 0 -.63 1.12 3 3 0 0 0 -.29.81 3.16 3.16 0 0 0 -.15 1.1v.49l.35.68h-9.34l5.35-43.57zm-47.05-17.51h4.86c0 .87.06 1.89.07 3.07l.07 3.67 1.69-6.74h4.91l-1.78 14.44h-3.28l1.19-9.75-2.5 9.75h-2.33l-.21-9.53-1.17 9.53h-3.29zm-3 0 .37 14.44h-3.79l.11-2.6h-1.34l-.55 2.6h-3.88l3.69-14.44zm-8 0-.36 2.89h-2.47l-.33 2.74h2.34l-.33 2.74h-2.35l-.39 3.18h2.76l-.36 2.89h-6.51l1.77-14.44zm-15.52 0h8.21l-.35 2.89h-2.19l-1.42 11.55h-3.73l1.39-11.55h-2.22zm19.17 65.54h-27.16l.08-.65h27.27zm2.14 1.44v-.7h-.38l-.16.7h-1.1l1.16-3.92h1.59v3.92zm2.43-.82s.11 0 .28 0l-.09.78h-.41a3.2 3.2 0 0 1 -.5 0 .47.47 0 0 1 -.25-.13.38.38 0 0 1 -.11-.23 4.7 4.7 0 0 1 0-.61l.18-1.39h-.23l.09-.75h.23l.06-.51h1l-.06.51h.28l-.1.75h-.27l-.15 1.21a.77.77 0 0 0 .05.37zm1.59 0s.11 0 .28 0l-.1.78h-.41a3.13 3.13 0 0 1 -.5 0 .47.47 0 0 1 -.25-.13.4.4 0 0 1 -.12-.23c0-.08 0-.29 0-.61l.17-1.39h-.22l.09-.75h.25l.07-.51h1l-.06.51h.28l-.1.75h-.19l-.15 1.21a.77.77 0 0 0 -.04.37zm2.89-.79-.19 1.61h-1v-.28a.76.76 0 0 1 -.64.35.81.81 0 0 1 -.48-.15q-.21-.14-.15-.63v-.26a.88.88 0 0 1 .18-.49 2.06 2.06 0 0 1 .64-.31 1.87 1.87 0 0 0 .57-.26.7.7 0 0 0 .07-.26.85.85 0 0 0 0-.33s0-.1-.07-.1-.11 0-.13.06a1.78 1.78 0 0 0 -.07.33v.34h-1v-.22a1.63 1.63 0 0 1 .16-.57 1 1 0 0 1 .41-.36 1.44 1.44 0 0 1 .73-.15 1.33 1.33 0 0 1 .77.17.6.6 0 0 1 .26.43 6.59 6.59 0 0 1 -.06 1.08zm2.47.87a1.23 1.23 0 0 1 -.22.4 1.08 1.08 0 0 1 -.42.3 1.43 1.43 0 0 1 -.58.11 1.41 1.41 0 0 1 -.68-.14.77.77 0 0 1 -.31-.4 1.91 1.91 0 0 1 0-.73l.11-.91a1.83 1.83 0 0 1 .16-.62 1 1 0 0 1 .42-.37 1.45 1.45 0 0 1 .7-.16 1.23 1.23 0 0 1 .67.16.66.66 0 0 1 .33.41 1.75 1.75 0 0 1 0 .7h-1v-.38a.55.55 0 0 0 0-.26s-.05-.06-.11-.06a.13.13 0 0 0 -.13.06 1.11 1.11 0 0 0 -.06.26l-.19 1.52a.5.5 0 0 0 0 .26.13.13 0 0 0 .13.09.18.18 0 0 0 .15-.09 1.29 1.29 0 0 0 .07-.34l.05-.38h.92c.05.25.02.44-.01.59zm2.5.74h-1l-.15-1.39-.17 1.39h-1l.48-3.92h1l-.2 1.65.43-.94h.87l-.58 1.28zm-15.28-5.9h-10.52l1.49-12.13c.29-2.34.28-3.78 0-4.34s-1.23-.83-2.79-.83l-2.12 17.3h-11.36l5.35-43.57h11.45a30.68 30.68 0 0 1 7.75.62 6.33 6.33 0 0 1 4.24 3.13c1 1.7.71 5.62.25 9.34-.42 3.39-1.26 6.79-2.24 8s-2.73 1.87-5.24 2.1c2.18.56 3.59 1.3 4.25 2.24a5.7 5.7 0 0 1 1.1 2.55c.09.78.09 1.56-.34 5.07l-1.1 9 11-42h15.82l1.37 41.82 5.14-41.82h11.33l-5.35 43.52h-22.64l.35-7.82h-4l-1.64 7.83zm29.07 2-.12 1h-1.06l.12-1zm-12.53 3.9.48-3.92h1.06l-.47 3.92zm2.54 0h-1.06l.33-2.72h1.07zm-.7-2.92.12-1h1.11l-.12 1zm2.47 2.92-.14-1.39-.18 1.39h-1l.48-3.92h1l-.2 1.65.44-.94h.86l-.57 1.28.3 1.93zm3.69-2v.43h-1.39l-.08.69a.61.61 0 0 0 0 .28.11.11 0 0 0 .12.07.16.16 0 0 0 .16-.09.63.63 0 0 0 .08-.32l.06-.42h1v.23a2 2 0 0 1 -.09.46 1.07 1.07 0 0 1 -.23.34 1.12 1.12 0 0 1 -.4.28 1.85 1.85 0 0 1 -1.14 0 .8.8 0 0 1 -.36-.25 1.14 1.14 0 0 1 -.15-.34 2.15 2.15 0 0 1 0-.55l.12-.93a1.44 1.44 0 0 1 .2-.67.94.94 0 0 1 .43-.38 1.52 1.52 0 0 1 .64-.12 1.3 1.3 0 0 1 .7.15.79.79 0 0 1 .35.42 1.82 1.82 0 0 1 -.02.75zm2.73 2h-1.72l.48-3.92h1.07l-.35 2.87h.65zm.26 0 .33-2.72h1.06l-.31 2.72zm3.83-.72a4.74 4.74 0 0 1 -.11.65.68.68 0 0 1 -.21.31 1.24 1.24 0 0 1 -.44.25 2.56 2.56 0 0 1 -.67.08 1.56 1.56 0 0 1 -.78-.16.58.58 0 0 1 -.23-.62h1c0 .15 0 .21.14.21s.13 0 .16-.06a.79.79 0 0 0 .08-.28v-.24a.83.83 0 0 1 -.3.17.81.81 0 0 1 -.31.06.89.89 0 0 1 -.44-.1.53.53 0 0 1 -.22-.28 1.64 1.64 0 0 1 0-.5l.14-1.17a1.06 1.06 0 0 1 .26-.65.7.7 0 0 1 .55-.2.63.63 0 0 1 .34.08.6.6 0 0 1 .26.22l.1-.25h1zm3-1.48-.27 2.21h-1l.28-2.25a1.86 1.86 0 0 0 0-.37s-.1-.11-.16-.11a.13.13 0 0 0 -.14.08 1 1 0 0 0 -.07.32l-.29 2.29h-1l.48-3.92h1l-.11.89a1.14 1.14 0 0 1 .32-.18.88.88 0 0 1 .33-.05.67.67 0 0 1 .45.13.42.42 0 0 1 .19.3 3 3 0 0 1 -.03.65zm1.54 2.21h-.42a3.2 3.2 0 0 1 -.5 0 .5.5 0 0 1 -.25-.13.45.45 0 0 1 -.11-.23 3.77 3.77 0 0 1 .05-.61l.17-1.39h-.23l.09-.75h.22l.06-.51h1l-.06.51h.28l-.09.75h-.28l-.15 1.21a.77.77 0 0 0 0 .35s.12 0 .29 0zm2.89-2.24-.28 2.24h-1l.28-2.22a2.24 2.24 0 0 0 0-.4s-.08-.11-.18-.11-.12 0-.14.08a1.6 1.6 0 0 0 -.09.44l-.27 2.17h-1l.39-3.21h1l-.06.3a.88.88 0 0 1 .31-.27.79.79 0 0 1 .38-.08.66.66 0 0 1 .42.11.47.47 0 0 1 .18.3 2.68 2.68 0 0 1 .04.64zm1.19 2.24h-1.09l.34-2.73h1.06zm-.71-2.92.13-1h1.06l-.13 1zm3.73.68-.29 2.24h-1l.27-2.22a1.77 1.77 0 0 0 0-.4s0-.07-.12-.07a.14.14 0 0 0 -.15.08 3.28 3.28 0 0 0 -.09.44l-.26 2.17h-1l.39-3.21h1.06l-.06.3a1 1 0 0 1 .3-.27.85.85 0 0 1 .39-.08.67.67 0 0 1 .42.11.47.47 0 0 1 .18.3 2.68 2.68 0 0 1 -.06.6zm2.45 1.51a5.36 5.36 0 0 1 -.1.65.72.72 0 0 1 -.22.31 1.19 1.19 0 0 1 -.43.25 2.64 2.64 0 0 1 -.68.08 1.52 1.52 0 0 1 -.77-.16.58.58 0 0 1 -.23-.62h1c0 .15 0 .21.13.21s.13 0 .17-.06a.84.84 0 0 0 .07-.28v-.24a.92.92 0 0 1 -.3.17.87.87 0 0 1 -.32.06.92.92 0 0 1 -.44-.1.51.51 0 0 1 -.21-.28 1.58 1.58 0 0 1 0-.5l.14-1.17a1.19 1.19 0 0 1 .26-.65.73.73 0 0 1 .56-.2.74.74 0 0 1 .59.3l.11-.25h1zm70.79-2.88a1.49 1.49 0 0 0 -.13.59.22.22 0 0 1 0 .17c0 .06 0 .11-.05.11a.8.8 0 0 0 -.06.2.56.56 0 0 1 -.11.28l-.1.09-.2.11h-.07l-.19.12s0 0-.05.07 0 .1-.1.1-.08 0-.08.1a.17.17 0 0 1 0 .12.47.47 0 0 0 -.17.29.19.19 0 0 1 -.05.1.17.17 0 0 0 -.08.09.1.1 0 0 1 -.07.06s-.06 0-.06 0a.18.18 0 0 1 -.09.07s-.07.06-.07.08 0 0 0 0 0 0 0 .06 0 0-.07.07a.1.1 0 0 0 -.07.08s0 .06-.06.07 0 0 0 0a.06.06 0 0 1 -.07 0s-.24.15-.23.19a.57.57 0 0 1 -.17.19s0 0 0 0 0-.06 0 0-.11.14-.13.28a.13.13 0 0 1 0 .08s0 0 0 .08 0 .06 0 0 0 0 0 0c-.06 0-.15.07-.14.1s-.07.21-.09.22 0 0 0 .08a.3.3 0 0 1 0 .09v.06s0 0 0 0 0-.11-.06-.11-.05 0 0 .07 0 .08 0 .09 0 0 0 0 0 .16-.08.16 0 0 0 0 0 0-.05.08a.46.46 0 0 0 -.12.12s-.05.07-.06.07 0 0 0 0-.15.18-.18.17a.2.2 0 0 1 0-.13c.11-.25.16-.42.13-.44s-.12 0-.1.06 0 0-.08.08-.09 0-.08.06 0 0-.05 0a.27.27 0 0 0 -.1.09c-.06.11-.07.14-.14.18l-.06.07a.43.43 0 0 1 -.07.14 2.53 2.53 0 0 0 -.12.23c0 .07-.07.13-.09.13s-.11.41 0 .47 0 .21-.13.32a1.08 1.08 0 0 0 -.15.14l-.06.08a1.74 1.74 0 0 1 -.31.24l-.22.12a.36.36 0 0 1 -.15.08c-.06 0-.07-.11 0-.2s.42-.91.41-.91 0 0 0-.08 0-.06 0 0-.05 0-.06 0-.44.59-.7.72a10.26 10.26 0 0 1 -1.28.28c-.06 0-.09 0-.1 0s0 0-.06 0-.11.1-.09.11-.22.26-.43.47c0 0 0-.23 0-.27a.15.15 0 0 1 .05-.06c.06 0 .06-.06 0-.1a0 0 0 0 1 0-.07s.58-1.06.63-1.16.12-.27-.05-.12-.67 1.06-.67 1.08l-.06.06a.09.09 0 0 0 -.06.08.05.05 0 0 1 0 0 .05.05 0 0 0 0 0s0 0 0 0a.44.44 0 0 0 -.14.11c-.12.12-.17.14-.27.23h.13l.08.08a1.71 1.71 0 0 0 .2.21.9.9 0 0 1 .25.38 1.44 1.44 0 0 1 .09.31 1.47 1.47 0 0 0 .1.31.7.7 0 0 1 .09.31.34.34 0 0 0 0 .11.39.39 0 0 1 0 .25.32.32 0 0 0 0 .13 1 1 0 0 1 -.08.33.59.59 0 0 0 -.12.12.72.72 0 0 1 -.11.12l-.11.17a.89.89 0 0 1 -.23.31l-.14.12c-.06 0-.12.08-.14.07s-.08 0-.13.05l-.16.1s-.06 0 0 0 0 0 0 0-.09.07-.12.14-.08.08-.14.13a.46.46 0 0 0 -.14.12.1.1 0 0 1 -.07 0 .25.25 0 0 0 -.1.08.27.27 0 0 1 -.13.1c-.08 0-.09.07-.24.23a.52.52 0 0 1 -.17.13 1.21 1.21 0 0 0 -.36.38c-.05.09-.06.16 0 .11s.09 0 .07.06l-.11.13-.11.09v-.07a.12.12 0 0 0 0-.17.56.56 0 0 1 -.19.14l-.18.1.14.17a.21.21 0 0 1 .07.13.33.33 0 0 0 0 .14.39.39 0 0 1 .05.2c0 .13 0 .13-.13.25a2.81 2.81 0 0 1 -.36.24 1.93 1.93 0 0 0 -.26.17 2.67 2.67 0 0 1 -.42.16 1.68 1.68 0 0 1 -.8.15s0 0 0 0a1.78 1.78 0 0 1 -.51 0c-.27 0-1.49-.18-1.62-.21a1.1 1.1 0 0 0 -.26 0 1.32 1.32 0 0 1 -.42-.06 10.6 10.6 0 0 0 -1.72-.18 4 4 0 0 1 -.63 0s.06 0 .13 0h-.65s-.17 0-.29 0-.09 0-.09 0 0 0-.11 0h-.92a1.2 1.2 0 0 1 -.06.17c0 .07-.06.16-.08.19s-.23.54-.3.69-.06.13-.07.17a3.82 3.82 0 0 1 -.17.36 10.1 10.1 0 0 1 -.93 1.56 2.06 2.06 0 0 1 -.18.25l1.06.08c.75 0 2 .06 2.53.05h.77c.5 0 1.11 0 1.83-.06.56 0 1.62-.23 2.06-.3.66-.13.69-.16.67-.22a.19.19 0 0 0 0-.08c-.05 0 0-.06 0 0a.86.86 0 0 0 .39 0 1.89 1.89 0 0 0 .55-.31 7.55 7.55 0 0 0 .86-.76 2.45 2.45 0 0 1 .17-.19s0 0 0 .08a1.23 1.23 0 0 0 -.1.22c0 .1-.09.21-.12.25a.45.45 0 0 0 -.06.14l-.06.12a1.23 1.23 0 0 0 -.17.26c-.07.13-.12.26-.16.34s0 0 0 .18a1.44 1.44 0 0 1 0 .25s.33-.35.4-.28c.27.29.29.18.54.24h.2l1.7-1.46a5.12 5.12 0 0 0 .48-.41c.16-.16.73-.8.87-1a1.41 1.41 0 0 1 .14-.18 2.15 2.15 0 0 0 .26-.29l.14-.19c.35-.44.49-.65.46-.67s0 0 .08-.11a6 6 0 0 0 .66-1.08l.09-.23a.87.87 0 0 0 .06-.16s0-.07 0-.12a2 2 0 0 0 .07-.19c.06-.19.13-.31.17-.3s0 0 0 0a.68.68 0 0 0 0 .19.59.59 0 0 1 0 .17.3.3 0 0 0 0 .17.18.18 0 0 1 0 .21.27.27 0 0 0 -.06.16.38.38 0 0 1 0 .16.67.67 0 0 0 -.06.17s-.06.2-.1.33a3.1 3.1 0 0 0 -.09.36 1.68 1.68 0 0 1 -.06.24.37.37 0 0 0 0 .19c0 .07 0 .07 0 0s0-.06 0 0 0 .06 0 .12a2.16 2.16 0 0 0 0 .3.81.81 0 0 1 -.07.27.65.65 0 0 0 -.05.15s0 0 0 0 0 0 0 .06a.16.16 0 0 1 0 .1.16.16 0 0 0 0 .12.26.26 0 0 1 0 .07s0 0 0 0 0 0 .06 0 0-.06 0 0a2.08 2.08 0 0 1 -.1.24c-.07.15-.08.19 0 .17a3.48 3.48 0 0 0 .31-.64s0 0 0 0a2.25 2.25 0 0 1 -.21.55 1.7 1.7 0 0 0 -.17.54s0 0 0 .07 0 .28 0 .29.07-.07.14-.27 0-.07 0 .06a.86.86 0 0 1 0 .31.19.19 0 0 0 0 .08s0 .06 0 .08a.19.19 0 0 0 0 .08.47.47 0 0 1 0 .09.15.15 0 0 0 0 .11v.07l.05-.11c.06-.14.09-.14.1 0s0 .08 0 .09-.08.1-.06.17a.08.08 0 0 1 0 .07.54.54 0 0 0 -.07.19 1.27 1.27 0 0 1 -.13.35.59.59 0 0 0 -.11.29c0 .11 0 .11 0 0a.1.1 0 0 1 .07-.06s0 .06-.08.15a.92.92 0 0 0 -.16.33 3.18 3.18 0 0 1 -.16.32c0 .08-.08.15-.07.16s0 .06-.07.13-.08.11 0 .1 0 0-.07.2-.18.3-.14.33 0 0 0 .06a.19.19 0 0 0 0 .11s0 .1-.07.18a.34.34 0 0 0 -.08.25.42.42 0 0 1 0 .16s0 0 0 0a.06.06 0 0 1 0 .08.07.07 0 0 0 0 .08.13.13 0 0 1 0 .09.07.07 0 0 0 0 .08c0 .06 0 .06 0 0s0 0 0 .1 0 .14-.09.15a.07.07 0 0 0 0 0s0 0 0 0a.06.06 0 0 0 .06 0 0 0 0 0 1 0 0c.05 0 0 .09-.17.18a.09.09 0 0 0 0 0c.08 0 .11 0 .09 0h.07c.08 0 .11 0 0 .07s-.08.09 0 .15 0 .06 0 .06 0 0 .05.06.09 0 .08.09 0 .08 0 .09.06 0 .06 0a.82.82 0 0 1 -.09.31s0 0 0 0a.07.07 0 0 0 -.05.06s0 0-.06 0-.06 0-.06 0a2.37 2.37 0 0 1 -.74.32.41.41 0 0 0 -.2.07 1.25 1.25 0 0 1 -.27.12c-.06 0-.11 0-.11.07s-.07.06-.15.08h-.16a.38.38 0 0 1 -.15.06 2.3 2.3 0 0 0 -.35.1l-.41.11-.25.06h-.14l-.16.06s-1 .13-1.31.15l-.42.06a1.2 1.2 0 0 1 -.38 0h-.41a2 2 0 0 1 -.54 0h-.12a.31.31 0 0 1 -.13 0h-.18a2.07 2.07 0 0 1 -.43 0s-.06 0-.07 0-.31 0-1 0a2.34 2.34 0 0 0 -.27 0c-.06 0 .43 0 .19 0h-.23-.9c-.11 0-1-.1-1.42-.13-.27 0-1.2-.12-1.35-.15h-.29l-1-.17-.46-.08a8.83 8.83 0 0 1 -.88-.21 15.51 15.51 0 0 1 -1.47-.54 4.53 4.53 0 0 1 -1-.55l-.41-.32-.28-.27a5.26 5.26 0 0 1 -.62-.71 4.6 4.6 0 0 1 -.43-.69.17.17 0 0 0 0-.07 2.64 2.64 0 0 1 -.27-.68.37.37 0 0 0 0-.11.41.41 0 0 1 0-.12s0-.06-.06-.09-.06 0-.06-.06 0 0 .06 0 .06 0 0 0a1.36 1.36 0 0 0 -.2-.42c-.07-.08-.08-.12 0-.1s0 0 0-.07 0-.08-.06-.08a1.19 1.19 0 0 1 -.18-.41.66.66 0 0 0 -.06-.12s0-.07 0-.06a0 0 0 0 1 0 0s0 0 0-.08a.13.13 0 0 1 0-.1h.05s0 .06 0 .08.06 0 .07 0 .06-.09.09 0 0 0 0-.09l-.05-.22s0-.13 0-.2 0-.12 0-.15 0-.06 0-.17 0-.13.07-.15.1 0 .09-.07.13-.17.26-.17.13 0 .15 0 .06-.05.11-.05.1 0 .1 0a.58.58 0 0 0 .1-.11s.07-.09.07-.08a.17.17 0 0 0 .12 0 .2.2 0 0 1 .17 0h.08v-.2a.42.42 0 0 0 .19 0h.11l.29-.2a11.42 11.42 0 0 0 1.5-1.16l-.79.07a1.22 1.22 0 0 1 -.46 0 .8.8 0 0 0 -.26 0l-.49.06h-.33-.29a4.68 4.68 0 0 0 -1.29.29.38.38 0 0 1 -.5-.08s0 .08 0 .11 0 .11 0 .11a.51.51 0 0 0 0 .15.4.4 0 0 1 0 .15.45.45 0 0 0 0 .18 3.37 3.37 0 0 1 -.12.55c0 .11 0 0 0-.1a2.72 2.72 0 0 0 .08-.5 0 0 0 0 0 0 0s0 0 0 0a.6.6 0 0 1 0 .18c0 .08-.07.23-.1.34a.56.56 0 0 1 -.06.19v-.15c0-.16 0-.21 0-.06s-.1.3-.12.3 0 0 0 0-.06.47-.08.54 0 0 0-.31 0-.34 0-.19 0 .06 0-.14a1.68 1.68 0 0 0 0-.48s-.05 0 0 .13a1.28 1.28 0 0 1 0 .34s0 0 0-.07-.38-.13-.42-.11 0 0 0 0 0 .23 0 .22 0 0 0-.11a.59.59 0 0 0 0-.14s-.06.1-.06.15 0 0 0 0-.17.07-.19.13a1.71 1.71 0 0 1 -.07.18.22.22 0 0 0 0 .11.13.13 0 0 1 0 .09.07.07 0 0 0 0 .09s0 0 0 0 0 0 0 .06 0 0 0 .07v.06s0 0 0 0 0 0 0-.08-.06-.23-.06-.17l-.1.07a.21.21 0 0 0 0 .06 1 1 0 0 1 0 .3.36.36 0 0 1 0-.18.83.83 0 0 0 0-.22.32.32 0 0 1 0-.13s0 0 0 0-.06.23 0 .38a.11.11 0 0 1 0 .08s0 0 0 0c0-.24 0-.28-.05-.28s0 0 0 0a.06.06 0 0 1 0 .07.25.25 0 0 0 0 .1v1.56-.06a.22.22 0 0 1 0-.11s0 0 0 0 0 .06 0 .21 0 .06 0 0v-.09.05s0 .16 0 .24v.15s0-.08 0-.19-.09-.39-.12-.36 0 0 0 0a.58.58 0 0 1 -.1-.19c0-.09-.07-1.27-.07-1.28a1.76 1.76 0 0 0 -.07-.4 0 0 0 0 1 0 0 .41.41 0 0 0 0-.16c0-.07 0-.14 0-.21a1.64 1.64 0 0 0 0-.23c0-.16 0-.35 0-.45s0-.32 0-.62c0-.66 0-.85 0-1.53 0-.35 0-.69 0-1.11 0-.69-.11-1-.27-1.14s-.13-.17-.11-.19 0 0 0 0 0 0 0-.07 0 0 .06 0 .06 0 .07 0 0-.06.07 0h.1c.06 0 .07 0 .06 0a.07.07 0 0 0 0-.06.09.09 0 0 1 0-.06s0 0 0-.07a.12.12 0 0 1 0-.13c0-.06 0-.08.14-.14l.24-.11a.7.7 0 0 0 .23-.1.84.84 0 0 1 .52 0 2.8 2.8 0 0 0 .29 0 .8.8 0 0 1 .29 0s.1 0 .14 0 .06 0 .11 0a.56.56 0 0 1 .18 0h.18.12a.09.09 0 0 0 .08 0 .36.36 0 0 1 .23.07h.12a3 3 0 0 1 .49.14.46.46 0 0 1 .22.19c0 .07 0 .08.12.09a.87.87 0 0 1 .38.17.37.37 0 0 1 .14.2l.11.25a.64.64 0 0 1 0 .07l3.35-1.07c0 .06 0 .07.14.06s.32-.17.59-.26a4.87 4.87 0 0 1 1.29-.2.68.68 0 0 0 .22-.05l-.11-.11s0 0-.07 0c-.11-.35-.28 0-.32 0s-.38-.24-.38-.24a.12.12 0 0 0 -.1 0s0-.16-.12-.15-.19 0-.19-.1 0-.34-.06-.39l.07-.54c.1-.22.19-.44.28-.66h.1a4.64 4.64 0 0 1 .24-1.42 1.55 1.55 0 0 1 -.21.19c-.15.12-.37.38-.56.44s-.23.28-.3.34l-.48.37c-.11.09-.72.48-.71.62a3.23 3.23 0 0 0 .59-.35l.65-.44c0 .26-1 .57-.88.81 0-.05.29.1.32.14a2.24 2.24 0 0 0 -.32.3l-.17.24c-.06.13.06 0 0 .15 0-.06-.17.16-.14.13-.12.11 0 .22.07.32s-.06.18-.15.28 0 0 0 .18c0 .37-.29.21-.51.47s-.48 0-.68 0a3.21 3.21 0 0 1 -1.82-.05 2.27 2.27 0 0 1 -.79-.4c-.1-.08-.32-.33-.44-.34a2.1 2.1 0 0 1 -.83-.48 2.07 2.07 0 0 1 -.46-.66 1.62 1.62 0 0 0 -.06-.19c0-.08 0-.55 0-.54s-.26-.22-.23-.26.17 0 .22 0v-.12a.18.18 0 0 0 .1 0c.09 0-.25-.58-.2-.59s.19.12.24.06-.08-.12-.09-.19h.14l.07.06c.07 0 0-.15.16-.21a1.27 1.27 0 0 1 .43 0 14.11 14.11 0 0 1 1.68.24s.54.22.55.2a1.79 1.79 0 0 0 .46 0c.13.15 0 .19.28.32a3 3 0 0 0 .67.26 1.64 1.64 0 0 0 1-.12 7.18 7.18 0 0 0 1.21-.6 8.17 8.17 0 0 0 .83-.51c0 .21-1.33.74-1.24.89s1-.65 1.54-1c.11-.47.2-.87.11-.87v-.68l.08-.64c0-.24.43-2 0-2l.32-.36a.83.83 0 0 0 0-.15c-1.29.14-2.53.29-3.46.45s-3.43.61-4.34.75c-.44.07-.71.45-1.11.54l.12.32.2.87.27.93a.28.28 0 0 0 0 .22s-.06.32-.09.37c-.15.24.14.57-.13.79s-.1.25-.13.41 0 .51-.07.67a1.65 1.65 0 0 0 -.17.59c0 .09-.34.54-.39.64a2.41 2.41 0 0 1 -.18.47 6 6 0 0 1 -.41.5c-.06.06-.22.11-.24.17s-.05.29-.14.28a.25.25 0 0 0 0-.07s-.24.08-.31 0-.11 0-.22 0 0-.17-.11-.07-.28.11-.26 0-.22 0-.25-.06-.1-.08-.13-.12l-.28-.08c-.11.13-.27 0-.39 0s-.06-.21-.17-.22a0 0 0 0 1 0 0s-.27-.3-.3-.34l-.25-.27s-.35-.36-.35-.38a3.31 3.31 0 0 0 -.2-.45s-.09-.15-.08-.2-.12-.44-.16-.59a3.08 3.08 0 0 1 -.06-.75s0 0-.07.06a.59.59 0 0 0 -.19.14.94.94 0 0 1 -.32.21l-.21.07-.53.13a1.18 1.18 0 0 1 -.66 0 1.59 1.59 0 0 1 -.42-.09c-.09 0-.12 0-.16 0s-.07 0-.11 0a.23.23 0 0 0 -.13-.06s-.09 0-.09 0a.48.48 0 0 0 -.22-.07c-.21 0-.22 0-.28-.14a.29.29 0 0 0 -.08-.11.57.57 0 0 0 -.24 0s0 0 0 0-.18 0-.3-.1-.13-.06-.29 0a.13.13 0 0 0 -.08 0 .1.1 0 0 1 -.09 0h-.07-.15-1.65s0 0-.06 0-.2-.08-.38 0-.16 0-.16 0-.19 0-.35 0h-.14a.16.16 0 0 0 -.13 0 .15.15 0 0 1 -.13 0 .24.24 0 0 0 -.17 0 1.18 1.18 0 0 1 -.48 0s-.15-.06-.26 0h-.21-.25-.28-.11-.09a0 0 0 0 0 0 0h-.22-.39l-.53.06a2.77 2.77 0 0 0 -.38 0h-.19a1.19 1.19 0 0 0 -.3 0 4.44 4.44 0 0 1 -.88.12 2 2 0 0 1 .42-.07s.66-.15.65-.16-.09 0-.18 0a.61.61 0 0 1 -.21 0h-.21s0 0 0 0h-.11-.27s0 0 0 0h-.44a.06.06 0 0 0 0 0h-.13-.44s0 0 0 0h-.07a0 0 0 0 1 0 0h-.06s0 0 0 0h-.09s0 0 0 0h-.32-.08-.1s0 0-.06 0h-.21-.16-.14-.14a9.11 9.11 0 0 0 1 .23l.85.14h.07a5.14 5.14 0 0 1 .71.19c.37.1.85.22 1.09.26l.68.11c.77.14 1.63.25 2.1.28.14 0 .44 0 .67.06a8.6 8.6 0 0 0 1.31.07c.39 0 .66 0 .69-.11a2.79 2.79 0 0 1 .27-.49 1.14 1.14 0 0 0 .17-.27c.13-.23.15-.25.18-.22s0 0 .06 0 .06 0 .1.07.11.1.15.1l.08.06a.29.29 0 0 0 .1.07.63.63 0 0 1 .18.16c.09.13.73 1.06.72 1.07s0 0 0 0a2.11 2.11 0 0 1 .07.55c0-.2.2 1.48.08 1.21v.36a1.41 1.41 0 0 1 0 .5.2.2 0 0 0 0 .11 1.13 1.13 0 0 1 -.08.45 6.32 6.32 0 0 0 -.25.6c-.1.19-.19.35-.19.36a6.67 6.67 0 0 1 -.66 1c-.11 0-.31.16-.43.19a1.2 1.2 0 0 1 -.7 0 5.81 5.81 0 0 1 -1.09-.45s0 .06 0 .14a1.13 1.13 0 0 1 -.31-.42l-.37-.1c0-.11-.08-.29-.21-.33s-.23-.11-.23-.16-.45-.2-.54-.23-.63-.39-.65-.38a.88.88 0 0 1 -.19-.12l-.19-.12s-.24-.06-.17-.13-.16-.21-.21-.2a.56.56 0 0 1 -.25-.15.14.14 0 0 1 .07 0c.08 0 .09 0 .08 0s-.17-.1-.36-.12h-.11a.22.22 0 0 0 -.12 0c-.06 0-.08 0 0 0h.07s0 0 0 0-.06-.13-.12-.11a1.33 1.33 0 0 1 -.28-.1.42.42 0 0 0 -.11 0 .3.3 0 0 1 -.12 0h-.09s0 0 .07 0 .16 0 .16 0 0 0-.09 0-.11 0-.12 0 0 0 0 0-.21 0-.21-.07 0 0 0 0-.07 0-.1 0a.38.38 0 0 0 -.15-.09c-.06 0-.1 0-.09-.06a.1.1 0 0 0 -.07 0c-.11 0-.23-.13-.21-.15a.35.35 0 0 1 .18 0 2 2 0 0 0 .6.13.06.06 0 0 0 -.07-.09s0 0-.08-.07-.07-.08-.08-.07a.07.07 0 0 1 0 0 .18.18 0 0 0 -.12-.08.7.7 0 0 1 -.24-.13.12.12 0 0 0 -.08 0l-.18-.07a1.63 1.63 0 0 0 -.31-.11c-.09 0-.16-.06-.16-.08s-.56-.1-.67 0-.29 0-.42-.12a.89.89 0 0 0 -.18-.14s-.09 0-.1 0a1.31 1.31 0 0 1 -.29-.26l-.14-.19a.33.33 0 0 1 -.07-.13s.16 0 .28 0 .11 0 .12 0a.15.15 0 0 1 .11 0c.08 0 .08 0 0 0s0 0 0-.06 0-.11-.08-.1a.75.75 0 0 1 -.27-.15c-.05 0-.06-.05 0-.07s0 0 0 0-.15-.08-.17-.06-.32-.14-.35-.25 0 0 .06 0a.09.09 0 0 1 .08 0s.1 0 .15 0 .08 0 .1 0a2.17 2.17 0 0 0 .31.07c.31 0 .36 0 .15-.1l-.35-.69h-.09a.19.19 0 0 0 -.12 0 .08.08 0 0 1 -.07 0s0 0-.07 0a.06.06 0 0 1 -.06 0 .63.63 0 0 0 -.16-.1 1.68 1.68 0 0 1 -.54-.37l-.27-.23h-.02c-.06 0-.12 0-.17 0s0 0 0 0h.11.06l-.1-.08c-.26-.19-.28-.21-.24-.23s0 0 .06 0a1.93 1.93 0 0 0 .37.28h.11a0 0 0 0 1 0 0h.2-.08l-.28-.12-.31-.35a1.59 1.59 0 0 1 -.33-.2s0 0 .13 0a3.3 3.3 0 0 0 .47.15l.62.17h.08.06.1s0 0 0 0h.09a0 0 0 0 0 0 0s0 0 0 0h.45a0 0 0 0 0 0 0h.16.08.1a0 0 0 0 0 0 0h.1s0 0 0 0h.06.07l.31-.13.75-.35a6.83 6.83 0 0 0 .83-.42.52.52 0 0 1 .14-.06s.08 0 .16-.07a5.44 5.44 0 0 1 .59-.29.47.47 0 0 0 .15-.08.67.67 0 0 1 .19-.1l.39-.18a3.93 3.93 0 0 1 .43-.18l.35-.14.31-.13.31-.13.22-.12a19.4 19.4 0 0 0 2.5-1.49c.17-.15.18-.18.1-.25s-.08-.07-.07-.08 0 0 0 0a.65.65 0 0 1 -.16-.14 2.56 2.56 0 0 0 -.27-.23 6.65 6.65 0 0 0 -.92-.51l-.29-.12-.37-.13a13.87 13.87 0 0 0 -1.61-.22h-1.16-.37c-.28 0-.49.08-.51.13a3 3 0 0 1 -.68.39 4 4 0 0 0 -.72.22.56.56 0 0 1 -.48 0s0 0 0 0 0 0-.06-.07a.21.21 0 0 1 0-.15.17.17 0 0 0 0-.12c0-.06 0-.06-.36 0a1.92 1.92 0 0 1 -.46.1h-.14l.09-.06s.08-.08.08-.11 0-.06-.1 0-.07 0 0 0 0 0-.1 0a.31.31 0 0 1 -.15 0s0 0-.06 0 0 0-.06 0 0 0 0 0 0-.1 0-.1a.33.33 0 0 0 -.13.07.75.75 0 0 1 -.31.16s0-.05.13-.1l.16-.1h-.09c-.08 0-.09 0-.08 0s0 0 0 0-.05 0-.25.07-.19.11-.22.07-.05 0-.08 0-.06 0 0 0a.6.6 0 0 0 -.33 0l-.42.1a1.9 1.9 0 0 1 -.12.47 6.48 6.48 0 0 0 -.14.64 4 4 0 0 1 -.11.56s0 .09 0 .1-.49 1.24-.49 1.24l-.38 1.58-.1.82a.64.64 0 0 0 0 .09c.41-.34 1.18-1 1.4-1.16a3.58 3.58 0 0 0 1-1l.09-.21c.15-.35.2-.51.15-.49a.18.18 0 0 1 -.05-.71l-.18-.15a.38.38 0 0 1 -.13-.1 1.49 1.49 0 0 0 -.28-.24s-.09 0-.24-.19a.59.59 0 0 1 -.18-.25.91.91 0 0 0 -.13-.22l-.08-.09s0 0 0 0a.33.33 0 0 0 -.19-.11s0 0 0 0a3.15 3.15 0 0 1 .58-.28.34.34 0 0 0 .12-.06c.07 0 .08-.06.17 0h.15a.51.51 0 0 1 .17 0 .32.32 0 0 0 .16-.06 1.21 1.21 0 0 1 .7-.11.68.68 0 0 1 .29.08 1.54 1.54 0 0 0 .36.15h.06l.17.06a3.72 3.72 0 0 1 .47.16l.6.22h.09l.19.07a2.66 2.66 0 0 1 .51.2s0 0 .06 0 .08 0 .13.06a.38.38 0 0 0 .11.07h.06l.16.12.16.11v.06a1.24 1.24 0 0 1 .23.26s.05.09.07.1l.07.11a.77.77 0 0 1 .08.47s0 .07 0 .07a1.11 1.11 0 0 0 -.07.26 1.23 1.23 0 0 1 -.19.33 1.41 1.41 0 0 1 -.52.43l-.21.08a.6.6 0 0 1 -.23 0h-.17-.12s0 0 0 0c-.2 0-.29 0-.31 0a.88.88 0 0 1 -.28.13.33.33 0 0 0 -.13.07l-.12.06a.66.66 0 0 1 -.31-.06.13.13 0 0 0 -.08 0 .09.09 0 0 1 -.12-.05s0 0 0 0-.06 0-.12 0h-.09a.68.68 0 0 0 -.16-.11l-.13-.1a0 0 0 0 0 0 0 .28.28 0 0 0 -.12-.05.21.21 0 0 0 -.19 0l-.13.08s0 0 0 0 .1-.11.07-.1l-.16.09-.22.11h-.1-.08a1.19 1.19 0 0 0 -.2.1l-.2.09h-.07l-.23.1a.78.78 0 0 0 -.19.12.51.51 0 0 1 -.16.09 1.2 1.2 0 0 0 -.23.17l-.19.14a.1.1 0 0 0 -.07 0s-.19.11-.18.07-.3.12-.39.17-.18.1-.1 0h.07-.06s.3-.26.2-.23-.43.3-.69.5v.24s-.08.48-.13.73a3 3 0 0 0 -.08.48s0 0 0-.07 0-.17.07-.27.07-.26.1-.38c.07-.28.12-.42.15-.37a.61.61 0 0 1 -.07.39s0 0 0 .08 0 .08 0 .27-.07.23-.1.23a.68.68 0 0 0 -.09.37s0 0 0 0v-.06a.23.23 0 0 0 0 0s0 0 0 0a4 4 0 0 1 0 .52c0 .27 0 .32-.07.33s0 0 0 0a.07.07 0 0 1 0 .07v1 .24a1.34 1.34 0 0 0 .09.23c.07.15.1.22.08.28s0 0 0 0 0 .08 0 .08.18-.22.23-.32 0 0 0 0a.36.36 0 0 1 .05.19s0 .05 0 .05a.46.46 0 0 0 0 .1.52.52 0 0 1 0 .25s0 0-.05 0 0 0-.06 0 0 0-.11 0-.1-.05-.1-.07-.12 0-.12.08 0 .22-.09.23 0 0 0 .1a.21.21 0 0 1 -.08.18 1.09 1.09 0 0 0 -.16.08 1.27 1.27 0 0 1 -.23.12 1.06 1.06 0 0 0 -.19.11 1.81 1.81 0 0 1 -.36.26.07.07 0 0 0 0 0h.06c.35-.06.51-.33 1.4-.68l1.17-.43.92-.33a1.73 1.73 0 0 0 .24-.11c.07 0 0-.08.09-.15s.19-.19.69-.17h.57a3.75 3.75 0 0 0 .54 0 1.3 1.3 0 0 1 .59.08l.34.12a2.67 2.67 0 0 1 .72.38c.45.35.68.45 1 .67.15.12.79.36 1.07.5 2.06 1.08.64 1.52 1 2.33 0 0 0 0 0-.08.07.19-.33.65-.45 1 0 .19-.18.59-.27.9s-.18.64-.21.72c-.2.56-.25.72-.28.82s0-.08-.14.23-.08-.21-.12-.07a2.21 2.21 0 0 0 -.14.32.43.43 0 0 1 -.26.32c-.09.07 0 .18-.07.26h-.07s-.07.31-.14.36-.06.37-.18.42a.06.06 0 0 0 0 .06c-.13-.36-1.32 2.78-1.34 2.75-.06.13-.1.26-.16.39s0 0 0 .06.16-.25.09-.06.09 0 .13-.07c-.12.17-.76 1.59-1 1.58l-.06.09c0 .1-.07.2-.1.18-.05.09-.1.18-.09.2v-.07a.16.16 0 0 0 -.05.08c0 .06-.06.09-.09.1s0 0 0 0l-.06.07a.22.22 0 0 1 -.2 0 .79.79 0 0 1 -.27 0s0 0 0 0-.28-.1-.29-.16 0 0 0 0a1 1 0 0 1 -.17-.24s0 0 0 0a.2.2 0 0 1 -.06-.07.22.22 0 0 0 0-.08.07.07 0 0 1 0-.06.08.08 0 0 0 0 0 1.82 1.82 0 0 1 -.12-.43s-.23-.29-.26-.38a.28.28 0 0 1 0-.09h-.08s0 0 0 0l-.33.1a2.07 2.07 0 0 0 -.33.1h-.11l-.24.09-.42.12-.2.06c-.15 0-.39.12-.49.13h-.12l-.29.07h-.09-.13-.07-.06-.06a.16.16 0 0 0 -.09 0h-.15c-.25 0-.53 0-.77 0h-.1-.32-.35a0 0 0 0 0 0 0h-.08-.9l-1.12.1h-.09-.23s0 0 0 0h-.11s0 0 0 0h-.26-.37s0 0 0 0h-.32a0 0 0 0 0 0 0h-.12s0 0 0 0h-.21-.65-.09s0 0 0 0h-.27s0 0 0 0h-.1-.36s0 0 0 0h-.06-.1s0 0 0 0h-.05-.06a.53.53 0 0 0 -.12 0s0 0 0 0h-.08s0 0 0 0a0 0 0 0 1 0 0s0 0 0 0a0 0 0 0 1 0 0s0 0 0 0 0-.08 0-.12 0 0 0 0a.09.09 0 0 0 0 0s0 0 0 0 0 0 0-.06a.13.13 0 0 1 0-.06v-.06.14a2.09 2.09 0 0 0 -.13.26 2.29 2.29 0 0 1 -.13.27 1.14 1.14 0 0 0 -.14.4c0 .1-.08.22-.1.26a.25.25 0 0 0 0 .25c0 .07 0 .07-.11.21a1 1 0 0 1 -.3.23c-.09 0-.41.41-.44.42s-.06 0 0 0 0 0 0 0a.75.75 0 0 1 -.07-.39.33.33 0 0 0 0-.16c0-.06 0-.18 0-.28a1.69 1.69 0 0 0 0-.33 1.35 1.35 0 0 1 0-.35c0-.1-.06.07-.09 0a.1.1 0 0 1 0-.09s0 0 0-.06-.09-.28-.16-1.16c0-.45-.2-.9-.21-1.09s-.21-.39-.23-.55a3 3 0 0 0 -.13-.59 5.51 5.51 0 0 1 -.16-.55 1.79 1.79 0 0 0 -.31-.75.8.8 0 0 1 -.06-.08 3.67 3.67 0 0 1 -.22-.87c0-.11 0-.24 0-.29a1.39 1.39 0 0 1 .05-.23 1.18 1.18 0 0 0 .11-.5 1.6 1.6 0 0 1 0-.44s0-.13 0-.19 0-.12 0-.12a.07.07 0 0 0 0-.08 1 1 0 0 1 .19-.38.48.48 0 0 0 -.99-.89.42.42 0 0 1 .1-.15.49.49 0 0 0 .17-.22s0 0 0 0a.29.29 0 0 0 .1-.09s.11-.09.32-.18a.26.26 0 0 0 .15-.11c0-.06 0-.06.1-.06s.07 0 .14-.07a.32.32 0 0 1 .23-.12c.34-.08.7 0 .74.13a.13.13 0 0 0 0 .07.44.44 0 0 1 .08.16c0 .14 0 .15.17.14h.23s.1 0 .11 0 0 0 .08 0a.24.24 0 0 1 .16 0h.16s.05 0 .07 0a.47.47 0 0 0 .2 0c.49-.23 1.12-.52 1.33-.63l.52-.24.6-.25a2.28 2.28 0 0 0 .3-.17 1.29 1.29 0 0 1 .26-.08l2.83-1.27a.49.49 0 0 1 -.21 0 1.69 1.69 0 0 1 -.61-.23l-.25-.21-.23-.2a1 1 0 0 0 -.2-.17 1.47 1.47 0 0 1 -.17-.16s0 0-.07 0-.07 0-.07-.06a.15.15 0 0 0 -.05-.08s0 0 0-.08a.12.12 0 0 0 0-.12c0-.06 0-.08 0-.13a.11.11 0 0 0 0-.14c0-.07-.31-.15-.42-.21s-.29-.29-.16-.29 0 0 0 0 0-.11.08-.11.07 0 .08-.11a.21.21 0 0 0 0-.16c-.05 0-.05 0 0-.07s.07 0 .14 0 .13 0 0 0-.08-.08 0-.08 0 0 0 0a.06.06 0 0 1 0 0s.13 0 .13 0a.26.26 0 0 0 -.06-.12c-.07-.11-.07-.13 0-.12s.08 0 .08 0 0 0 .06 0 .09-.08 0-.11-.06-.08 0-.08h.08c.07 0 .15 0 .12-.06s0 0 0-.08 0-.06 0-.09 0 0 0 0 .09 0 .09-.07v-.07l-.21.17-.2.15-.14.1-.15.11s-.47.36-.49.36a.73.73 0 0 0 -.16.11.83.83 0 0 1 -.16.12s0 0-.07.07l-.09.08a.28.28 0 0 0 -.13.08c-.12.08-.13.07 0 0s0-.06-.2.13-.15.1-.17 0 0 0 0 0a0 0 0 0 0 0 0 1.58 1.58 0 0 1 .23-.17c.13-.09.21-.16.19-.16l-.19.1h-.09a1.78 1.78 0 0 0 -.35.25s0 0 0 0h.06s0 0-.09.07a1.55 1.55 0 0 0 -.34.26s.11 0 .3-.19a.74.74 0 0 1 .18-.11s0 0 .12 0h.12l-.13.08c-.11.08-.17.15-.12.15a2.88 2.88 0 0 0 .44-.28l.08-.07v.08a.37.37 0 0 0 0 .11 1.31 1.31 0 0 1 -.23.21c-.24.19-.51.48-.42.44s0 0-.09.12c-.26.28-.27.3-.34.53a.89.89 0 0 1 -.09.25c-.09.11-.16.23-.14.24s0 .05 0 .08a.23.23 0 0 0 0 .14c0 .13 0 .24-.16.38s-.14.12-.13.14l-.13.12a1.79 1.79 0 0 0 -.02-.2c-.06.06-.12.12-.14.12s0 0 0 0a.38.38 0 0 1 -.09.1c-.07.06-.12.07-.3.1h-.54a.43.43 0 0 1 -.17 0c-.08 0-.13 0-.16 0s-.41-.1-.55-.23a.67.67 0 0 0 -.34-.16.08.08 0 0 1 -.07 0s0 0-.12-.07a1.5 1.5 0 0 1 -.18-.09 1.12 1.12 0 0 0 -.22-.11 2.65 2.65 0 0 1 -.78-.47.84.84 0 0 0 -.47-.24h-.11a.16.16 0 0 0 -.12 0s-.1 0-.18 0a.27.27 0 0 0 -.2-.06.13.13 0 0 1 -.16 0 .34.34 0 0 0 -.17-.11c-.11-.05-.36-.31-.36-.41s0-.07.07-.11.07-.06 0-.09a.11.11 0 0 1 0-.15s0-.1.08-.2a1.2 1.2 0 0 1 .34-.55 2.27 2.27 0 0 1 .7-.34 4.25 4.25 0 0 1 1.62-.32 1.93 1.93 0 0 1 .55 0 1 1 0 0 0 .33.06 14.61 14.61 0 0 0 2.09-.11 6.45 6.45 0 0 0 1.52-.33 1.92 1.92 0 0 0 .64-.33l.58-.4c.47-.33.78-.57 1.09-.79 0-.54.16-1.84.28-2.51 0-.25.06-1.51.06-1.51s-.06-.52-.09-.92c0-.08 0-.2 0-.25v-.09a1.11 1.11 0 0 1 0-.3c0-.06 0-.12 0-.15s0-.29-.07-.49a23.62 23.62 0 0 0 -3.66 1.48c-.36.2-.66.18-1 .37a3.56 3.56 0 0 1 -.93 0l-.55.49a.74.74 0 0 0 .25 0h.33s.1 0 .21 0 .2 0 .23 0a.08.08 0 0 0 .08 0s0 0 0 0a0 0 0 0 1 0 0s0 0 0 0 0 0 .11 0 .11 0 .13 0a.11.11 0 0 0 .1 0s.07 0 .07 0 0 0 .06 0 .21.17.21.17 0 0 .08 0a.14.14 0 0 1 .13 0s0 0 .06 0a0 0 0 0 1 .06 0l.33.09s0 0 0 0a0 0 0 0 0 0 0s0 0 .07 0 .07 0 .07 0a.86.86 0 0 1 .37 0 .24.24 0 0 0 .14 0s0 0 .06 0 .06 0 .09 0 0 0 0 0 0 0 .09 0 .09 0 .1 0a.07.07 0 0 0 .08 0 .13.13 0 0 1 .11 0s0 0 0 0 .06 0 .1 0 .08 0 .08 0 .06 0 .06 0 0 0 .09 0 .16 0 .31.18l.11.08a2.27 2.27 0 0 1 .66.48.16.16 0 0 0 .09.06s.06 0 .06.09a.16.16 0 0 0 0 .13.13.13 0 0 1 0 .11.58.58 0 0 0 .08.19c.52.59.52.59.52.59s0 0 0 .1a.58.58 0 0 1 0 .41 1.05 1.05 0 0 0 -.1.35s0 .05 0 .05 0 0-.06 0a.2.2 0 0 0 -.08 0 .21.21 0 0 1 -.2 0s-.1 0-.12 0a.59.59 0 0 1 0 .08.21.21 0 0 1 -.2-.06s0 0 0 0a.16.16 0 0 1 -.1 0c-.07 0-.07 0-.07.09s0 .22-.06.28a.28.28 0 0 0 0 .08 0 0 0 0 1 -.06 0s0 0 0 0 0 0 0-.12 0-.11 0-.11 0 0 0-.06 0-.05 0 0-.09.06-.07 0 0-.06-.07 0-.1 0-.11 0a.06.06 0 0 0 -.07 0s-.06 0-.06 0 0 0-.07 0-.07 0-.11 0 0 0 0 0a0 0 0 0 1 0 0 .19.19 0 0 0 -.07.06c-.05.07-.09.07-.08 0s0-.06-.11 0a.19.19 0 0 1 -.1 0s-.06 0 0-.08 0 0-.06 0a.51.51 0 0 0 -.15.07c-.06 0-.08 0-.09 0h-.07a.21.21 0 0 1 -.11 0s-.07 0-.13 0a.2.2 0 0 1 -.09 0s0 0-.09 0-.07 0 0 0 0-.06-.35 0c-.14 0-.19 0-.19 0s0 0 0 0 0 0-.06 0a.34.34 0 0 1 -.16 0 1 1 0 0 0 -.21.1c-.08.05-.13.06-.14.05s0 0-.09 0 0 0-.06 0-.08-.09-.17 0-.21.13-.23.11h-.09c-.1.06-.31.12-.34.09s0 0 0 0a.32.32 0 0 1 -.21 0h-.07s-.06 0 0 0 0 0 0 0-.05 0-.05 0 0 0-.08 0 .44-.23.43-.27.11-.09.14 0 .3-.22.32-.29l-.63.07a.65.65 0 0 0 .09-.19s0-.08.05-.07 0 0 0 0 .11-.19.09-.27a.37.37 0 0 1 .06-.21c0-.08.07-.15.05-.16s0 0 0 0 0-.07 0-.13.06-.46 0-.47a0 0 0 0 1 0 0c0-.06-.13-.14-.18-.12s-.06 0-.06 0-.18-.17-.2-.13-.05 0-.12-.1 0-.06-.07-.06-.11-.06-.13-.13 0-.06 0 0 .06 0 .06 0 0 0 0-.06a.11.11 0 0 0 0-.07s0 0 0 0 0 .06 0 .06 0 0 0-.1 0-.11 0-.13-.05 0 0 0 .06-.07 0-.06-.06 0 0-.06 0-.08 0 0 0 0-.07 0 0-.08 0-.07l-.17-.11-.46-.36-1.17 1a10.44 10.44 0 0 0 -1.36 2.46 12.12 12.12 0 0 0 -.59 1.54c0 .1 0 .3-.07.45a2.38 2.38 0 0 0 0 .3s0 0 0 .08 0 .06 0 .08a.49.49 0 0 1 0 .2v.34a1.2 1.2 0 0 1 0 .25.78.78 0 0 0 0 .16.28.28 0 0 1 0 .11.13.13 0 0 0 0 .08.72.72 0 0 1 0 .19.37.37 0 0 0 0 .15 1.38 1.38 0 0 1 -.12.29 1.59 1.59 0 0 0 -.16.36.3.3 0 0 1 -.07.13s-.06.06-.08.09a.13.13 0 0 1 -.1.09.28.28 0 0 0 -.13.09c-.26.28-.28.3-.42.35a.53.53 0 0 1 -.2 0s-.06 0-.16.07a.88.88 0 0 0 -.14.15.38.38 0 0 1 -.34.12.17.17 0 0 0 -.12 0 .23.23 0 0 1 -.12 0 .88.88 0 0 0 -.36.1c-.09 0-.38 0-.39-.1a.34.34 0 0 0 -.12-.08l-.35-.05a.3.3 0 0 0 -.08-.07.49.49 0 0 1 -.13-.12 1.11 1.11 0 0 0 -.11-.11 1.72 1.72 0 0 1 -.34-.32l-.11-.17-.14-.21a.21.21 0 0 1 -.07-.11.24.24 0 0 0 0-.09.23.23 0 0 1 -.06-.09.19.19 0 0 0 0-.08 1 1 0 0 1 -.23-.23s.14-.55.06-.58a.42.42 0 0 1 -.17-.14.44.44 0 0 1 0-.31 1.41 1.41 0 0 0 .01-.37.37.37 0 0 1 0-.16 2.51 2.51 0 0 0 .09-.45c0-.17-.15.18-.13.18s.36-1.27.38-1.37a4.44 4.44 0 0 1 .14-.56.85.85 0 0 0 0-.15 5 5 0 0 1 .27-1.13c.14-.31.11-.67.26-1a1.25 1.25 0 0 0 .1-.34.34.34 0 0 1 0-.14 2.07 2.07 0 0 0 .06-.26 2.21 2.21 0 0 1 .13-.47 0 0 0 0 0 0 0 3 3 0 0 1 .08-.33 1.57 1.57 0 0 0 .06-.35.68.68 0 0 1 .08-.18c.06-.12 0-.29 0-.4a.47.47 0 0 0 0-.25l-.09-.22h.17a.34.34 0 0 1 .25 0 .24.24 0 0 0 .1 0 2.09 2.09 0 0 1 .58.07s.11 0 .12 0a.44.44 0 0 1 .18 0 .66.66 0 0 0 .17 0 .15.15 0 0 1 .09 0 .13.13 0 0 0 .07 0 .32.32 0 0 1 .15 0 2 2 0 0 0 .42.08l.12.09c0 .05.13.23.2.25a3.48 3.48 0 0 1 .59.32c.11.08.12.08.2 0l.2-.17a15.25 15.25 0 0 0 2-.6 9.62 9.62 0 0 1 1.5-.56c.7-.28 3.3-1.24 4.64-1.71s0 0 0-.08 0-.12 0-.1a.24.24 0 0 1 -.11-.06c-.07.05-.07.05.1-.03 0 0 0 0 0-.07s-.16-.17-.15-.21 0 0 0 0 0 0 0-.06a.16.16 0 0 1 0-.1.18.18 0 0 0 0-.11l-.28.06a12.63 12.63 0 0 0 -1.91.82l-.52.23a2.77 2.77 0 0 0 -.53.24c-.22.14-.55.52-.85.51a3.59 3.59 0 0 1 -1-.17l-.2-.08a.91.91 0 0 1 -.29-.1h-.1-.11c-.27-.13-.25-.51-.34-.53h-.13a.18.18 0 0 0 -.1 0 4.56 4.56 0 0 1 -.82-1.08 8.28 8.28 0 0 0 -.62-1.27l-.43-.84a.52.52 0 0 1 0-.21 2 2 0 0 0 0-.23.15.15 0 0 1 .07-.11c.06 0 .07-.06.05-.07s0 0 0 0 .09 0 .1-.07a.15.15 0 0 1 .19 0h.16c.07 0 .14 0 .15.06a4.18 4.18 0 0 0 1.44.06 8.3 8.3 0 0 0 2.18-.18 3.19 3.19 0 0 1 .42-.08h.1s1-.1 1.23-.13.11 0 0 .07 0 0 .53-.06c.24 0 .38.15.46.13.38-.07 2.17-.34 2.42-.41.08 0 .15 0 .15-.08l4.51-1.41s0 0 .16 0a.52.52 0 0 1 .19 0s0 0-.13 0a.8.8 0 0 0 -.2.06c-.06 0 0 0 .1 0s1.25-.5 1.4-.5.19 0 .33-.07l.41-.09c.37-.08.79-.18.87-.21s.08 0 .06-.07 0 0-.06 0a.68.68 0 0 1 -.31.11s0 0 0 0a1 1 0 0 0 .21-.1l.35-.15a.93.93 0 0 0 .25-.12s-.14 0-.31.08-.35.09-.34.06l.26-.11c.32-.12.47-.2.44-.26a0 0 0 0 1 0 0 10 10 0 0 1 1.13-.44 1.13 1.13 0 0 1 .3 0h.2a.07.07 0 0 1 .07 0 4.31 4.31 0 0 0 .74 0c.06 0 .12-.06.14 0h.13c.09 0 .13 0 .21.11a2 2 0 0 0 .45.26 1.3 1.3 0 0 1 .42.32 1.55 1.55 0 0 0 .22.24l.26.23.16.12a.13.13 0 0 1 .08.07.26.26 0 0 0 .1.07s.06 0 0 0 0 .06.1.1a1.48 1.48 0 0 1 .6.6.26.26 0 0 0 .11.16.12.12 0 0 1 .08.05s0 0 0 0a.56.56 0 0 1 .15.11l.17.13c.07 0 .12.1.13.22a.56.56 0 0 1 0 .27s0 .06 0 .07 0 0 0 .06a.25.25 0 0 0 0 .13.21.21 0 0 1 0 .14.11.11 0 0 0 0 .08.29.29 0 0 1 0 .25s0 .08 0 .1a1.83 1.83 0 0 1 -.33.58.09.09 0 0 0 0 0s0 0-.06 0-.07 0-.12.07a1.25 1.25 0 0 1 -.69.24h-.26a1.64 1.64 0 0 1 -.56-.1.31.31 0 0 0 -.17 0 .59.59 0 0 1 -.18 0h-.21a1.36 1.36 0 0 1 -.34 0 1.22 1.22 0 0 0 -.3 0h-.2-.44-.49a.41.41 0 0 0 -.21 0h-.11a3.75 3.75 0 0 0 -1.44.1 1.55 1.55 0 0 1 -.38 0 .16.16 0 0 0 -.16 0 .21.21 0 0 1 -.16.06 4.1 4.1 0 0 0 -.51.07 4.61 4.61 0 0 1 -.72.12 1.15 1.15 0 0 0 -.29.06h-.25l-.36.06c-.15 0-.3-.06-.4 0l-2.93.32a2 2 0 0 1 .46.16.34.34 0 0 0 .14 0 1.2 1.2 0 0 1 .37.2 2 2 0 0 0 .25.15.44.44 0 0 1 .17.14 1.16 1.16 0 0 0 .25.24l.21.17c1.47-.28 2.86-.55 3.35-.67a32.25 32.25 0 0 1 3.67-.51h.21c.11 0 .43-.09.67-.11a21.59 21.59 0 0 1 3.6 0 4.79 4.79 0 0 1 1.91.3 7.57 7.57 0 0 1 .9.55 6.91 6.91 0 0 1 1.31 1.24 10 10 0 0 1 .84 1.66c.05.12.05.4.11.53a1.21 1.21 0 0 1 .05.4v.23s0 .11 0 .16 0 .16 0 .22a.41.41 0 0 1 0 .16s0 .11 0 .21a.56.56 0 0 1 -.06.25s0 .07 0 .08a1.62 1.62 0 0 0 .48-.6 5.35 5.35 0 0 1 .47-.7.21.21 0 0 0 0-.06.45.45 0 0 1 0-.08s.1-.47.14-.46.6-.84.44-.88a2.09 2.09 0 0 1 .26-.59c.16-.14 0-.22.26-.24.09 0 0-.27 0-.36s.33-.16.39-.38c.13-.4.51.06.68.33 0 0 .23.65.35.49a.11.11 0 0 0 0-.08l.15.72 2-.71s1.92-.6 2.65-.74c1.47-.28 2.83-.73 4.27-1a.1.1 0 0 1 0 0s0 0 0 0h.18a2.39 2.39 0 0 1 -.07-.66.47.47 0 0 1 -.06.09.69.69 0 0 0 0-.22 15.32 15.32 0 0 0 -1.5.36c-.71.17-1.71.66-2.37.84a2.81 2.81 0 0 1 -1.29.2 2.56 2.56 0 0 1 -1.07-.73 7.08 7.08 0 0 0 -.7-.76c-.18-.19-.48-.36-.61-.58s-.28-.56-.58-.63-.45-.4-.51-.53a.41.41 0 0 0 -.16-.16c-.17 0 .22-.17.06-.27s0-.24 0-.54h.23.39a22.91 22.91 0 0 1 2.6.18 3.5 3.5 0 0 0 1.28-.05c-.11 0 .2 0 .24-.06l.85-.19c.34-.08.74-.09 1.1-.16s.86-.08 1.28-.18c.73-.16 1.42-.4 2.16-.54a12.13 12.13 0 0 0 1.33-.48 6.45 6.45 0 0 0 .87-.2 6.48 6.48 0 0 1 .88-.29 5.48 5.48 0 0 0 2.21-1.08c.15-.1.34-.23.31-.25s.3.29.34 0c0-.08 0-.28.07-.35s.19-.13.17-.07a4.39 4.39 0 0 0 .27.47.62.62 0 0 0 .38-.13 2.14 2.14 0 0 0 .21-.25c.07 0 .19.17.21.22s0 0 0 0c.07-.21.49.07.56.09s.32-.09.48 0a.27.27 0 0 0 .07.08c.46 0 .46.2.84.42s.86.12 1.13.38c.11.11.52.19.54.29a4 4 0 0 0 .6.34 1.07 1.07 0 0 1 .4.26c.08.1.3.2.3.33s.24.08 0 .36c-.33.49.1-.07 0 .46 0 .15.26.1.25.3s.16.22.13.32c-.1.46-.84.5-1.22.69-.16.08-.15.19-.35.23a4.43 4.43 0 0 0 -.49.13c-.21.06-.43.29-.65.3s-.3 0-.44-.05c-.53 0-.78-.27-1.32-.22s-.64-.2-1-.08-.69 0-1.19.18c-.2.06-1.2.21-1.4.31s-.56.14-1 .23a.52.52 0 0 1 -.24.53 1.54 1.54 0 0 0 -.55.52 1.4 1.4 0 0 1 -.1.16c2.8-.36 5.56-.73 8.43-.82a3.2 3.2 0 0 0 1-.21l.61-.14.46-.17.44-.27a2.39 2.39 0 0 1 1.2-.1 3.64 3.64 0 0 1 1.27.44c.1 0 1.09 1.15 1.2 1.22.69.43.61 1.35 1.05 2a2.11 2.11 0 0 1 .17.44l.14.08s0 0 0 0a1.09 1.09 0 0 1 .23.29v.07a.2.2 0 0 1 .12.2zm-26.95 1.51c.06 0 .08 0 0-.08s0-.08 0-.12.84-.13.85-.16a.13.13 0 0 1 .09-.06 4.79 4.79 0 0 1 .74-.21h.19.17a1.31 1.31 0 0 1 .27-.06 3.41 3.41 0 0 1 1.01.06h.16a5.28 5.28 0 0 1 .73.14h.07a1.35 1.35 0 0 1 .27.12 1 1 0 0 0 .27.13.67.67 0 0 1 .27.13.18.18 0 0 0 .09.07s.09 0 .09.06a.32.32 0 0 0 .11.06.78.78 0 0 1 .24.16l.09.06c.49.22.73.42.67.56s0 .08 0 .12a1.67 1.67 0 0 1 -.28.45.31.31 0 0 1 -.1 0c-.08 0-.06.16 0 .27s.08.11 0 .13a.13.13 0 0 0 0 .09s0 .12-.09.24a.49.49 0 0 1 -.23.24.51.51 0 0 0 -.16.11 2.39 2.39 0 0 1 -.34.17c-.35.15-.36.15-.94.06a1.12 1.12 0 0 0 -.28 0 1.61 1.61 0 0 1 -.54-.27c-.06-.11-.13-.13-.27-.07s-.14 0-.18 0l-.15-.09a.38.38 0 0 1 -.15-.16 1.27 1.27 0 0 0 -.16-.2l-.12-.13s0 0 0 0l-.14-.13a11.56 11.56 0 0 0 -2.24-1.46c-.12-.06-.14-.07-.09-.1s.12-.1.09-.14-.04 0-.01 0zm-16.17 7.94c-.05 0-.05 0 0 0s.08 0 .06 0 0 0 0 .06 0 0 0 0-.1 0-.08 0 .04-.05.02-.07zm43.17-14.23-.32-.34a4.35 4.35 0 0 0 -1.27-1.13 6 6 0 0 0 -1.87-.63 3.55 3.55 0 0 0 -.57-.06v-.07c0-.05 0-.1-.05-.15a2.32 2.32 0 0 0 -.4-1.29 2.84 2.84 0 0 0 -.69-.84 3.19 3.19 0 0 0 -.89-.61l-.22-.11h-.08a2.84 2.84 0 0 0 -.73-.42 12.22 12.22 0 0 0 -1.74-.81 3 3 0 0 0 -.64-.24h-.05a2.67 2.67 0 0 0 -.95-.16h-.1a2.6 2.6 0 0 0 -.42-.15l-1.83-10.33-1.29 10.48-.21.15-.59.4-.46.4-.13.12a1.8 1.8 0 0 1 -.67.41h-.09a5.64 5.64 0 0 0 -.85.28 4.19 4.19 0 0 0 -.81.18l-.72.28a1.22 1.22 0 0 1 -.24.1c-.47.1-.92.22-1.37.34-.28.08-.56.16-.87.22-.12 0-.26 0-.39.06a6.65 6.65 0 0 0 -.78.1h-.33l-.84.13-.5.11 4.62-37.61h9.47l3.94 19.62 2.41-19.62h9.47l-5.14 41.88a2.94 2.94 0 0 0 -.81-.7z"/><path d="m140.88 71.55a.08.08 0 0 0 0 .12s0 0 .06-.06a.14.14 0 0 0 0-.1z"/><path d="m141.74 69.1a.69.69 0 0 1 -.07.15.81.81 0 0 1 .05-.14 1.2 1.2 0 0 0 .1-.35 0 0 0 0 0 0 0 .05.05 0 0 0 0 0s0 0 0 0a.09.09 0 0 0 0 .06v.06a.42.42 0 0 0 -.08.13.24.24 0 0 1 -.07.13l-.08.11c-.19.32-.24.43-.19.49s0 0 0 0a.4.4 0 0 0 -.09.13.48.48 0 0 1 -.11.15.16.16 0 0 0 -.05.09.18.18 0 0 1 0 .11l-.06.08v.06a.23.23 0 0 0 -.05.1l-.11.22c-.1.18-.1.17-.07.17s0 0 0 .06-.09.12-.08.14 0 0 0 0a.3.3 0 0 0 -.06.13l-.06.15s0 0 0 .07a.23.23 0 0 1 0 .13v.13s0 0 0 0 0 .13.05.11.18-.37.19-.41a.11.11 0 0 1 0 0v-.09c.07-.13.17-.34.35-.67a12.77 12.77 0 0 0 .7-1.49s0 0 0-.1.07-.23 0-.24a.54.54 0 0 0 -.21.33z"/><path d="m47.75 30q-3.26 12.52-4.42 18.3h3.9q.06-7.44.52-18.3z"/><path d="m141.77 69.85s0 0 0 0a0 0 0 0 1 0 0s0 .13 0 .14.06-.19 0-.21z"/><path d="m128.28 69.55h.09s-.05.05-.09 0z"/><path d="m128.77 65.1s0 0 0 0a0 0 0 0 0 0 0z"/><path d="m128.67 65.63s0 0 0 0 0-.21 0-.22-.1.11-.07.12a.17.17 0 0 1 .07.1z"/><path d="m128.75 65.15v-.05h-.1c0 .07 0 .12 0 .11s.1-.03.1-.06z"/><path d="m128.76 65.1v.05a.43.43 0 0 1 0-.05z"/><path d="m133.57 78.48.09-.13-.13.12z"/><path d="m124.72 75.22c-.61 0-.85 0-1 .08a3.41 3.41 0 0 1 -.37.08l-.31.08c-.08 0-.12 0-.15 0a30.94 30.94 0 0 0 -3 .85v.11a1.59 1.59 0 0 0 -.1.39c0 .22-.06.32-.09.34a0 0 0 0 1 0 0 .42.42 0 0 0 -.08.15.22.22 0 0 1 0 .08 1.22 1.22 0 0 0 -.06.27v.05a1.34 1.34 0 0 1 .22-.12s.09-.07 0 0 0 0 0 0 .21-.16.22-.14h-.06l.32-.16h.15.09s.25-.13.26-.12-.3.12-.32.09h.07c.17 0 .35-.11.53-.17a.94.94 0 0 1 .33-.09.73.73 0 0 1 .2-.05h.07-.06s0 0 0 0l-.42.1h-.06l-.21.08a2.87 2.87 0 0 1 .56-.14 2.13 2.13 0 0 0 -.37.14.77.77 0 0 1 .28-.07 1.44 1.44 0 0 0 .3-.12.18.18 0 0 0 .11 0 .4.4 0 0 0 .16-.08.53.53 0 0 1 .28-.07c-.06 0 .14 0 .12 0s0 0 0 0l.38-.11h-.1a.48.48 0 0 1 .2 0c.07-.08.22-.05.24-.05a1 1 0 0 0 .35-.14s.12 0 .11 0 0 0 0 0 .09-.06.13 0h.1-.1s.31 0 .31-.08a0 0 0 0 1 0 0s0 0 0 0c.06 0 .19 0 .25-.06h.1a1.36 1.36 0 0 0 .32-.08h.05s0 0 .06 0h.27.13a.11.11 0 0 0 .08 0h.12c.07 0 .51-.09.61-.11a3.44 3.44 0 0 0 0-.61 2.48 2.48 0 0 1 0-.33c-.07 0-.21 0-.29 0a4.68 4.68 0 0 1 -.93.01z"/><path d="m125.93 73.82.34-.1a1.2 1.2 0 0 1 -.19 0c-.08 0-.08.07-.15.1z"/><path d="m126.76 73.56h.13c-.11-.08-.14-.05-.13 0z"/><path d="m128.25 70-.06-.1c0 .1-.06.21 0 .2s.01-.1.06-.1z"/><path d="m128.36 68.39s0 .26-.05.29-.08.14-.05.12 0 0 0-.06 0 .21 0 .4c.76-.56 1.83-1.36 2-1.53s.88-.86 1-1a5.66 5.66 0 0 0 .49-.48.59.59 0 0 1 .25-.13.14.14 0 0 1 0-.11 2.32 2.32 0 0 1 .11-.27 2.91 2.91 0 0 0 .23-.38.62.62 0 0 0 0-.14c0-.1 0-.12-.05-.19v-.05c-.69 0-1.25.09-1.55.12l-1.8.15a1.06 1.06 0 0 1 -.14.47s-.11.17-.1.15.14.13.06.23 0 .26-.09.37a1.36 1.36 0 0 0 -.14.33c0 .09-.18 0 0 .13s0 .06 0 .11.12-.13.12-.15l.05-.15c0 .15-.12.29-.13.43v.06l.05-.07h.06s-.13.14-.14.18.09 0 .1.05-.12.2-.07.26a.72.72 0 0 1 -.08.39.05.05 0 0 1 0 0c-.07 0-.23.56-.14.61z"/><path d="m127.19 73.42h.08s-.07-.06-.1 0 0 .07-.09.12a.2.2 0 0 0 .11-.12z"/><path d="m127.43 73.33-.09.06h.07z"/><path d="m128.25 69.78a.06.06 0 0 0 .06 0s0-.07 0-.12a.15.15 0 0 0 0 .07s-.05.02-.06.05z"/><path d="m19.86 27.7-1.48 12a5.31 5.31 0 0 0 2.74-.53c.56-.35.95-1.48 1.19-3.4l.58-4.74c.17-1.38 0-2.29-.41-2.72a3.84 3.84 0 0 0 -2.62-.61z"/></g></svg>