<!-- Generator: Adobe Illustrator 22.1.0, SVG Export Plug-In  -->
<svg version="1.1"
	 xmlns="http://www.w3.org/2000/svg" xmlns:xlink="http://www.w3.org/1999/xlink" xmlns:a="http://ns.adobe.com/AdobeSVGViewerExtensions/3.0/"
	 x="0px" y="0px" width="278.8px" height="365.1px" viewBox="0 0 278.8 365.1" style="enable-background:new 0 0 278.8 365.1;"
	 xml:space="preserve">
<style type="text/css">
	.st0{fill:#231815;}
	.st1{fill:#FFFFFF;}
	.st2{fill:#0087C5;}
	.st3{fill:#FDE6C7;}
</style>
<defs>
</defs>
<g>
	<path class="st0" d="M200.4,0.8c-20.9,2.3-38.2,15.3-58.2,29.3c-7.1-6.3-16.2-9-24.6-10.7C102.5,9.2,72.1-1,58.9,22.3
		C68.3,20,77.2,20,77.2,20c-11.9,1.1-20.2,10.2-24.4,18.3c-4.9,1.1-9.6,3.2-14,6.3c10.4,1.5,23.2,12.1,30.4,20.6
		c-15.6,3.2-33.4,4.2-54.2,1.9c-23.1-2.9-10,28.3,14.7,47.6c-6.4,36.1,25.7,35.2,25.7,35.2s-15.9,6.7-30.4,2.7
		c5.3,13.7,13.7,19.9,22.4,21.7c5.7,12.1-17.3,15.8,0,33c17.7-27.5,39.5,0,52-31.8c0,0,12.1,1.5,12.1,19c0,41.8-42.2,33.9-47.9,60.7
		c33.2-29.2,47.2,22.8,93.9-26.6c0,0,11.9-2.4,16.8-0.6c5,1.8,7.8,4.5,6,14.6c4,0.7,25.4-2.9,29.2-24.1c3-16.6-0.3-18.4-4.9-23.3
		c0,0-0.7-2.4,0.8-4.6c1.6-2.2,2.3-2.8,3.4-8c1.1-5.2,0-7.1,0-7.1s3.9-1.1,5.6-4.1c1.6-3,0.6-11.7-0.1-16.2
		c-0.7-4.5-0.8-19.8-6.5-24.5c4.1-5.1,2.5-10.2,2.8-13.7c0,0,6.2-0.3,4.4-4.2c-1.9-5.4-5-13.3-4.4-23.8c0.6-48.4,51.9-56.6,51.9-63
		C262.6,19.6,252.5-4.8,200.4,0.8z M96.7,56.8c-0.6-0.7-1.2-1.4-1.9-2c0.9,0.6,1.7,1.2,2.5,1.8C97.1,56.6,96.9,56.7,96.7,56.8z"/>
	<path class="st1" d="M159.7,120.7c13.4,8.3,4.3,18.3,4.3,18.3s17.6,6.4,24.8,2.9c-1.7,8.5-12.2,12.7-12.2,12.7s19.9,0.2,19.4-17.8
		c0.4-0.3,2.1-1.9,6-1.2c0.9,0.2,2,0.3,3.1,1.3c1.1,1,5.1,11.1,3.8,30.9c0.1,3.2-2,4.4-5.4,2.1s-10.3-6.2-18.8-5.2
		c-0.9-4.7,3.6-8.5,3.6-8.5s-3.8,0.1-7.2,4.5c-14,1.5-27.3,14.8-27.3,14.8s3.3-7,9.3-13.5c-9.5,5.1-18.1,3.2-25.2,16.9
		c-0.3-4.7-0.8-4.9-4-8.2c-8.3-8.3,17.8-9,15.1-40.5L159.7,120.7z"/>
	<path class="st2" d="M193.7,130.6c5.8-3.9,11.1-3.4,12.9-11.1c-7,4.9-16.1-12.5-39.3-4.7C189.9,118.8,193.7,128.8,193.7,130.6z
		 M198.2,199.1c-9.4-2.9-10.7,11.5-10.7,11.5s-8.1-2-11.3-9.2c-1,6.1-6.2,7.6-6.2,7.6s5.2-7,2.4-13.5c-1.7-0.4-14.6,10.5-14.6,10.5
		s16.6-29.8,43.1-20.9c0,0,5.4-6.9-0.7-11.8c-2.5-1.9-15.2-8.5-32.9-0.1c-38.4,19-33.7,52.3-68.2,68.3c7.5,3.3,37.1,15.2,64.2-32.9
		c-0.4,5.7-2.6,11.9-2.6,11.9s7.7-1.1,14.4,0.1c6.8,1.2,8.3,3.3,8.3,3.3s0.7-3.5-4.4-7.9c12.3,2.9,9.8,17.2,9.8,17.2
		s11.2-3.9,13.9-16C203.6,214,207.1,202.2,198.2,199.1z M58.7,41.6C78.3,33.5,93,37.6,93,37.6l-20.9,4.8c0,0,22.7,2.6,33.5,18.1
		c7.3-2.7,10-8.8,10-8.8c-5.7-8.1-19.1-9.9-19.1-9.9s8-2.9,21,6l1-2.9c-1.7-3.9-10.1-8.3-10.1-8.3s5.5-0.8,11.2,2.9
		c0.8-1.5,0-3.8,0-3.8s7.5-5,20.3,1.6c-1.8-4-12-9.2-24.8-12.3c-4.3-3.3-29.5-21.1-47.9-7.5c17.4-3.5,24.1,3.7,25,4.8
		c-15.1,0.3-29.5,5.2-35.9,19.1c-0.8,0-1.6-0.1-2.4-0.1c-4.5,0-8.2,2.5-8.2,2.5s17.5,4.4,32.2,22.6l11.4,0.7c0,0-5.9-7.9-18.9-16.5
		c17.8,6.7,23.6,15.7,23.6,15.7l6.4-2.1C100.5,64.2,85.4,43.8,58.7,41.6z"/>
	<path class="st1" d="M37.3,121.7c-1.8,15.5,18.1,22.8,18.1,22.8s8.3-14.5,29.7-9c0,0,3.1-8.5-9.6-9.8
		C62.7,124.2,52.6,132.8,37.3,121.7z M56.2,84.2c6.4-0.5,12.7-1.5,18.8-2.9c6.2-1.5,12.2-3.4,18-6.2l-18.7,2.3
		c-6.2,0.7-12.3,1.3-18.5,1.8c-6.2,0.4-12.3,0.6-18.5,0.6c-6.2-0.1-12.3-0.5-18.7-1.2c5.8,2.7,12,4.3,18.4,5.1
		C43.4,84.5,49.8,84.6,56.2,84.2z M74.3,141.5c-9.7,5.6-13,15.7-37.8,17.2c0,0,17.1,20,38.4,3.6c-5.9,1.7-13.6,0.8-13.6,0.8
		c8.5-4.9,17.1-17.2,24.8-14.9C83.5,140.2,77.6,139.6,74.3,141.5z M125.6,158.8c-1.2,4.7-5.9,7.5-10.6,6.3
		c-4.7-1.2-7.5-5.9-6.3-10.6c0.6-2.4,2.2-4.3,4.1-5.4c-3.4,1.2-6.2,4-7.2,7.7c-1.5,5.9,2.1,11.9,8.1,13.5s12-2.1,13.5-8
		c1-3.8-0.2-7.6-2.6-10.2C125.7,154,126.2,156.4,125.6,158.8z M231.9,13.6c-5.7-2.1-11.8-3.3-18-3.4c-12.5-0.2-24.7,3.9-35.1,10.1
		c-2.6,1.5-5.2,3.2-7.6,5c-2.5,1.8-4.7,3.5-7.1,5.3l-13.9,10.7c-4.6,3.5-9.2,7.1-14,10.6c-4.7,3.6-9.5,6.9-14.1,10.7
		c5.5-2.2,10.8-4.7,16.2-7.4c5.3-2.7,10.4-5.6,15.4-8.8c5-3.1,9.9-6.4,14.8-9.7l7.2-5c2.3-1.6,4.7-3.2,7.1-4.6
		c9.7-5.7,20.2-9.9,31.3-10.8c11.1-1,22.5,1.5,33.3,6.3C242.9,18.8,237.6,15.8,231.9,13.6z M90.3,133.6c0.8,3,20.6-15.7,37.4-15.2
		c-28.4,12.2-30.6,20-30.6,20c3.8,1.6,0,6.1,0,6.1s54.6-43.9,109.5-34.2l-2.4-17.9C146.6,81.9,89.5,130.6,90.3,133.6z"/>
	<path class="st3" d="M159.7,120.7c13.4,8.3,4.3,18.3,4.3,18.3s17.6,6.4,24.8,2.9c-1.7,8.5-12.2,12.7-12.2,12.7s19.9,0.2,19.4-17.8
		c0.4-0.3,2.1-1.9,6-1.2c0.9,0.2,2,0.3,3.1,1.3c1.1,1,5.1,11.1,3.8,30.9c0.1,3.2-2,4.4-5.4,2.1s-10.3-6.2-18.8-5.2
		c-0.9-4.7,3.6-8.5,3.6-8.5s-3.8,0.1-7.2,4.5c-14,1.5-27.3,14.8-27.3,14.8s3.3-7,9.3-13.5c-9.5,5.1-18.1,3.2-25.2,16.9
		c-0.3-4.7-0.8-4.9-4-8.2c-8.3-8.3,17.8-9,15.1-40.5L159.7,120.7z"/>
	<path class="st1" d="M56.2,84.2c6.4-0.5,12.7-1.5,18.8-2.9c6.2-1.5,12.2-3.4,18-6.2l-18.7,2.3c-6.2,0.7-12.3,1.3-18.5,1.8
		c-6.2,0.4-12.3,0.6-18.5,0.6c-6.2-0.1-12.3-0.5-18.7-1.2c5.8,2.7,12,4.3,18.4,5.1C43.4,84.5,49.8,84.6,56.2,84.2z M231.9,13.6
		c-5.7-2.1-11.8-3.3-18-3.4c-12.5-0.2-24.7,3.9-35.1,10.1c-2.6,1.5-5.2,3.2-7.6,5c-2.5,1.8-4.7,3.5-7.1,5.3l-13.9,10.7
		c-4.6,3.5-9.2,7.1-14,10.6c-4.7,3.6-9.5,6.9-14.1,10.7c5.5-2.2,10.8-4.7,16.2-7.4c5.3-2.7,10.4-5.6,15.4-8.8
		c5-3.1,9.9-6.4,14.8-9.7l7.2-5c2.3-1.6,4.7-3.2,7.1-4.6c9.7-5.7,20.2-9.9,31.3-10.8c11.1-1,22.5,1.5,33.3,6.3
		C242.9,18.8,237.6,15.8,231.9,13.6z"/>
	<g>
		<g>
			<path class="st2" d="M127.8,268.2h-4.2c-0.4,0-0.7,0.3-0.7,0.7v17.8l-8.3-17.7c-0.2-0.5-0.7-0.8-1.3-0.8h-4.3
				c-0.8,0-1.4,0.6-1.4,1.4v27c0,0.4,0.3,0.7,0.7,0.7h4.2c0.4,0,0.7-0.3,0.7-0.7v-17.8l8.3,17.7c0.2,0.5,0.7,0.8,1.3,0.8h4.3
				c0.8,0,1.4-0.6,1.4-1.4v-27C128.5,268.5,128.2,268.2,127.8,268.2z"/>
			<path class="st2" d="M151.8,268.2h-15.9c-0.6,0-1,0.5-1,1v27c0,0.6,0.5,1,1,1h15.9c0.4,0,0.7-0.3,0.7-0.7v-3.8
				c0-0.4-0.3-0.7-0.7-0.7H141v-18.7h10.7c0.4,0,0.7-0.3,0.7-0.7v-3.8C152.5,268.5,152.2,268.2,151.8,268.2z"/>
			<path class="st2" d="M100.9,280h-7.3c-0.4,0-0.7,0.3-0.7,0.7v3.8c0,0.4,0.3,0.7,0.7,0.7h7.3c0.4,0,0.7-0.3,0.7-0.7v-3.8
				C101.6,280.3,101.3,280,100.9,280z"/>
			<path class="st2" d="M86.1,268.2h-4.8c-0.4,0-0.7,0.3-0.7,0.7v18.7c0,3-1.4,4.5-4.2,4.5c-2.8,0-4.2-1.5-4.2-4.5v-18.7
				c0-0.4-0.3-0.7-0.7-0.7h-4.8c-0.4,0-0.7,0.3-0.7,0.7v18.7c0,6.9,3.5,10.4,10.4,10.4c6.9,0,10.4-3.5,10.4-10.4v-18.7
				C86.8,268.5,86.5,268.2,86.1,268.2z"/>
			<path class="st2" d="M201,268.2h-18c-0.4,0-0.7,0.3-0.7,0.7v3.8c0,0.4,0.3,0.7,0.7,0.7h5.9v23.2c0,0.4,0.3,0.7,0.7,0.7h4.8
				c0.4,0,0.7-0.3,0.7-0.7v-23.2h5.9c0.4,0,0.7-0.3,0.7-0.7v-3.8C201.7,268.5,201.4,268.2,201,268.2z"/>
			<path class="st2" d="M143.5,280c-0.4,0-0.7,0.3-0.7,0.7v3.8c0,0.4,0.3,0.7,0.7,0.7h7.3c0.4,0,0.7-0.3,0.7-0.7v-3.8
				c0-0.4-0.3-0.7-0.7-0.7H143.5z"/>
			<path class="st2" d="M178.6,268.2h-5.1c-0.4,0-0.8,0.2-0.9,0.6l-4,8.7l-4-8.7c-0.2-0.4-0.5-0.6-0.9-0.6h-5.1
				c-0.5,0-0.9,0.6-0.6,1l7.2,13.5l-7.2,13.5c-0.2,0.5,0.1,1,0.6,1h5.1c0.4,0,0.8-0.2,0.9-0.6l4-8.7l4,8.7c0.2,0.4,0.5,0.6,0.9,0.6
				h5.1c0.5,0,0.9-0.6,0.6-1l-7.2-13.5l7.2-13.5C179.5,268.8,179.2,268.2,178.6,268.2z"/>
		</g>
		<path class="st0" d="M72.6,312.1c0.2-0.8,0.1-2.1-0.2-3.5c4.1-0.8,11.7-3.1,16.1-5.4c1.5-0.8,1.8-3.7,1.8-4.7c0-1.6-0.5-3.3-1.9-4
			c-0.1-0.1-0.3-0.1-0.3,0c0.4,0.7,0.2,1.4-0.7,2.4c-3.5,4-10.2,8.4-15.3,10.5c-1.5-4.7-5.8-10.8-14.4-12.8c4.5-5.1,6.9-8.5,6.9-9.3
			c0-2.4-3.9-7.1-5.7-7.1c-0.2,0-0.3,0.1-0.3,0.1c0.4,0.4,0.6,0.8,0.6,1.4c0,3.1-3.6,7.1-9.3,13.9c-22.8-0.8-50.9,13-50.1,24.1
			c0.3,4.1,5.8,8.6,10.1,9.1c5.6,0.7,11.6-5.4,15.8-9.3c0.9-0.9,0.4-1.3-0.3-0.9c-8,4.8-14.3,7.4-18,6.9c-1.3-0.2-3.2-0.9-2.4-2.8
			c3-8.2,21.6-21.7,41.9-23.3c-13.5,16.9-28.9,39.1-34.3,51.4c-0.2,0.5-0.3,1-0.3,1.4c0,3.2,4.4,5.9,5.3,5.9c0.1,0,0.2-0.1,0.2-0.1
			c-0.2-0.3-0.3-0.7-0.3-1.1c0-3.9,5.6-13.9,13.2-25.1C44.2,330,69.7,324.4,72.6,312.1z M68.3,307.7c-2.2,7.9-21.5,18.1-33.1,19.3
			l-2.8,0.3c7.1-10.3,15.6-21.5,22.7-29.8c1.5,0.1,3.1,0.4,4.6,0.7C67.8,299.8,69.3,303.9,68.3,307.7z M251.3,318
			c-14.3,1.4-31.2,6.7-41,10.9c-1.5-0.5-3.9-1.3-3.9-2c0-3.2,12.5-11.1,18.9-11.1c0.9,0,1.1,0.3,1.1,0.6c0.1,1.5-4.7,5.6-6.1,6.6
			c-0.5,0.4,0,0.6,0.4,0.5c2-0.5,8.4-2.6,8.5-5.7c0.1-1.9-3-5.8-6.8-5.8c-7.6,0-21,7-21,12.4c0,0.7,0.2,1.3,0.6,1.9
			c-9.7,7.7-20.6,13.4-27.3,16.2c-0.9,0.4-3.4,1-4.5,1c-1.4,0-1.7-0.7-1.7-1.4c0-2.5,2.8-7.3,4.9-9.7c6.8-7.6,17.2-16.4,22.4-16.4
			c0.5,0,1.2,0.1,1.2,0.9c0,0.8-2,3.6-6.8,7.1c-3.1,2.3-11,7-15.1,9.1c-1.1,0.6-1.4,1.3-0.1,1.1c2.8-0.4,12.2-4.1,15.9-6.1
			c5.4-3.1,9.3-6.4,9.3-8.1c0-3.4-3.6-7.4-7.6-7.4c-3.4,0-7.8,2-12.4,5c-5.2,3.4-11.1,8.7-14.5,13.7c-2,3-3.2,5.9-3.2,8.2
			c0.1,3.2,5.5,8.3,8.6,8.3c6.3,0,22.1-11.2,31.4-20.6c1.3,1.2,3.4,2,5.5,2.7c-10.9,4.9-17.5,10.1-17.5,12.6c0,0.7,0.5,1.9,1.4,2.9
			c1.5,1.6,3.8,3,5.9,3c6.1,0,13.8-3.4,18.8-7.2c3.1-2.4,3.6-4.1,3.6-5.7c0-2-2.6-3.5-6.8-5.3c9.5-4.2,25.4-10.1,42.2-11
			c8.2-0.5,17,1.2,18.7,5.5c0.9,2.3-1.7,6.1-2.2,6.7c2.2-0.3,6.5-3.2,6.5-5.7C278.7,322.8,275.5,315.7,251.3,318z M215.4,333.5
			c-0.5,1.2-3.1,3.1-5.9,4.7c-5.2,3-15.3,7.8-15.3,6.6c0-2,6.4-8.2,17.8-13.7C214.5,332,215.8,332.4,215.4,333.5z M179.8,350.1
			c-9.1,8.6-20.9,11.8-25.6,11.4c-2.4-0.2-5.9-1.8-5.9-5.9c0-5.7,5.3-14.2,8.8-19.7c3.2-4.8,7-10.2,10.5-15.1l10.9-15.2
			c12.8-1.7,24.1-2.6,41.2-2c5.9,0.2,14.9,1.4,14.7,1.4c0.1,0,0.1-0.1,0.1-0.1c0.1-1.1-21.7-3.9-32.4-4.2
			c-5.5-0.1-13.2-0.1-20.5,0.6l2.9-4.2c0.1-0.1,0.1-0.3,0.1-0.4c0.1-0.9-2.5-4.7-3.8-5.9c-1.6-1.4-2.2-0.9-2.2-0.9
			c1,0.5,0.7,2.1-0.1,4c-0.6,1.3-1.7,3.3-2.5,4.4c-0.7,1.2-1.8,2.8-2.5,3.9c-3.7,0.7-7,1.6-9.5,2.8c-3.2,1.6-5.2,5.3-5.2,7.5
			c0,2.4,2.3,2.8,4.8,3h0.7c-2.6,3.6-5.3,7.3-7.6,10.6c-8.6,8.2-19.3,16.8-20.7,16.8c-0.3,0-0.3-0.1-0.3-0.3
			c0.1-1.2,3.5-6.9,9.2-13.4l1.6-1.8c0.1-0.1,0.1-0.2,0.1-0.3c0.1-0.6-1-2.4-2-3.8c2-1,4.1-2.6,4.1-3.6c0-3.9-4.2-7.4-9.4-7.4
			c-4.7,0-12,4.2-18.4,9.5c-1.6,1.4-3.2,2.8-4.7,4.3c-3.2,2.4-9.6,6.5-11,6.5c-0.1,0-0.1-0.1-0.1-0.1c0-2.9,9.2-13.4,11.5-14.1
			c0.8-1-0.4-3-1.2-4.3c-0.9-1.4-2-2.6-3.1-2.3c-2.4,0.8-16.3,11.1-24.7,20.4c0-0.1,0.1-0.1,0.1-0.2c4.6-6.2,9.4-12.2,9.4-13.2
			c0-0.9-2.2-4.1-3.6-5.2c-1.6-1.4-2.2-0.9-2.2-0.9c1.2,0.6,0.3,3.1-1.4,5.7c-1,1.6-3.3,4.8-5.5,8c-8.6,8.2-18.9,16.5-20.2,16.5
			c-0.3,0-0.3-0.1-0.3-0.3c0-1.3,2.8-6.1,6.1-10.7c5-7,9.2-12,9.2-13c0.1-0.9-2.1-4.1-3.4-5.2c-1.6-1.4-2.2-0.9-2.2-0.9
			c1.2,0.6,0.3,3.1-1.4,5.7c-4.5,6.9-12.6,16.9-14.7,22.4c-0.1,0.3-0.3,0.7-0.3,1.1c-0.1,1.2,1.2,3.1,2.8,4.5c1,0.9,2,1.4,2.9,1.4
			c2,0,9.8-7.3,14.1-11.8c0.9-1,1.8-1.9,2.6-2.8l-2.3,3.4c-1.2,1.9-2.1,3.4-2.5,4.6c-0.7,2,2.9,5.9,3.6,6.1s1.3-0.1,0.9-0.5
			c-0.2-0.3,0.1-1.9,1.3-3.9c1.6-2.8,4.5-6.2,7.8-9.5c8-8.1,19.3-16.2,22-17.4c-3.8,2.4-10.5,10.4-10.5,13.7c0,1.5,3.2,5.3,6.2,5.1
			c0.9-0.1,2.9-1.5,5-3.2c-2.7,3.5-4.5,6.8-4.5,9c0,3.2,4.3,7.4,6.2,7.4c2.6,0,11.8-7.4,19.1-14.1l4.4-4c-5,6.4-7.4,9.8-7.8,10.9
			c-0.1,0.2-0.1,0.5-0.1,0.7c-0.2,2.5,3.5,6.6,6,6.6c0.1,0,0.1,0,0.3-0.1c2.8-0.8,11-8.7,16.8-14.9c-4.7,7.2-8.8,14.6-8.8,19.1
			c0,8,8.9,13.4,15.8,13.4c1.8,0,13.8-3.2,21-14.8C180.8,349.5,180.2,349.8,179.8,350.1z M161.9,312c0-1.4,3.9-3.2,8.2-4.5l-4.4,6.2
			C163.5,313.3,161.9,312.6,161.9,312z M113.3,343c-0.5,0-0.5-0.3-0.5-0.5c0-2.2,6.2-10.1,13.6-17c5.2-4.9,11-8.9,15.8-10
			c0.5-0.1,1.1-0.2,1.6-0.2c1,0,1.8,0.3,2.1,1.4c0.3,1.2-0.3,3.2-2,5.5c-0.6-0.7-0.8-0.8-1-0.9c-1.1-0.7-1.4-0.3-1.4-0.3
			c0.2,0.1,0.3,0.3,0.3,0.5C141.3,326.6,115.8,343,113.3,343z"/>
	</g>
	<path class="st2" d="M58.7,41.6C78.3,33.5,93,37.6,93,37.6l-20.9,4.8c0,0,22.7,2.6,33.5,18.1c7.3-2.7,10-8.8,10-8.8
		c-5.7-8.1-19.1-9.9-19.1-9.9s8-2.9,21,6l1-2.9c-1.7-3.9-10.1-8.3-10.1-8.3s5.5-0.8,11.2,2.9c0.8-1.5,0-3.8,0-3.8s7.5-5,20.3,1.6
		c-1.8-4-12-9.2-24.8-12.3c-4.3-3.3-29.5-21.1-47.9-7.5c17.4-3.5,24.1,3.7,25,4.8c-15.1,0.3-29.5,5.2-35.9,19.1
		c-0.8,0-1.6-0.1-2.4-0.1c-4.5,0-8.2,2.5-8.2,2.5s17.5,4.4,32.2,22.6l11.4,0.7c0,0-5.9-7.9-18.9-16.5c17.8,6.7,23.6,15.7,23.6,15.7
		l6.4-2.1C100.5,64.2,85.4,43.8,58.7,41.6z"/>
	<g>
		<path class="st1" d="M37.3,121.7c-1.8,15.5,18.1,22.8,18.1,22.8s8.3-14.5,29.7-9c0,0,3.1-8.5-9.6-9.8
			C62.7,124.2,52.6,132.8,37.3,121.7z"/>
		<path class="st1" d="M74.3,141.5c-9.7,5.6-13,15.7-37.8,17.2c0,0,17.1,20,38.4,3.6c-5.9,1.7-13.6,0.8-13.6,0.8
			c8.5-4.9,17.1-17.2,24.8-14.9C83.5,140.2,77.6,139.6,74.3,141.5z"/>
		<path class="st1" d="M90.3,133.6c0.8,3,20.6-15.7,37.4-15.2c-28.4,12.2-30.6,20-30.6,20c3.8,1.6,0,6.1,0,6.1s54.6-43.9,109.5-34.2
			l-2.4-17.9C146.6,81.9,89.5,130.6,90.3,133.6z"/>
	</g>
	<path class="st1" d="M125.6,158.8c-1.2,4.7-5.9,7.5-10.6,6.3c-4.7-1.2-7.5-5.9-6.3-10.6c0.6-2.4,2.2-4.3,4.1-5.4
		c-3.4,1.2-6.2,4-7.2,7.7c-1.5,5.9,2.1,11.9,8.1,13.5s12-2.1,13.5-8c1-3.8-0.2-7.6-2.6-10.2C125.7,154,126.2,156.4,125.6,158.8z"/>
</g>
</svg>
